STARTFONT 2.1
FONT -FontForge-Source Sans Pro-Bold-R-Normal-SansPro--12-120-72-72-P-63-ISO10646-1
SIZE 12 72 72
FONTBOUNDINGBOX 31 17 -5 -4
COMMENT "Generated by fontforge, http://fontforge.sourceforge.net"
COMMENT "Copyright 2010, 2012, 2014 Adobe Systems Incorporated (http://www.adobe.com/), with Reserved Font Name `Source'."
STARTPROPERTIES 40
FOUNDRY "FontForge"
FAMILY_NAME "Source Sans Pro"
WEIGHT_NAME "Bold"
SLANT "R"
SETWIDTH_NAME "Normal"
ADD_STYLE_NAME "SansPro"
PIXEL_SIZE 12
POINT_SIZE 120
RESOLUTION_X 72
RESOLUTION_Y 72
SPACING "P"
AVERAGE_WIDTH 63
CHARSET_REGISTRY "ISO10646"
CHARSET_ENCODING "1"
FONTNAME_REGISTRY ""
CHARSET_COLLECTIONS "ISO8859-2 ISO8859-5 ISO8859-7 ISO8859-9 ISO8859-4 ISO10646-1"
FONT_NAME "SourceSansPro-Bold"
FACE_NAME "Source Sans Pro Bold"
COPYRIGHT "Copyright 2010, 2012, 2014 Adobe Systems Incorporated (http://www.adobe.com/), with Reserved Font Name `Source'."
FONT_VERSION "2.021;PS 2.000;hotconv 1.0.86;makeotf.lib2.5.63406"
FONT_ASCENT 9
FONT_DESCENT 3
UNDERLINE_POSITION -1
UNDERLINE_THICKNESS 1
X_HEIGHT 5
CAP_HEIGHT 7
RAW_ASCENT 750
RAW_DESCENT 250
NORM_SPACE 2
RELATIVE_WEIGHT 70
RELATIVE_SETWIDTH 50
SUPERSCRIPT_X 0
SUPERSCRIPT_Y 4
SUPERSCRIPT_SIZE 7
SUBSCRIPT_X 0
SUBSCRIPT_Y 0
SUBSCRIPT_SIZE 7
FIGURE_WIDTH 6
AVG_LOWERCASE_WIDTH 64
AVG_UPPERCASE_WIDTH 76
ENDPROPERTIES
CHARS 1896
STARTCHAR space
ENCODING 32
SWIDTH 200 0
DWIDTH 2 0
BBX 1 1 0 0
BITMAP
00
ENDCHAR
STARTCHAR exclam
ENCODING 33
SWIDTH 340 0
DWIDTH 4 0
BBX 2 8 1 0
BITMAP
C0
C0
C0
C0
C0
00
C0
C0
ENDCHAR
STARTCHAR quotedbl
ENCODING 34
SWIDTH 536 0
DWIDTH 6 0
BBX 5 4 1 4
BITMAP
D8
D0
90
90
ENDCHAR
STARTCHAR numbersign
ENCODING 35
SWIDTH 528 0
DWIDTH 6 0
BBX 6 8 0 0
BITMAP
28
28
7C
28
48
FC
58
50
ENDCHAR
STARTCHAR dollar
ENCODING 36
SWIDTH 528 0
DWIDTH 6 0
BBX 6 11 0 -2
BITMAP
10
38
6C
60
70
18
0C
48
F8
10
10
ENDCHAR
STARTCHAR percent
ENCODING 37
SWIDTH 857 0
DWIDTH 10 0
BBX 10 8 0 0
BITMAP
6300
D200
D400
D580
6A40
0A40
1240
1180
ENDCHAR
STARTCHAR ampersand
ENCODING 38
SWIDTH 667 0
DWIDTH 8 0
BBX 8 8 0 0
BITMAP
38
68
68
33
72
DE
CF
7B
ENDCHAR
STARTCHAR quotesingle
ENCODING 39
SWIDTH 300 0
DWIDTH 4 0
BBX 2 4 1 4
BITMAP
C0
C0
80
80
ENDCHAR
STARTCHAR parenleft
ENCODING 40
SWIDTH 344 0
DWIDTH 4 0
BBX 3 11 1 -2
BITMAP
60
40
C0
80
80
80
80
80
C0
40
60
ENDCHAR
STARTCHAR parenright
ENCODING 41
SWIDTH 344 0
DWIDTH 4 0
BBX 2 11 1 -2
BITMAP
80
80
C0
40
40
40
40
40
C0
80
80
ENDCHAR
STARTCHAR asterisk
ENCODING 42
SWIDTH 457 0
DWIDTH 5 0
BBX 5 4 0 5
BITMAP
20
78
B0
70
ENDCHAR
STARTCHAR plus
ENCODING 43
SWIDTH 528 0
DWIDTH 6 0
BBX 6 5 0 1
BITMAP
10
10
FC
10
10
ENDCHAR
STARTCHAR comma
ENCODING 44
SWIDTH 300 0
DWIDTH 4 0
BBX 2 4 1 -2
BITMAP
C0
C0
40
80
ENDCHAR
STARTCHAR hyphen
ENCODING 45
SWIDTH 332 0
DWIDTH 4 0
BBX 2 1 1 3
BITMAP
C0
ENDCHAR
STARTCHAR period
ENCODING 46
SWIDTH 300 0
DWIDTH 4 0
BBX 2 2 1 0
BITMAP
C0
C0
ENDCHAR
STARTCHAR slash
ENCODING 47
SWIDTH 339 0
DWIDTH 4 0
BBX 4 10 0 -1
BITMAP
30
20
20
20
60
40
40
40
40
80
ENDCHAR
STARTCHAR zero
ENCODING 48
SWIDTH 528 0
DWIDTH 6 0
BBX 6 8 0 0
BITMAP
38
48
4C
CC
CC
4C
48
38
ENDCHAR
STARTCHAR one
ENCODING 49
SWIDTH 528 0
DWIDTH 6 0
BBX 5 8 1 0
BITMAP
60
E0
60
60
60
60
60
F8
ENDCHAR
STARTCHAR two
ENCODING 50
SWIDTH 528 0
DWIDTH 6 0
BBX 6 8 0 0
BITMAP
70
C8
08
18
18
30
70
FC
ENDCHAR
STARTCHAR three
ENCODING 51
SWIDTH 528 0
DWIDTH 6 0
BBX 6 8 0 0
BITMAP
78
C8
0C
18
30
0C
8C
78
ENDCHAR
STARTCHAR four
ENCODING 52
SWIDTH 528 0
DWIDTH 6 0
BBX 6 8 0 0
BITMAP
18
38
28
68
48
FC
08
08
ENDCHAR
STARTCHAR five
ENCODING 53
SWIDTH 528 0
DWIDTH 6 0
BBX 6 8 0 0
BITMAP
78
60
60
78
0C
0C
8C
78
ENDCHAR
STARTCHAR six
ENCODING 54
SWIDTH 528 0
DWIDTH 6 0
BBX 6 8 0 0
BITMAP
3C
68
40
78
CC
4C
6C
38
ENDCHAR
STARTCHAR seven
ENCODING 55
SWIDTH 528 0
DWIDTH 6 0
BBX 5 8 1 0
BITMAP
F8
10
30
20
60
60
60
60
ENDCHAR
STARTCHAR eight
ENCODING 56
SWIDTH 528 0
DWIDTH 6 0
BBX 6 8 0 0
BITMAP
38
48
4C
78
78
4C
CC
78
ENDCHAR
STARTCHAR nine
ENCODING 57
SWIDTH 528 0
DWIDTH 6 0
BBX 6 8 0 0
BITMAP
78
48
CC
4C
7C
0C
88
70
ENDCHAR
STARTCHAR colon
ENCODING 58
SWIDTH 300 0
DWIDTH 4 0
BBX 2 6 1 0
BITMAP
C0
C0
00
00
C0
C0
ENDCHAR
STARTCHAR semicolon
ENCODING 59
SWIDTH 300 0
DWIDTH 4 0
BBX 2 8 1 -2
BITMAP
C0
C0
00
00
C0
C0
40
80
ENDCHAR
STARTCHAR less
ENCODING 60
SWIDTH 528 0
DWIDTH 6 0
BBX 6 5 0 1
BITMAP
0C
38
C0
38
0C
ENDCHAR
STARTCHAR equal
ENCODING 61
SWIDTH 528 0
DWIDTH 6 0
BBX 6 3 0 2
BITMAP
FC
00
FC
ENDCHAR
STARTCHAR greater
ENCODING 62
SWIDTH 528 0
DWIDTH 6 0
BBX 6 5 0 1
BITMAP
C0
78
0C
78
C0
ENDCHAR
STARTCHAR question
ENCODING 63
SWIDTH 463 0
DWIDTH 6 0
BBX 5 8 0 0
BITMAP
70
D8
18
30
20
00
30
30
ENDCHAR
STARTCHAR at
ENCODING 64
SWIDTH 903 0
DWIDTH 11 0
BBX 9 10 1 -2
BITMAP
1E00
6100
C080
9E80
B480
A480
BF00
8000
4000
3C00
ENDCHAR
STARTCHAR A
ENCODING 65
SWIDTH 573 0
DWIDTH 7 0
BBX 7 8 0 0
BITMAP
38
38
28
6C
6C
7C
C4
C6
ENDCHAR
STARTCHAR B
ENCODING 66
SWIDTH 605 0
DWIDTH 7 0
BBX 6 8 1 0
BITMAP
F8
F8
C8
C8
F8
CC
FC
F8
ENDCHAR
STARTCHAR C
ENCODING 67
SWIDTH 582 0
DWIDTH 7 0
BBX 6 8 1 0
BITMAP
78
FC
C8
80
80
C8
FC
78
ENDCHAR
STARTCHAR D
ENCODING 68
SWIDTH 635 0
DWIDTH 8 0
BBX 6 8 1 0
BITMAP
F0
F8
CC
CC
CC
CC
F8
F0
ENDCHAR
STARTCHAR E
ENCODING 69
SWIDTH 548 0
DWIDTH 7 0
BBX 5 8 1 0
BITMAP
F8
F8
C0
C0
F0
C0
F8
F8
ENDCHAR
STARTCHAR F
ENCODING 70
SWIDTH 524 0
DWIDTH 6 0
BBX 5 8 1 0
BITMAP
F8
F8
C0
C0
F0
C0
C0
C0
ENDCHAR
STARTCHAR G
ENCODING 71
SWIDTH 638 0
DWIDTH 8 0
BBX 6 8 1 0
BITMAP
78
FC
C8
80
9C
CC
FC
78
ENDCHAR
STARTCHAR H
ENCODING 72
SWIDTH 674 0
DWIDTH 8 0
BBX 6 8 1 0
BITMAP
CC
CC
CC
FC
FC
CC
CC
CC
ENDCHAR
STARTCHAR I
ENCODING 73
SWIDTH 301 0
DWIDTH 4 0
BBX 2 8 1 0
BITMAP
C0
C0
C0
C0
C0
C0
C0
C0
ENDCHAR
STARTCHAR J
ENCODING 74
SWIDTH 509 0
DWIDTH 6 0
BBX 5 8 0 0
BITMAP
18
18
18
18
18
58
F8
70
ENDCHAR
STARTCHAR K
ENCODING 75
SWIDTH 614 0
DWIDTH 7 0
BBX 6 8 1 0
BITMAP
CC
D8
F0
F0
F0
D8
CC
CC
ENDCHAR
STARTCHAR L
ENCODING 76
SWIDTH 518 0
DWIDTH 6 0
BBX 5 8 1 0
BITMAP
C0
C0
C0
C0
C0
C0
F8
F8
ENDCHAR
STARTCHAR M
ENCODING 77
SWIDTH 762 0
DWIDTH 9 0
BBX 7 8 1 0
BITMAP
C6
C6
EE
AA
AA
FA
D2
C2
ENDCHAR
STARTCHAR N
ENCODING 78
SWIDTH 665 0
DWIDTH 8 0
BBX 6 8 1 0
BITMAP
CC
EC
AC
FC
FC
D4
DC
CC
ENDCHAR
STARTCHAR O
ENCODING 79
SWIDTH 684 0
DWIDTH 8 0
BBX 7 8 1 0
BITMAP
78
FC
CC
86
86
CC
FC
78
ENDCHAR
STARTCHAR P
ENCODING 80
SWIDTH 596 0
DWIDTH 7 0
BBX 6 8 1 0
BITMAP
F8
FC
CC
CC
F8
C0
C0
C0
ENDCHAR
STARTCHAR Q
ENCODING 81
SWIDTH 684 0
DWIDTH 8 0
BBX 7 11 1 -3
BITMAP
78
FC
CC
86
86
CC
FC
78
38
1E
0E
ENDCHAR
STARTCHAR R
ENCODING 82
SWIDTH 613 0
DWIDTH 7 0
BBX 6 8 1 0
BITMAP
F8
FC
CC
CC
F8
D8
D8
CC
ENDCHAR
STARTCHAR S
ENCODING 83
SWIDTH 556 0
DWIDTH 7 0
BBX 6 8 0 0
BITMAP
38
7C
68
78
1C
4C
FC
38
ENDCHAR
STARTCHAR T
ENCODING 84
SWIDTH 556 0
DWIDTH 7 0
BBX 6 8 0 0
BITMAP
FC
FC
30
30
30
30
30
30
ENDCHAR
STARTCHAR U
ENCODING 85
SWIDTH 665 0
DWIDTH 8 0
BBX 6 8 1 0
BITMAP
CC
CC
CC
CC
CC
CC
FC
78
ENDCHAR
STARTCHAR V
ENCODING 86
SWIDTH 556 0
DWIDTH 7 0
BBX 7 8 0 0
BITMAP
C6
C4
4C
6C
68
28
38
38
ENDCHAR
STARTCHAR W
ENCODING 87
SWIDTH 813 0
DWIDTH 10 0
BBX 10 8 0 0
BITMAP
CCC0
CC80
4C80
5D80
7F80
7780
7300
3300
ENDCHAR
STARTCHAR X
ENCODING 88
SWIDTH 567 0
DWIDTH 7 0
BBX 7 8 0 0
BITMAP
CE
6C
28
38
38
68
6C
CE
ENDCHAR
STARTCHAR Y
ENCODING 89
SWIDTH 525 0
DWIDTH 6 0
BBX 6 8 0 0
BITMAP
CC
4C
68
38
30
30
30
30
ENDCHAR
STARTCHAR Z
ENCODING 90
SWIDTH 541 0
DWIDTH 6 0
BBX 6 8 0 0
BITMAP
7C
7C
1C
18
30
60
FC
FC
ENDCHAR
STARTCHAR bracketleft
ENCODING 91
SWIDTH 344 0
DWIDTH 4 0
BBX 3 11 1 -2
BITMAP
E0
80
80
80
80
80
80
80
80
80
E0
ENDCHAR
STARTCHAR backslash
ENCODING 92
SWIDTH 339 0
DWIDTH 4 0
BBX 4 10 0 -1
BITMAP
C0
40
40
40
60
20
20
20
30
10
ENDCHAR
STARTCHAR bracketright
ENCODING 93
SWIDTH 344 0
DWIDTH 4 0
BBX 2 11 1 -2
BITMAP
C0
40
40
40
40
40
40
40
40
40
C0
ENDCHAR
STARTCHAR asciicircum
ENCODING 94
SWIDTH 528 0
DWIDTH 6 0
BBX 5 5 1 3
BITMAP
60
60
70
D0
98
ENDCHAR
STARTCHAR underscore
ENCODING 95
SWIDTH 500 0
DWIDTH 6 0
BBX 6 1 0 -2
BITMAP
FC
ENDCHAR
STARTCHAR grave
ENCODING 96
SWIDTH 555 0
DWIDTH 7 0
BBX 3 3 1 7
BITMAP
40
E0
20
ENDCHAR
STARTCHAR a
ENCODING 97
SWIDTH 527 0
DWIDTH 6 0
BBX 6 6 0 0
BITMAP
78
88
3C
6C
CC
7C
ENDCHAR
STARTCHAR b
ENCODING 98
SWIDTH 573 0
DWIDTH 7 0
BBX 5 9 1 0
BITMAP
C0
C0
C0
F0
D8
C8
C8
D8
B0
ENDCHAR
STARTCHAR c
ENCODING 99
SWIDTH 467 0
DWIDTH 6 0
BBX 5 6 0 0
BITMAP
38
60
C0
C0
60
38
ENDCHAR
STARTCHAR d
ENCODING 100
SWIDTH 573 0
DWIDTH 7 0
BBX 6 9 0 0
BITMAP
0C
0C
0C
3C
6C
CC
CC
6C
74
ENDCHAR
STARTCHAR e
ENCODING 101
SWIDTH 518 0
DWIDTH 6 0
BBX 6 6 0 0
BITMAP
38
4C
FC
C0
60
3C
ENDCHAR
STARTCHAR f
ENCODING 102
SWIDTH 341 0
DWIDTH 4 0
BBX 4 9 0 0
BITMAP
30
60
60
F0
60
60
60
60
60
ENDCHAR
STARTCHAR g
ENCODING 103
SWIDTH 534 0
DWIDTH 6 0
BBX 6 8 0 -2
BITMAP
7C
48
48
78
40
7C
C4
78
ENDCHAR
STARTCHAR h
ENCODING 104
SWIDTH 571 0
DWIDTH 7 0
BBX 5 9 1 0
BITMAP
C0
C0
C0
B8
D8
D8
D8
D8
D8
ENDCHAR
STARTCHAR i
ENCODING 105
SWIDTH 276 0
DWIDTH 3 0
BBX 2 9 1 0
BITMAP
80
C0
00
C0
C0
C0
C0
C0
C0
ENDCHAR
STARTCHAR j
ENCODING 106
SWIDTH 278 0
DWIDTH 3 0
BBX 4 11 -1 -2
BITMAP
30
30
00
30
30
30
30
30
30
20
E0
ENDCHAR
STARTCHAR k
ENCODING 107
SWIDTH 548 0
DWIDTH 7 0
BBX 6 9 1 0
BITMAP
C0
C0
C0
D8
F0
E0
F0
D8
DC
ENDCHAR
STARTCHAR l
ENCODING 108
SWIDTH 286 0
DWIDTH 3 0
BBX 2 9 1 0
BITMAP
C0
C0
C0
C0
C0
C0
C0
C0
C0
ENDCHAR
STARTCHAR m
ENCODING 109
SWIDTH 857 0
DWIDTH 10 0
BBX 9 6 1 0
BITMAP
BF00
D900
D980
D980
D980
D980
ENDCHAR
STARTCHAR n
ENCODING 110
SWIDTH 572 0
DWIDTH 7 0
BBX 5 6 1 0
BITMAP
B8
D8
D8
D8
D8
D8
ENDCHAR
STARTCHAR o
ENCODING 111
SWIDTH 555 0
DWIDTH 7 0
BBX 6 6 0 0
BITMAP
38
6C
CC
CC
6C
38
ENDCHAR
STARTCHAR p
ENCODING 112
SWIDTH 573 0
DWIDTH 7 0
BBX 5 8 1 -2
BITMAP
B0
D8
C8
C8
D8
B0
C0
C0
ENDCHAR
STARTCHAR q
ENCODING 113
SWIDTH 573 0
DWIDTH 7 0
BBX 6 8 0 -2
BITMAP
34
6C
CC
CC
6C
7C
0C
0C
ENDCHAR
STARTCHAR r
ENCODING 114
SWIDTH 398 0
DWIDTH 5 0
BBX 4 6 1 0
BITMAP
B0
F0
C0
C0
C0
C0
ENDCHAR
STARTCHAR s
ENCODING 115
SWIDTH 443 0
DWIDTH 5 0
BBX 5 6 0 0
BITMAP
78
50
70
38
98
F0
ENDCHAR
STARTCHAR t
ENCODING 116
SWIDTH 383 0
DWIDTH 5 0
BBX 4 8 0 0
BITMAP
60
60
F0
60
60
60
60
30
ENDCHAR
STARTCHAR u
ENCODING 117
SWIDTH 568 0
DWIDTH 7 0
BBX 5 6 1 0
BITMAP
98
98
98
98
D8
E8
ENDCHAR
STARTCHAR v
ENCODING 118
SWIDTH 523 0
DWIDTH 6 0
BBX 6 6 0 0
BITMAP
CC
4C
68
78
38
30
ENDCHAR
STARTCHAR w
ENCODING 119
SWIDTH 776 0
DWIDTH 9 0
BBX 9 6 0 0
BITMAP
CD80
4D80
7D00
7500
7500
3700
ENDCHAR
STARTCHAR x
ENCODING 120
SWIDTH 514 0
DWIDTH 6 0
BBX 6 6 0 0
BITMAP
CC
78
30
30
78
CC
ENDCHAR
STARTCHAR y
ENCODING 121
SWIDTH 521 0
DWIDTH 6 0
BBX 6 8 0 -2
BITMAP
CC
4C
68
38
38
30
30
60
ENDCHAR
STARTCHAR z
ENCODING 122
SWIDTH 460 0
DWIDTH 6 0
BBX 5 6 0 0
BITMAP
78
18
30
70
60
F8
ENDCHAR
STARTCHAR braceleft
ENCODING 123
SWIDTH 344 0
DWIDTH 4 0
BBX 4 11 0 -2
BITMAP
30
60
60
60
60
C0
60
60
60
60
30
ENDCHAR
STARTCHAR bar
ENCODING 124
SWIDTH 268 0
DWIDTH 3 0
BBX 1 12 1 -3
BITMAP
80
80
80
80
80
80
80
80
80
80
80
80
ENDCHAR
STARTCHAR braceright
ENCODING 125
SWIDTH 344 0
DWIDTH 4 0
BBX 3 11 1 -2
BITMAP
C0
C0
C0
C0
C0
60
C0
C0
C0
C0
C0
ENDCHAR
STARTCHAR asciitilde
ENCODING 126
SWIDTH 528 0
DWIDTH 6 0
BBX 6 2 0 3
BITMAP
64
D8
ENDCHAR
STARTCHAR uni00A0
ENCODING 160
SWIDTH 208 0
DWIDTH 3 0
BBX 1 1 0 0
BITMAP
00
ENDCHAR
STARTCHAR exclamdown
ENCODING 161
SWIDTH 340 0
DWIDTH 4 0
BBX 2 8 1 -2
BITMAP
C0
C0
00
C0
C0
C0
C0
C0
ENDCHAR
STARTCHAR cent
ENCODING 162
SWIDTH 528 0
DWIDTH 6 0
BBX 5 7 1 0
BITMAP
20
78
E0
A0
E0
78
20
ENDCHAR
STARTCHAR sterling
ENCODING 163
SWIDTH 528 0
DWIDTH 6 0
BBX 5 8 1 0
BITMAP
78
50
C0
C0
F0
40
F8
F8
ENDCHAR
STARTCHAR currency
ENCODING 164
SWIDTH 528 0
DWIDTH 6 0
BBX 6 6 0 1
BITMAP
88
FC
4C
4C
7C
88
ENDCHAR
STARTCHAR yen
ENCODING 165
SWIDTH 528 0
DWIDTH 6 0
BBX 6 8 0 0
BITMAP
CC
4C
68
38
FC
30
FC
30
ENDCHAR
STARTCHAR brokenbar
ENCODING 166
SWIDTH 268 0
DWIDTH 3 0
BBX 1 12 1 -3
BITMAP
80
80
80
80
80
00
00
80
80
80
80
80
ENDCHAR
STARTCHAR section
ENCODING 167
SWIDTH 528 0
DWIDTH 6 0
BBX 6 9 0 -1
BITMAP
38
68
70
5C
CC
7C
38
48
78
ENDCHAR
STARTCHAR dieresis
ENCODING 168
SWIDTH 555 0
DWIDTH 7 0
BBX 5 2 1 7
BITMAP
D0
D8
ENDCHAR
STARTCHAR copyright
ENCODING 169
SWIDTH 750 0
DWIDTH 9 0
BBX 7 8 1 0
BITMAP
7C
C6
BA
E2
E2
BA
C6
7C
ENDCHAR
STARTCHAR ordfeminine
ENCODING 170
SWIDTH 359 0
DWIDTH 4 0
BBX 4 5 0 4
BITMAP
60
90
70
D0
70
ENDCHAR
STARTCHAR guillemotleft
ENCODING 171
SWIDTH 480 0
DWIDTH 6 0
BBX 4 5 1 1
BITMAP
50
A0
A0
A0
50
ENDCHAR
STARTCHAR logicalnot
ENCODING 172
SWIDTH 528 0
DWIDTH 6 0
BBX 6 3 0 1
BITMAP
FC
04
04
ENDCHAR
STARTCHAR uni00AD
ENCODING 173
SWIDTH 332 0
DWIDTH 4 0
BBX 2 1 1 3
BITMAP
C0
ENDCHAR
STARTCHAR registered
ENCODING 174
SWIDTH 462 0
DWIDTH 6 0
BBX 5 6 0 3
BITMAP
70
48
B8
D8
48
70
ENDCHAR
STARTCHAR macron
ENCODING 175
SWIDTH 555 0
DWIDTH 7 0
BBX 3 1 2 7
BITMAP
E0
ENDCHAR
STARTCHAR degree
ENCODING 176
SWIDTH 365 0
DWIDTH 4 0
BBX 4 3 0 5
BITMAP
70
90
70
ENDCHAR
STARTCHAR plusminus
ENCODING 177
SWIDTH 528 0
DWIDTH 6 0
BBX 6 7 0 0
BITMAP
10
10
FC
10
10
00
FC
ENDCHAR
STARTCHAR two.sups
ENCODING 178
SWIDTH 376 0
DWIDTH 5 0
BBX 4 5 0 5
BITMAP
60
90
30
60
70
ENDCHAR
STARTCHAR three.sups
ENCODING 179
SWIDTH 376 0
DWIDTH 5 0
BBX 4 5 0 5
BITMAP
70
10
20
90
70
ENDCHAR
STARTCHAR acute
ENCODING 180
SWIDTH 555 0
DWIDTH 7 0
BBX 3 3 3 7
BITMAP
40
E0
80
ENDCHAR
STARTCHAR uni00B5
ENCODING 181
SWIDTH 594 0
DWIDTH 7 0
BBX 6 8 1 -2
BITMAP
D8
D8
D8
D8
D8
EC
80
C0
ENDCHAR
STARTCHAR paragraph
ENCODING 182
SWIDTH 636 0
DWIDTH 8 0
BBX 6 9 0 -1
BITMAP
74
74
F4
74
74
04
04
04
04
ENDCHAR
STARTCHAR periodcentered
ENCODING 183
SWIDTH 300 0
DWIDTH 4 0
BBX 2 2 1 3
BITMAP
C0
C0
ENDCHAR
STARTCHAR cedilla
ENCODING 184
SWIDTH 555 0
DWIDTH 7 0
BBX 2 4 2 -3
BITMAP
40
C0
40
C0
ENDCHAR
STARTCHAR one.sups
ENCODING 185
SWIDTH 376 0
DWIDTH 5 0
BBX 2 5 1 5
BITMAP
C0
40
40
40
40
ENDCHAR
STARTCHAR ordmasculine
ENCODING 186
SWIDTH 373 0
DWIDTH 4 0
BBX 4 5 0 4
BITMAP
60
D0
D0
D0
60
ENDCHAR
STARTCHAR guillemotright
ENCODING 187
SWIDTH 480 0
DWIDTH 6 0
BBX 4 5 1 1
BITMAP
A0
D0
50
D0
A0
ENDCHAR
STARTCHAR onequarter
ENCODING 188
SWIDTH 809 0
DWIDTH 10 0
BBX 9 8 1 0
BITMAP
C400
4400
4800
4B00
5700
1500
2780
4100
ENDCHAR
STARTCHAR onehalf
ENCODING 189
SWIDTH 846 0
DWIDTH 10 0
BBX 9 8 1 0
BITMAP
C400
4800
4800
5700
5500
2100
2300
4780
ENDCHAR
STARTCHAR threequarters
ENCODING 190
SWIDTH 818 0
DWIDTH 10 0
BBX 10 8 0 0
BITMAP
7300
9200
2400
9580
7980
0A80
13C0
3080
ENDCHAR
STARTCHAR questiondown
ENCODING 191
SWIDTH 463 0
DWIDTH 6 0
BBX 5 8 0 -2
BITMAP
30
30
00
30
60
60
D0
78
ENDCHAR
STARTCHAR Agrave
ENCODING 192
SWIDTH 573 0
DWIDTH 7 0
BBX 7 11 0 0
BITMAP
20
70
10
38
38
28
6C
6C
7C
C4
C6
ENDCHAR
STARTCHAR Aacute
ENCODING 193
SWIDTH 573 0
DWIDTH 7 0
BBX 7 11 0 0
BITMAP
08
18
30
38
38
28
6C
6C
7C
C4
C6
ENDCHAR
STARTCHAR Acircumflex
ENCODING 194
SWIDTH 573 0
DWIDTH 7 0
BBX 7 10 0 0
BITMAP
38
68
38
38
28
6C
6C
7C
C4
C6
ENDCHAR
STARTCHAR Atilde
ENCODING 195
SWIDTH 573 0
DWIDTH 7 0
BBX 7 11 0 0
BITMAP
08
7C
40
38
38
28
6C
6C
7C
C4
C6
ENDCHAR
STARTCHAR Adieresis
ENCODING 196
SWIDTH 573 0
DWIDTH 7 0
BBX 7 10 0 0
BITMAP
68
6C
38
38
28
6C
6C
7C
C4
C6
ENDCHAR
STARTCHAR Aring
ENCODING 197
SWIDTH 573 0
DWIDTH 7 0
BBX 7 11 0 0
BITMAP
30
28
30
38
38
28
6C
6C
7C
C4
C6
ENDCHAR
STARTCHAR AE
ENCODING 198
SWIDTH 845 0
DWIDTH 10 0
BBX 10 8 0 0
BITMAP
1F80
1F80
3400
3400
6780
7C00
47C0
C7C0
ENDCHAR
STARTCHAR Ccedilla
ENCODING 199
SWIDTH 582 0
DWIDTH 7 0
BBX 6 11 1 -3
BITMAP
78
FC
C8
80
80
C8
FC
78
30
10
30
ENDCHAR
STARTCHAR Egrave
ENCODING 200
SWIDTH 548 0
DWIDTH 7 0
BBX 5 11 1 0
BITMAP
40
E0
20
F8
F8
C0
C0
F0
C0
F8
F8
ENDCHAR
STARTCHAR Eacute
ENCODING 201
SWIDTH 548 0
DWIDTH 7 0
BBX 5 11 1 0
BITMAP
10
38
20
F8
F8
C0
C0
F0
C0
F8
F8
ENDCHAR
STARTCHAR Ecircumflex
ENCODING 202
SWIDTH 548 0
DWIDTH 7 0
BBX 5 10 1 0
BITMAP
70
D8
F8
F8
C0
C0
F0
C0
F8
F8
ENDCHAR
STARTCHAR Edieresis
ENCODING 203
SWIDTH 548 0
DWIDTH 7 0
BBX 5 10 1 0
BITMAP
D8
D8
F8
F8
C0
C0
F0
C0
F8
F8
ENDCHAR
STARTCHAR Igrave
ENCODING 204
SWIDTH 301 0
DWIDTH 4 0
BBX 3 11 0 0
BITMAP
80
C0
60
60
60
60
60
60
60
60
60
ENDCHAR
STARTCHAR Iacute
ENCODING 205
SWIDTH 301 0
DWIDTH 4 0
BBX 3 11 1 0
BITMAP
40
E0
80
C0
C0
C0
C0
C0
C0
C0
C0
ENDCHAR
STARTCHAR Icircumflex
ENCODING 206
SWIDTH 301 0
DWIDTH 4 0
BBX 4 10 0 0
BITMAP
E0
90
60
60
60
60
60
60
60
60
ENDCHAR
STARTCHAR Idieresis
ENCODING 207
SWIDTH 301 0
DWIDTH 4 0
BBX 4 10 0 0
BITMAP
B0
B0
60
60
60
60
60
60
60
60
ENDCHAR
STARTCHAR Eth
ENCODING 208
SWIDTH 660 0
DWIDTH 8 0
BBX 7 8 0 0
BITMAP
7C
7E
66
F2
62
66
7E
7C
ENDCHAR
STARTCHAR Ntilde
ENCODING 209
SWIDTH 665 0
DWIDTH 8 0
BBX 6 11 1 0
BITMAP
08
78
40
CC
EC
AC
FC
FC
D4
DC
CC
ENDCHAR
STARTCHAR Ograve
ENCODING 210
SWIDTH 684 0
DWIDTH 8 0
BBX 7 11 1 0
BITMAP
40
70
10
78
FC
CC
86
86
CC
FC
78
ENDCHAR
STARTCHAR Oacute
ENCODING 211
SWIDTH 684 0
DWIDTH 8 0
BBX 7 11 1 0
BITMAP
08
18
30
78
FC
CC
86
86
CC
FC
78
ENDCHAR
STARTCHAR Ocircumflex
ENCODING 212
SWIDTH 684 0
DWIDTH 8 0
BBX 7 10 1 0
BITMAP
30
48
78
FC
CC
86
86
CC
FC
78
ENDCHAR
STARTCHAR Otilde
ENCODING 213
SWIDTH 684 0
DWIDTH 8 0
BBX 7 11 1 0
BITMAP
08
78
40
78
FC
CC
86
86
CC
FC
78
ENDCHAR
STARTCHAR Odieresis
ENCODING 214
SWIDTH 684 0
DWIDTH 8 0
BBX 7 10 1 0
BITMAP
68
68
78
FC
CC
86
86
CC
FC
78
ENDCHAR
STARTCHAR multiply
ENCODING 215
SWIDTH 528 0
DWIDTH 6 0
BBX 5 5 1 1
BITMAP
90
F8
60
F0
98
ENDCHAR
STARTCHAR Oslash
ENCODING 216
SWIDTH 684 0
DWIDTH 8 0
BBX 8 8 0 0
BITMAP
3F
7E
6E
5F
7B
76
7E
FC
ENDCHAR
STARTCHAR Ugrave
ENCODING 217
SWIDTH 665 0
DWIDTH 8 0
BBX 6 11 1 0
BITMAP
40
60
30
CC
CC
CC
CC
CC
CC
FC
78
ENDCHAR
STARTCHAR Uacute
ENCODING 218
SWIDTH 665 0
DWIDTH 8 0
BBX 6 11 1 0
BITMAP
10
18
30
CC
CC
CC
CC
CC
CC
FC
78
ENDCHAR
STARTCHAR Ucircumflex
ENCODING 219
SWIDTH 665 0
DWIDTH 8 0
BBX 6 10 1 0
BITMAP
30
48
CC
CC
CC
CC
CC
CC
FC
78
ENDCHAR
STARTCHAR Udieresis
ENCODING 220
SWIDTH 665 0
DWIDTH 8 0
BBX 6 10 1 0
BITMAP
48
78
CC
CC
CC
CC
CC
CC
FC
78
ENDCHAR
STARTCHAR Yacute
ENCODING 221
SWIDTH 525 0
DWIDTH 6 0
BBX 6 11 0 0
BITMAP
08
18
30
CC
4C
68
38
30
30
30
30
ENDCHAR
STARTCHAR Thorn
ENCODING 222
SWIDTH 617 0
DWIDTH 7 0
BBX 6 8 1 0
BITMAP
C0
F8
FC
CC
CC
FC
F8
C0
ENDCHAR
STARTCHAR germandbls
ENCODING 223
SWIDTH 632 0
DWIDTH 8 0
BBX 6 9 1 0
BITMAP
70
D8
D8
D8
D0
DC
CC
C4
FC
ENDCHAR
STARTCHAR agrave
ENCODING 224
SWIDTH 527 0
DWIDTH 6 0
BBX 6 10 0 0
BITMAP
20
60
10
00
78
88
3C
6C
CC
7C
ENDCHAR
STARTCHAR aacute
ENCODING 225
SWIDTH 527 0
DWIDTH 6 0
BBX 6 10 0 0
BITMAP
08
1C
10
00
78
88
3C
6C
CC
7C
ENDCHAR
STARTCHAR acircumflex
ENCODING 226
SWIDTH 527 0
DWIDTH 6 0
BBX 6 9 0 0
BITMAP
38
6C
00
78
88
3C
6C
CC
7C
ENDCHAR
STARTCHAR atilde
ENCODING 227
SWIDTH 527 0
DWIDTH 6 0
BBX 6 9 0 0
BITMAP
7C
50
00
78
88
3C
6C
CC
7C
ENDCHAR
STARTCHAR adieresis
ENCODING 228
SWIDTH 527 0
DWIDTH 6 0
BBX 6 9 0 0
BITMAP
68
68
00
78
88
3C
6C
CC
7C
ENDCHAR
STARTCHAR aring
ENCODING 229
SWIDTH 527 0
DWIDTH 6 0
BBX 6 9 0 0
BITMAP
38
38
00
78
88
3C
6C
CC
7C
ENDCHAR
STARTCHAR ae
ENCODING 230
SWIDTH 786 0
DWIDTH 9 0
BBX 8 6 1 0
BITMAP
FE
9B
7F
D8
98
EF
ENDCHAR
STARTCHAR ccedilla
ENCODING 231
SWIDTH 467 0
DWIDTH 6 0
BBX 5 9 0 -3
BITMAP
38
60
C0
C0
60
38
10
38
30
ENDCHAR
STARTCHAR egrave
ENCODING 232
SWIDTH 518 0
DWIDTH 6 0
BBX 6 10 0 0
BITMAP
20
60
10
00
38
4C
FC
C0
60
3C
ENDCHAR
STARTCHAR eacute
ENCODING 233
SWIDTH 518 0
DWIDTH 6 0
BBX 6 10 0 0
BITMAP
08
1C
30
00
38
4C
FC
C0
60
3C
ENDCHAR
STARTCHAR ecircumflex
ENCODING 234
SWIDTH 518 0
DWIDTH 6 0
BBX 6 9 0 0
BITMAP
38
48
00
38
4C
FC
C0
60
3C
ENDCHAR
STARTCHAR edieresis
ENCODING 235
SWIDTH 518 0
DWIDTH 6 0
BBX 6 9 0 0
BITMAP
68
68
00
38
4C
FC
C0
60
3C
ENDCHAR
STARTCHAR igrave
ENCODING 236
SWIDTH 276 0
DWIDTH 3 0
BBX 4 10 -1 0
BITMAP
40
E0
20
00
30
30
30
30
30
30
ENDCHAR
STARTCHAR iacute
ENCODING 237
SWIDTH 276 0
DWIDTH 3 0
BBX 3 10 1 0
BITMAP
40
E0
80
00
C0
C0
C0
C0
C0
C0
ENDCHAR
STARTCHAR icircumflex
ENCODING 238
SWIDTH 276 0
DWIDTH 3 0
BBX 5 9 -1 0
BITMAP
70
D8
00
30
30
30
30
30
30
ENDCHAR
STARTCHAR idieresis
ENCODING 239
SWIDTH 276 0
DWIDTH 3 0
BBX 5 9 -1 0
BITMAP
58
D8
00
30
30
30
30
30
30
ENDCHAR
STARTCHAR eth
ENCODING 240
SWIDTH 560 0
DWIDTH 7 0
BBX 6 9 0 0
BITMAP
24
78
78
4C
7C
4C
CC
4C
38
ENDCHAR
STARTCHAR ntilde
ENCODING 241
SWIDTH 572 0
DWIDTH 7 0
BBX 5 9 1 0
BITMAP
68
D0
00
B8
D8
D8
D8
D8
D8
ENDCHAR
STARTCHAR ograve
ENCODING 242
SWIDTH 555 0
DWIDTH 7 0
BBX 6 10 0 0
BITMAP
20
70
10
00
38
6C
CC
CC
6C
38
ENDCHAR
STARTCHAR oacute
ENCODING 243
SWIDTH 555 0
DWIDTH 7 0
BBX 6 10 0 0
BITMAP
08
1C
10
00
38
6C
CC
CC
6C
38
ENDCHAR
STARTCHAR ocircumflex
ENCODING 244
SWIDTH 555 0
DWIDTH 7 0
BBX 6 9 0 0
BITMAP
38
6C
00
38
6C
CC
CC
6C
38
ENDCHAR
STARTCHAR otilde
ENCODING 245
SWIDTH 555 0
DWIDTH 7 0
BBX 6 9 0 0
BITMAP
7C
48
00
38
6C
CC
CC
6C
38
ENDCHAR
STARTCHAR odieresis
ENCODING 246
SWIDTH 555 0
DWIDTH 7 0
BBX 6 9 0 0
BITMAP
68
6C
00
38
6C
CC
CC
6C
38
ENDCHAR
STARTCHAR divide
ENCODING 247
SWIDTH 528 0
DWIDTH 6 0
BBX 6 6 0 1
BITMAP
30
30
FC
FC
10
30
ENDCHAR
STARTCHAR oslash
ENCODING 248
SWIDTH 555 0
DWIDTH 7 0
BBX 6 6 0 0
BITMAP
3C
4C
DC
E4
6C
78
ENDCHAR
STARTCHAR ugrave
ENCODING 249
SWIDTH 568 0
DWIDTH 7 0
BBX 5 10 1 0
BITMAP
40
E0
20
00
98
98
98
98
D8
E8
ENDCHAR
STARTCHAR uacute
ENCODING 250
SWIDTH 568 0
DWIDTH 7 0
BBX 5 10 1 0
BITMAP
10
38
20
00
98
98
98
98
D8
E8
ENDCHAR
STARTCHAR ucircumflex
ENCODING 251
SWIDTH 568 0
DWIDTH 7 0
BBX 5 9 1 0
BITMAP
70
D8
00
98
98
98
98
D8
E8
ENDCHAR
STARTCHAR udieresis
ENCODING 252
SWIDTH 568 0
DWIDTH 7 0
BBX 5 9 1 0
BITMAP
D0
D8
00
98
98
98
98
D8
E8
ENDCHAR
STARTCHAR yacute
ENCODING 253
SWIDTH 521 0
DWIDTH 6 0
BBX 6 12 0 -2
BITMAP
08
18
30
00
CC
4C
68
38
38
30
30
60
ENDCHAR
STARTCHAR thorn
ENCODING 254
SWIDTH 573 0
DWIDTH 7 0
BBX 5 11 1 -2
BITMAP
C0
C0
C0
F0
D8
C8
C8
D8
F0
C0
C0
ENDCHAR
STARTCHAR ydieresis
ENCODING 255
SWIDTH 521 0
DWIDTH 6 0
BBX 6 11 0 -2
BITMAP
68
68
00
CC
4C
68
38
38
30
30
60
ENDCHAR
STARTCHAR Amacron
ENCODING 256
SWIDTH 573 0
DWIDTH 7 0
BBX 7 10 0 0
BITMAP
38
00
38
38
28
6C
6C
7C
C4
C6
ENDCHAR
STARTCHAR amacron
ENCODING 257
SWIDTH 527 0
DWIDTH 6 0
BBX 6 8 0 0
BITMAP
38
00
78
88
3C
6C
CC
7C
ENDCHAR
STARTCHAR Abreve
ENCODING 258
SWIDTH 573 0
DWIDTH 7 0
BBX 7 10 0 0
BITMAP
68
38
38
38
28
6C
6C
7C
C4
C6
ENDCHAR
STARTCHAR abreve
ENCODING 259
SWIDTH 527 0
DWIDTH 6 0
BBX 6 9 0 0
BITMAP
48
38
00
78
88
3C
6C
CC
7C
ENDCHAR
STARTCHAR Aogonek
ENCODING 260
SWIDTH 573 0
DWIDTH 7 0
BBX 7 11 0 -3
BITMAP
38
38
28
6C
6C
7C
C4
C6
04
04
06
ENDCHAR
STARTCHAR aogonek
ENCODING 261
SWIDTH 527 0
DWIDTH 6 0
BBX 6 8 0 -2
BITMAP
78
88
3C
6C
CC
7C
08
1C
ENDCHAR
STARTCHAR Cacute
ENCODING 262
SWIDTH 582 0
DWIDTH 7 0
BBX 6 11 1 0
BITMAP
08
18
30
78
FC
C8
80
80
C8
FC
78
ENDCHAR
STARTCHAR cacute
ENCODING 263
SWIDTH 467 0
DWIDTH 6 0
BBX 6 10 0 0
BITMAP
08
1C
10
00
38
60
C0
C0
60
38
ENDCHAR
STARTCHAR Ccircumflex
ENCODING 264
SWIDTH 582 0
DWIDTH 7 0
BBX 6 10 1 0
BITMAP
30
48
78
FC
C8
80
80
C8
FC
78
ENDCHAR
STARTCHAR ccircumflex
ENCODING 265
SWIDTH 467 0
DWIDTH 6 0
BBX 6 9 0 0
BITMAP
38
6C
00
38
60
C0
C0
60
38
ENDCHAR
STARTCHAR Cdotaccent
ENCODING 266
SWIDTH 582 0
DWIDTH 7 0
BBX 6 10 1 0
BITMAP
30
30
78
FC
C8
80
80
C8
FC
78
ENDCHAR
STARTCHAR cdotaccent
ENCODING 267
SWIDTH 467 0
DWIDTH 6 0
BBX 5 9 0 0
BITMAP
10
10
00
38
60
C0
C0
60
38
ENDCHAR
STARTCHAR Ccaron
ENCODING 268
SWIDTH 582 0
DWIDTH 7 0
BBX 6 10 1 0
BITMAP
48
30
78
FC
C8
80
80
C8
FC
78
ENDCHAR
STARTCHAR ccaron
ENCODING 269
SWIDTH 467 0
DWIDTH 6 0
BBX 6 9 0 0
BITMAP
6C
38
00
38
60
C0
C0
60
38
ENDCHAR
STARTCHAR Dcaron
ENCODING 270
SWIDTH 635 0
DWIDTH 8 0
BBX 6 10 1 0
BITMAP
48
70
F0
F8
CC
CC
CC
CC
F8
F0
ENDCHAR
STARTCHAR dcaron
ENCODING 271
SWIDTH 614 0
DWIDTH 7 0
BBX 8 9 0 0
BITMAP
0D
0E
0C
3C
6C
CC
CC
6C
74
ENDCHAR
STARTCHAR Dcroat
ENCODING 272
SWIDTH 660 0
DWIDTH 8 0
BBX 7 8 0 0
BITMAP
7C
7E
66
F2
62
66
7E
7C
ENDCHAR
STARTCHAR dcroat
ENCODING 273
SWIDTH 573 0
DWIDTH 7 0
BBX 7 9 0 0
BITMAP
0C
1E
0C
3C
6C
CC
CC
6C
74
ENDCHAR
STARTCHAR Emacron
ENCODING 274
SWIDTH 548 0
DWIDTH 7 0
BBX 5 10 1 0
BITMAP
70
00
F8
F8
C0
C0
F0
C0
F8
F8
ENDCHAR
STARTCHAR emacron
ENCODING 275
SWIDTH 518 0
DWIDTH 6 0
BBX 6 8 0 0
BITMAP
78
00
38
4C
FC
C0
60
3C
ENDCHAR
STARTCHAR Ebreve
ENCODING 276
SWIDTH 548 0
DWIDTH 7 0
BBX 5 10 1 0
BITMAP
D0
70
F8
F8
C0
C0
F0
C0
F8
F8
ENDCHAR
STARTCHAR ebreve
ENCODING 277
SWIDTH 518 0
DWIDTH 6 0
BBX 6 9 0 0
BITMAP
48
38
00
38
4C
FC
C0
60
3C
ENDCHAR
STARTCHAR Edotaccent
ENCODING 278
SWIDTH 548 0
DWIDTH 7 0
BBX 5 10 1 0
BITMAP
20
60
F8
F8
C0
C0
F0
C0
F8
F8
ENDCHAR
STARTCHAR edotaccent
ENCODING 279
SWIDTH 518 0
DWIDTH 6 0
BBX 6 9 0 0
BITMAP
30
30
00
38
4C
FC
C0
60
3C
ENDCHAR
STARTCHAR Eogonek
ENCODING 280
SWIDTH 548 0
DWIDTH 7 0
BBX 5 11 1 -3
BITMAP
F8
F8
C0
C0
F0
C0
F8
F8
10
10
18
ENDCHAR
STARTCHAR eogonek
ENCODING 281
SWIDTH 518 0
DWIDTH 6 0
BBX 6 8 0 -2
BITMAP
38
4C
FC
C0
60
3C
10
1C
ENDCHAR
STARTCHAR Ecaron
ENCODING 282
SWIDTH 548 0
DWIDTH 7 0
BBX 5 10 1 0
BITMAP
D0
78
F8
F8
C0
C0
F0
C0
F8
F8
ENDCHAR
STARTCHAR ecaron
ENCODING 283
SWIDTH 518 0
DWIDTH 6 0
BBX 6 9 0 0
BITMAP
48
38
00
38
4C
FC
C0
60
3C
ENDCHAR
STARTCHAR Gcircumflex
ENCODING 284
SWIDTH 638 0
DWIDTH 8 0
BBX 6 10 1 0
BITMAP
38
68
78
FC
C8
80
9C
CC
FC
78
ENDCHAR
STARTCHAR gcircumflex
ENCODING 285
SWIDTH 534 0
DWIDTH 6 0
BBX 6 11 0 -2
BITMAP
38
6C
00
7C
48
48
78
40
7C
C4
78
ENDCHAR
STARTCHAR Gbreve
ENCODING 286
SWIDTH 638 0
DWIDTH 8 0
BBX 6 10 1 0
BITMAP
68
38
78
FC
C8
80
9C
CC
FC
78
ENDCHAR
STARTCHAR gbreve
ENCODING 287
SWIDTH 534 0
DWIDTH 6 0
BBX 6 11 0 -2
BITMAP
68
38
00
7C
48
48
78
40
7C
C4
78
ENDCHAR
STARTCHAR Gdotaccent
ENCODING 288
SWIDTH 638 0
DWIDTH 8 0
BBX 6 10 1 0
BITMAP
10
30
78
FC
C8
80
9C
CC
FC
78
ENDCHAR
STARTCHAR gdotaccent
ENCODING 289
SWIDTH 534 0
DWIDTH 6 0
BBX 6 11 0 -2
BITMAP
30
30
00
7C
48
48
78
40
7C
C4
78
ENDCHAR
STARTCHAR uni0122
ENCODING 290
SWIDTH 638 0
DWIDTH 8 0
BBX 6 11 1 -3
BITMAP
78
FC
C8
80
9C
CC
FC
78
10
38
30
ENDCHAR
STARTCHAR uni0123
ENCODING 291
SWIDTH 534 0
DWIDTH 6 0
BBX 6 12 0 -2
BITMAP
18
20
30
00
7C
48
48
78
40
7C
C4
78
ENDCHAR
STARTCHAR Hcircumflex
ENCODING 292
SWIDTH 674 0
DWIDTH 8 0
BBX 6 10 1 0
BITMAP
30
48
CC
CC
CC
FC
FC
CC
CC
CC
ENDCHAR
STARTCHAR hcircumflex
ENCODING 293
SWIDTH 571 0
DWIDTH 7 0
BBX 6 11 0 0
BITMAP
E0
B0
60
60
60
5C
6C
6C
6C
6C
6C
ENDCHAR
STARTCHAR Hbar
ENCODING 294
SWIDTH 712 0
DWIDTH 9 0
BBX 8 8 0 0
BITMAP
62
FF
62
7E
62
62
62
62
ENDCHAR
STARTCHAR hbar
ENCODING 295
SWIDTH 571 0
DWIDTH 7 0
BBX 6 9 0 0
BITMAP
60
F8
60
58
6C
6C
6C
6C
6C
ENDCHAR
STARTCHAR Itilde
ENCODING 296
SWIDTH 301 0
DWIDTH 4 0
BBX 5 11 -1 0
BITMAP
10
78
C0
30
30
30
30
30
30
30
30
ENDCHAR
STARTCHAR itilde
ENCODING 297
SWIDTH 276 0
DWIDTH 3 0
BBX 5 9 -1 0
BITMAP
68
D0
00
30
30
30
30
30
30
ENDCHAR
STARTCHAR Imacron
ENCODING 298
SWIDTH 301 0
DWIDTH 4 0
BBX 4 10 0 0
BITMAP
F0
00
60
60
60
60
60
60
60
60
ENDCHAR
STARTCHAR imacron
ENCODING 299
SWIDTH 276 0
DWIDTH 3 0
BBX 3 8 0 0
BITMAP
E0
00
60
60
60
60
60
60
ENDCHAR
STARTCHAR uni012C
ENCODING 300
SWIDTH 301 0
DWIDTH 4 0
BBX 4 10 0 0
BITMAP
90
E0
60
60
60
60
60
60
60
60
ENDCHAR
STARTCHAR uni012D
ENCODING 301
SWIDTH 276 0
DWIDTH 3 0
BBX 4 9 0 0
BITMAP
B0
E0
00
60
60
60
60
60
60
ENDCHAR
STARTCHAR Iogonek
ENCODING 302
SWIDTH 301 0
DWIDTH 4 0
BBX 3 11 0 -3
BITMAP
60
60
60
60
60
60
60
60
40
40
E0
ENDCHAR
STARTCHAR iogonek
ENCODING 303
SWIDTH 276 0
DWIDTH 3 0
BBX 3 11 0 -2
BITMAP
60
60
00
60
60
60
60
60
60
40
E0
ENDCHAR
STARTCHAR Idotaccent
ENCODING 304
SWIDTH 301 0
DWIDTH 4 0
BBX 2 10 1 0
BITMAP
C0
C0
C0
C0
C0
C0
C0
C0
C0
C0
ENDCHAR
STARTCHAR dotlessi
ENCODING 305
SWIDTH 276 0
DWIDTH 3 0
BBX 2 6 1 0
BITMAP
C0
C0
C0
C0
C0
C0
ENDCHAR
STARTCHAR uni0132
ENCODING 306
SWIDTH 602 0
DWIDTH 7 0
BBX 5 10 1 -2
BITMAP
C8
C8
C8
C8
C8
C8
C8
C8
38
38
ENDCHAR
STARTCHAR uni0133
ENCODING 307
SWIDTH 554 0
DWIDTH 7 0
BBX 5 11 1 -2
BITMAP
98
D8
00
D8
D8
D8
D8
D8
D8
18
30
ENDCHAR
STARTCHAR Jcircumflex
ENCODING 308
SWIDTH 509 0
DWIDTH 6 0
BBX 6 10 0 0
BITMAP
1C
34
18
18
18
18
18
58
F8
70
ENDCHAR
STARTCHAR jcircumflex
ENCODING 309
SWIDTH 278 0
DWIDTH 3 0
BBX 5 11 -1 -2
BITMAP
70
D8
00
30
30
30
30
30
30
20
E0
ENDCHAR
STARTCHAR uni0136
ENCODING 310
SWIDTH 614 0
DWIDTH 7 0
BBX 6 11 1 -3
BITMAP
CC
D8
F0
F0
F0
D8
CC
CC
30
10
30
ENDCHAR
STARTCHAR uni0137
ENCODING 311
SWIDTH 548 0
DWIDTH 7 0
BBX 6 12 1 -3
BITMAP
C0
C0
C0
D8
F0
E0
F0
D8
D8
24
30
60
ENDCHAR
STARTCHAR kgreenlandic
ENCODING 312
SWIDTH 548 0
DWIDTH 7 0
BBX 6 6 1 0
BITMAP
D8
F0
E0
F0
D8
DC
ENDCHAR
STARTCHAR Lacute
ENCODING 313
SWIDTH 518 0
DWIDTH 6 0
BBX 5 11 1 0
BITMAP
40
E0
80
C0
C0
C0
C0
C0
C0
F8
F8
ENDCHAR
STARTCHAR lacute
ENCODING 314
SWIDTH 286 0
DWIDTH 3 0
BBX 3 12 1 0
BITMAP
40
E0
80
C0
C0
C0
C0
C0
C0
C0
C0
C0
ENDCHAR
STARTCHAR uni013B
ENCODING 315
SWIDTH 518 0
DWIDTH 6 0
BBX 5 11 1 -3
BITMAP
C0
C0
C0
C0
C0
C0
F8
F8
20
30
60
ENDCHAR
STARTCHAR uni013C
ENCODING 316
SWIDTH 286 0
DWIDTH 3 0
BBX 2 12 1 -3
BITMAP
C0
C0
C0
C0
C0
C0
C0
C0
C0
40
C0
C0
ENDCHAR
STARTCHAR Lcaron
ENCODING 317
SWIDTH 518 0
DWIDTH 6 0
BBX 5 9 1 0
BITMAP
10
D0
C0
C0
C0
C0
C0
F8
F8
ENDCHAR
STARTCHAR lcaron
ENCODING 318
SWIDTH 319 0
DWIDTH 4 0
BBX 3 9 1 0
BITMAP
E0
E0
C0
C0
C0
C0
C0
C0
C0
ENDCHAR
STARTCHAR Ldot
ENCODING 319
SWIDTH 518 0
DWIDTH 6 0
BBX 5 8 1 0
BITMAP
C0
C0
C0
D8
D8
C0
F8
F8
ENDCHAR
STARTCHAR ldot
ENCODING 320
SWIDTH 453 0
DWIDTH 5 0
BBX 4 9 1 0
BITMAP
C0
C0
C0
C0
F0
F0
C0
C0
C0
ENDCHAR
STARTCHAR Lslash
ENCODING 321
SWIDTH 524 0
DWIDTH 6 0
BBX 6 8 0 0
BITMAP
60
60
68
78
E0
60
7C
7C
ENDCHAR
STARTCHAR lslash
ENCODING 322
SWIDTH 303 0
DWIDTH 4 0
BBX 4 9 0 0
BITMAP
60
60
60
70
E0
60
60
60
60
ENDCHAR
STARTCHAR Nacute
ENCODING 323
SWIDTH 665 0
DWIDTH 8 0
BBX 6 11 1 0
BITMAP
10
18
30
CC
EC
AC
FC
FC
D4
DC
CC
ENDCHAR
STARTCHAR nacute
ENCODING 324
SWIDTH 572 0
DWIDTH 7 0
BBX 5 10 1 0
BITMAP
10
18
20
00
B8
D8
D8
D8
D8
D8
ENDCHAR
STARTCHAR uni0145
ENCODING 325
SWIDTH 665 0
DWIDTH 8 0
BBX 6 11 1 -3
BITMAP
CC
EC
AC
FC
FC
D4
DC
CC
30
10
30
ENDCHAR
STARTCHAR uni0146
ENCODING 326
SWIDTH 572 0
DWIDTH 7 0
BBX 5 9 1 -3
BITMAP
B8
D8
D8
D8
D8
D8
20
30
60
ENDCHAR
STARTCHAR Ncaron
ENCODING 327
SWIDTH 665 0
DWIDTH 8 0
BBX 6 10 1 0
BITMAP
48
30
CC
EC
AC
FC
FC
D4
DC
CC
ENDCHAR
STARTCHAR ncaron
ENCODING 328
SWIDTH 572 0
DWIDTH 7 0
BBX 5 9 1 0
BITMAP
58
F0
00
B8
D8
D8
D8
D8
D8
ENDCHAR
STARTCHAR napostrophe
ENCODING 329
SWIDTH 852 0
DWIDTH 10 0
BBX 8 8 1 0
BITMAP
C0
C0
5F
99
19
19
19
19
ENDCHAR
STARTCHAR uni014A
ENCODING 330
SWIDTH 666 0
DWIDTH 8 0
BBX 6 8 1 0
BITMAP
F8
FC
CC
C4
C4
CC
DC
D8
ENDCHAR
STARTCHAR uni014B
ENCODING 331
SWIDTH 572 0
DWIDTH 7 0
BBX 5 8 1 -2
BITMAP
B8
D8
D8
D8
D8
D8
18
38
ENDCHAR
STARTCHAR Omacron
ENCODING 332
SWIDTH 684 0
DWIDTH 8 0
BBX 7 10 1 0
BITMAP
78
00
78
FC
CC
86
86
CC
FC
78
ENDCHAR
STARTCHAR omacron
ENCODING 333
SWIDTH 555 0
DWIDTH 7 0
BBX 6 8 0 0
BITMAP
38
00
38
6C
CC
CC
6C
38
ENDCHAR
STARTCHAR uni014E
ENCODING 334
SWIDTH 684 0
DWIDTH 8 0
BBX 7 10 1 0
BITMAP
48
38
78
FC
CC
86
86
CC
FC
78
ENDCHAR
STARTCHAR uni014F
ENCODING 335
SWIDTH 555 0
DWIDTH 7 0
BBX 6 9 0 0
BITMAP
68
38
00
38
6C
CC
CC
6C
38
ENDCHAR
STARTCHAR Ohungarumlaut
ENCODING 336
SWIDTH 684 0
DWIDTH 8 0
BBX 7 10 1 0
BITMAP
34
28
78
FC
CC
86
86
CC
FC
78
ENDCHAR
STARTCHAR ohungarumlaut
ENCODING 337
SWIDTH 555 0
DWIDTH 7 0
BBX 6 9 0 0
BITMAP
14
28
00
38
6C
CC
CC
6C
38
ENDCHAR
STARTCHAR OE
ENCODING 338
SWIDTH 871 0
DWIDTH 10 0
BBX 9 8 1 0
BITMAP
7F80
FF80
CC00
8C00
8F00
CC00
FF80
7F80
ENDCHAR
STARTCHAR oe
ENCODING 339
SWIDTH 822 0
DWIDTH 10 0
BBX 9 6 0 0
BITMAP
3B80
6C80
CF80
CC00
6C00
3B80
ENDCHAR
STARTCHAR Racute
ENCODING 340
SWIDTH 613 0
DWIDTH 7 0
BBX 6 11 1 0
BITMAP
10
38
20
F8
FC
CC
CC
F8
D8
D8
CC
ENDCHAR
STARTCHAR racute
ENCODING 341
SWIDTH 398 0
DWIDTH 5 0
BBX 4 10 1 0
BITMAP
10
30
60
00
B0
F0
C0
C0
C0
C0
ENDCHAR
STARTCHAR uni0156
ENCODING 342
SWIDTH 613 0
DWIDTH 7 0
BBX 6 11 1 -3
BITMAP
F8
FC
CC
CC
F8
D8
D8
CC
30
10
30
ENDCHAR
STARTCHAR uni0157
ENCODING 343
SWIDTH 398 0
DWIDTH 5 0
BBX 5 9 0 -3
BITMAP
58
78
60
60
60
60
60
20
C0
ENDCHAR
STARTCHAR Rcaron
ENCODING 344
SWIDTH 613 0
DWIDTH 7 0
BBX 6 10 1 0
BITMAP
58
70
F8
FC
CC
CC
F8
D8
D8
CC
ENDCHAR
STARTCHAR rcaron
ENCODING 345
SWIDTH 398 0
DWIDTH 5 0
BBX 4 9 1 0
BITMAP
90
60
00
B0
F0
C0
C0
C0
C0
ENDCHAR
STARTCHAR Sacute
ENCODING 346
SWIDTH 556 0
DWIDTH 7 0
BBX 6 11 0 0
BITMAP
08
1C
10
38
7C
68
78
1C
4C
FC
38
ENDCHAR
STARTCHAR sacute
ENCODING 347
SWIDTH 443 0
DWIDTH 5 0
BBX 5 10 0 0
BITMAP
10
18
30
00
78
50
70
38
98
F0
ENDCHAR
STARTCHAR Scircumflex
ENCODING 348
SWIDTH 556 0
DWIDTH 7 0
BBX 6 10 0 0
BITMAP
38
6C
38
7C
68
78
1C
4C
FC
38
ENDCHAR
STARTCHAR scircumflex
ENCODING 349
SWIDTH 443 0
DWIDTH 5 0
BBX 5 9 0 0
BITMAP
70
48
00
78
50
70
38
98
F0
ENDCHAR
STARTCHAR uni015E
ENCODING 350
SWIDTH 556 0
DWIDTH 7 0
BBX 6 11 0 -3
BITMAP
38
7C
68
78
1C
4C
FC
38
30
18
30
ENDCHAR
STARTCHAR uni015F
ENCODING 351
SWIDTH 443 0
DWIDTH 5 0
BBX 5 9 0 -3
BITMAP
78
50
70
38
98
F0
30
10
60
ENDCHAR
STARTCHAR Scaron
ENCODING 352
SWIDTH 556 0
DWIDTH 7 0
BBX 6 10 0 0
BITMAP
68
3C
38
7C
68
78
1C
4C
FC
38
ENDCHAR
STARTCHAR scaron
ENCODING 353
SWIDTH 443 0
DWIDTH 5 0
BBX 5 9 0 0
BITMAP
48
70
00
78
50
70
38
98
F0
ENDCHAR
STARTCHAR uni0162
ENCODING 354
SWIDTH 556 0
DWIDTH 7 0
BBX 6 11 0 -3
BITMAP
FC
FC
30
30
30
30
30
30
30
18
30
ENDCHAR
STARTCHAR uni0163
ENCODING 355
SWIDTH 383 0
DWIDTH 5 0
BBX 4 11 0 -3
BITMAP
60
60
F0
60
60
60
60
30
30
10
20
ENDCHAR
STARTCHAR Tcaron
ENCODING 356
SWIDTH 556 0
DWIDTH 7 0
BBX 6 10 0 0
BITMAP
68
38
FC
FC
30
30
30
30
30
30
ENDCHAR
STARTCHAR tcaron
ENCODING 357
SWIDTH 383 0
DWIDTH 5 0
BBX 4 9 0 0
BITMAP
10
70
60
F0
60
60
60
60
30
ENDCHAR
STARTCHAR uni0166
ENCODING 358
SWIDTH 556 0
DWIDTH 7 0
BBX 6 8 0 0
BITMAP
FC
FC
30
30
7C
30
30
30
ENDCHAR
STARTCHAR uni0167
ENCODING 359
SWIDTH 383 0
DWIDTH 5 0
BBX 4 8 0 0
BITMAP
60
60
F0
60
F0
60
60
30
ENDCHAR
STARTCHAR Utilde
ENCODING 360
SWIDTH 665 0
DWIDTH 8 0
BBX 6 11 1 0
BITMAP
08
78
40
CC
CC
CC
CC
CC
CC
FC
78
ENDCHAR
STARTCHAR utilde
ENCODING 361
SWIDTH 568 0
DWIDTH 7 0
BBX 5 9 1 0
BITMAP
78
90
00
98
98
98
98
D8
E8
ENDCHAR
STARTCHAR Umacron
ENCODING 362
SWIDTH 665 0
DWIDTH 8 0
BBX 6 10 1 0
BITMAP
78
00
CC
CC
CC
CC
CC
CC
FC
78
ENDCHAR
STARTCHAR umacron
ENCODING 363
SWIDTH 568 0
DWIDTH 7 0
BBX 5 8 1 0
BITMAP
70
00
98
98
98
98
D8
E8
ENDCHAR
STARTCHAR Ubreve
ENCODING 364
SWIDTH 665 0
DWIDTH 8 0
BBX 6 10 1 0
BITMAP
48
30
CC
CC
CC
CC
CC
CC
FC
78
ENDCHAR
STARTCHAR ubreve
ENCODING 365
SWIDTH 568 0
DWIDTH 7 0
BBX 5 9 1 0
BITMAP
D0
70
00
98
98
98
98
D8
E8
ENDCHAR
STARTCHAR Uring
ENCODING 366
SWIDTH 665 0
DWIDTH 8 0
BBX 6 11 1 0
BITMAP
30
50
30
CC
CC
CC
CC
CC
CC
FC
78
ENDCHAR
STARTCHAR uring
ENCODING 367
SWIDTH 568 0
DWIDTH 7 0
BBX 5 9 1 0
BITMAP
70
70
00
98
98
98
98
D8
E8
ENDCHAR
STARTCHAR Uhungarumlaut
ENCODING 368
SWIDTH 665 0
DWIDTH 8 0
BBX 6 10 1 0
BITMAP
3C
68
CC
CC
CC
CC
CC
CC
FC
78
ENDCHAR
STARTCHAR uhungarumlaut
ENCODING 369
SWIDTH 568 0
DWIDTH 7 0
BBX 5 9 1 0
BITMAP
28
50
00
98
98
98
98
D8
E8
ENDCHAR
STARTCHAR Uogonek
ENCODING 370
SWIDTH 665 0
DWIDTH 8 0
BBX 6 11 1 -3
BITMAP
CC
CC
CC
CC
CC
CC
FC
78
20
20
38
ENDCHAR
STARTCHAR uogonek
ENCODING 371
SWIDTH 568 0
DWIDTH 7 0
BBX 5 8 1 -2
BITMAP
98
98
98
98
D8
E8
10
18
ENDCHAR
STARTCHAR Wcircumflex
ENCODING 372
SWIDTH 813 0
DWIDTH 10 0
BBX 10 10 0 0
BITMAP
0C00
1200
CCC0
CC80
4C80
5D80
7F80
7780
7300
3300
ENDCHAR
STARTCHAR wcircumflex
ENCODING 373
SWIDTH 776 0
DWIDTH 9 0
BBX 9 9 0 0
BITMAP
1C00
3600
0000
CD80
4D80
7D00
7500
7500
3700
ENDCHAR
STARTCHAR Ycircumflex
ENCODING 374
SWIDTH 525 0
DWIDTH 6 0
BBX 6 10 0 0
BITMAP
30
48
CC
4C
68
38
30
30
30
30
ENDCHAR
STARTCHAR ycircumflex
ENCODING 375
SWIDTH 521 0
DWIDTH 6 0
BBX 6 11 0 -2
BITMAP
38
48
00
CC
4C
68
38
38
30
30
60
ENDCHAR
STARTCHAR Ydieresis
ENCODING 376
SWIDTH 525 0
DWIDTH 6 0
BBX 6 10 0 0
BITMAP
68
68
CC
4C
68
38
30
30
30
30
ENDCHAR
STARTCHAR Zacute
ENCODING 377
SWIDTH 541 0
DWIDTH 6 0
BBX 6 11 0 0
BITMAP
08
18
30
7C
7C
1C
18
30
60
FC
FC
ENDCHAR
STARTCHAR zacute
ENCODING 378
SWIDTH 460 0
DWIDTH 6 0
BBX 5 10 0 0
BITMAP
08
18
30
00
78
18
30
70
60
F8
ENDCHAR
STARTCHAR Zdotaccent
ENCODING 379
SWIDTH 541 0
DWIDTH 6 0
BBX 6 10 0 0
BITMAP
30
30
7C
7C
1C
18
30
60
FC
FC
ENDCHAR
STARTCHAR zdotaccent
ENCODING 380
SWIDTH 460 0
DWIDTH 6 0
BBX 5 9 0 0
BITMAP
30
30
00
78
18
30
70
60
F8
ENDCHAR
STARTCHAR Zcaron
ENCODING 381
SWIDTH 541 0
DWIDTH 6 0
BBX 6 10 0 0
BITMAP
68
38
7C
7C
1C
18
30
60
FC
FC
ENDCHAR
STARTCHAR zcaron
ENCODING 382
SWIDTH 460 0
DWIDTH 6 0
BBX 5 9 0 0
BITMAP
48
30
00
78
18
30
70
60
F8
ENDCHAR
STARTCHAR uni0180
ENCODING 384
SWIDTH 571 0
DWIDTH 7 0
BBX 6 9 0 0
BITMAP
60
F8
60
78
6C
64
64
6C
58
ENDCHAR
STARTCHAR uni018F
ENCODING 399
SWIDTH 675 0
DWIDTH 8 0
BBX 7 8 1 0
BITMAP
78
FC
8C
06
FE
CC
FC
78
ENDCHAR
STARTCHAR uni0192
ENCODING 402
SWIDTH 528 0
DWIDTH 6 0
BBX 6 9 0 -1
BITMAP
1C
10
30
78
30
30
30
20
E0
ENDCHAR
STARTCHAR uni0193
ENCODING 403
SWIDTH 638 0
DWIDTH 8 0
BBX 7 10 1 0
BITMAP
0E
0C
7C
FC
C0
80
9C
CC
FC
78
ENDCHAR
STARTCHAR Ohorn
ENCODING 416
SWIDTH 684 0
DWIDTH 8 0
BBX 7 10 1 0
BITMAP
02
06
7E
FC
CC
86
86
CC
FC
78
ENDCHAR
STARTCHAR ohorn
ENCODING 417
SWIDTH 555 0
DWIDTH 7 0
BBX 7 8 0 0
BITMAP
06
06
3C
6C
CC
CC
6C
38
ENDCHAR
STARTCHAR Uhorn
ENCODING 431
SWIDTH 683 0
DWIDTH 8 0
BBX 8 10 1 0
BITMAP
03
03
CE
CC
CC
CC
CC
CC
FC
78
ENDCHAR
STARTCHAR uhorn
ENCODING 432
SWIDTH 568 0
DWIDTH 7 0
BBX 6 8 1 0
BITMAP
04
04
9C
98
98
98
D8
E8
ENDCHAR
STARTCHAR uni01C2
ENCODING 450
SWIDTH 330 0
DWIDTH 4 0
BBX 4 12 0 -3
BITMAP
60
60
60
60
F0
60
F0
60
60
60
60
60
ENDCHAR
STARTCHAR uni01CD
ENCODING 461
SWIDTH 573 0
DWIDTH 7 0
BBX 7 10 0 0
BITMAP
68
38
38
38
28
6C
6C
7C
C4
C6
ENDCHAR
STARTCHAR uni01CE
ENCODING 462
SWIDTH 527 0
DWIDTH 6 0
BBX 6 9 0 0
BITMAP
68
3C
00
78
88
3C
6C
CC
7C
ENDCHAR
STARTCHAR uni01CF
ENCODING 463
SWIDTH 301 0
DWIDTH 4 0
BBX 4 10 0 0
BITMAP
90
E0
60
60
60
60
60
60
60
60
ENDCHAR
STARTCHAR uni01D0
ENCODING 464
SWIDTH 276 0
DWIDTH 3 0
BBX 5 9 -1 0
BITMAP
58
F0
00
30
30
30
30
30
30
ENDCHAR
STARTCHAR uni01D1
ENCODING 465
SWIDTH 684 0
DWIDTH 8 0
BBX 7 10 1 0
BITMAP
48
30
78
FC
CC
86
86
CC
FC
78
ENDCHAR
STARTCHAR uni01D2
ENCODING 466
SWIDTH 555 0
DWIDTH 7 0
BBX 6 9 0 0
BITMAP
68
3C
00
38
6C
CC
CC
6C
38
ENDCHAR
STARTCHAR uni01D3
ENCODING 467
SWIDTH 665 0
DWIDTH 8 0
BBX 6 10 1 0
BITMAP
48
30
CC
CC
CC
CC
CC
CC
FC
78
ENDCHAR
STARTCHAR uni01D4
ENCODING 468
SWIDTH 568 0
DWIDTH 7 0
BBX 5 9 1 0
BITMAP
D8
70
00
98
98
98
98
D8
E8
ENDCHAR
STARTCHAR uni01D5
ENCODING 469
SWIDTH 665 0
DWIDTH 8 0
BBX 6 12 1 0
BITMAP
78
00
48
00
CC
CC
CC
CC
CC
CC
FC
78
ENDCHAR
STARTCHAR uni01D6
ENCODING 470
SWIDTH 568 0
DWIDTH 7 0
BBX 5 10 1 0
BITMAP
70
00
D0
00
98
98
98
98
D8
E8
ENDCHAR
STARTCHAR uni01D7
ENCODING 471
SWIDTH 665 0
DWIDTH 8 0
BBX 6 12 1 0
BITMAP
10
38
48
00
CC
CC
CC
CC
CC
CC
FC
78
ENDCHAR
STARTCHAR uni01D8
ENCODING 472
SWIDTH 568 0
DWIDTH 7 0
BBX 5 11 1 0
BITMAP
20
30
00
D0
00
98
98
98
98
D8
E8
ENDCHAR
STARTCHAR uni01D9
ENCODING 473
SWIDTH 665 0
DWIDTH 8 0
BBX 6 13 1 0
BITMAP
78
30
00
48
00
CC
CC
CC
CC
CC
CC
FC
78
ENDCHAR
STARTCHAR uni01DA
ENCODING 474
SWIDTH 568 0
DWIDTH 7 0
BBX 5 12 1 0
BITMAP
90
50
60
00
D0
00
98
98
98
98
D8
E8
ENDCHAR
STARTCHAR uni01DB
ENCODING 475
SWIDTH 665 0
DWIDTH 8 0
BBX 6 12 1 0
BITMAP
20
70
48
00
CC
CC
CC
CC
CC
CC
FC
78
ENDCHAR
STARTCHAR uni01DC
ENCODING 476
SWIDTH 568 0
DWIDTH 7 0
BBX 5 11 1 0
BITMAP
40
20
00
D0
00
98
98
98
98
D8
E8
ENDCHAR
STARTCHAR uni01E2
ENCODING 482
SWIDTH 845 0
DWIDTH 10 0
BBX 10 10 0 0
BITMAP
0700
0000
1F80
1F80
3400
3400
6780
7C00
47C0
C7C0
ENDCHAR
STARTCHAR uni01E3
ENCODING 483
SWIDTH 786 0
DWIDTH 9 0
BBX 8 8 1 0
BITMAP
3C
00
FE
9B
7F
D8
98
EF
ENDCHAR
STARTCHAR Gcaron
ENCODING 486
SWIDTH 638 0
DWIDTH 8 0
BBX 6 10 1 0
BITMAP
68
38
78
FC
C8
80
9C
CC
FC
78
ENDCHAR
STARTCHAR gcaron
ENCODING 487
SWIDTH 534 0
DWIDTH 6 0
BBX 6 11 0 -2
BITMAP
68
3C
00
7C
48
48
78
40
7C
C4
78
ENDCHAR
STARTCHAR uni01EA
ENCODING 490
SWIDTH 684 0
DWIDTH 8 0
BBX 7 11 1 -3
BITMAP
78
FC
CC
86
86
CC
FC
78
30
20
38
ENDCHAR
STARTCHAR uni01EB
ENCODING 491
SWIDTH 555 0
DWIDTH 7 0
BBX 6 8 0 -2
BITMAP
38
6C
CC
CC
6C
38
30
38
ENDCHAR
STARTCHAR uni01F4
ENCODING 500
SWIDTH 638 0
DWIDTH 8 0
BBX 6 11 1 0
BITMAP
08
18
30
78
FC
C8
80
9C
CC
FC
78
ENDCHAR
STARTCHAR uni01F5
ENCODING 501
SWIDTH 534 0
DWIDTH 6 0
BBX 6 12 0 -2
BITMAP
08
1C
10
00
7C
48
48
78
40
7C
C4
78
ENDCHAR
STARTCHAR uni01F8
ENCODING 504
SWIDTH 665 0
DWIDTH 8 0
BBX 6 11 1 0
BITMAP
40
60
30
CC
EC
AC
FC
FC
D4
DC
CC
ENDCHAR
STARTCHAR uni01F9
ENCODING 505
SWIDTH 572 0
DWIDTH 7 0
BBX 5 10 1 0
BITMAP
40
E0
20
00
B8
D8
D8
D8
D8
D8
ENDCHAR
STARTCHAR uni01FC
ENCODING 508
SWIDTH 845 0
DWIDTH 10 0
BBX 10 11 0 0
BITMAP
0100
0380
0200
1F80
1F80
3400
3400
6780
7C00
47C0
C7C0
ENDCHAR
STARTCHAR uni01FD
ENCODING 509
SWIDTH 786 0
DWIDTH 9 0
BBX 8 10 1 0
BITMAP
04
0C
18
00
FE
9B
7F
D8
98
EF
ENDCHAR
STARTCHAR uni0218
ENCODING 536
SWIDTH 556 0
DWIDTH 7 0
BBX 6 11 0 -3
BITMAP
38
7C
68
78
1C
4C
FC
38
10
38
30
ENDCHAR
STARTCHAR uni0219
ENCODING 537
SWIDTH 443 0
DWIDTH 5 0
BBX 5 9 0 -3
BITMAP
78
50
70
38
98
F0
30
10
60
ENDCHAR
STARTCHAR uni021A
ENCODING 538
SWIDTH 556 0
DWIDTH 7 0
BBX 6 11 0 -3
BITMAP
FC
FC
30
30
30
30
30
30
10
30
30
ENDCHAR
STARTCHAR uni021B
ENCODING 539
SWIDTH 383 0
DWIDTH 5 0
BBX 4 11 0 -3
BITMAP
60
60
F0
60
60
60
60
30
30
10
60
ENDCHAR
STARTCHAR uni0237
ENCODING 567
SWIDTH 278 0
DWIDTH 3 0
BBX 4 8 -1 -2
BITMAP
30
30
30
30
30
30
20
E0
ENDCHAR
STARTCHAR uni0243
ENCODING 579
SWIDTH 628 0
DWIDTH 8 0
BBX 7 8 0 0
BITMAP
7C
66
66
7C
7E
F6
66
7C
ENDCHAR
STARTCHAR uni0250
ENCODING 592
SWIDTH 534 0
DWIDTH 6 0
BBX 5 6 1 0
BITMAP
B0
D8
98
F0
D0
78
ENDCHAR
STARTCHAR uni0251
ENCODING 593
SWIDTH 573 0
DWIDTH 7 0
BBX 6 6 0 0
BITMAP
34
6C
CC
CC
6C
74
ENDCHAR
STARTCHAR uni0252
ENCODING 594
SWIDTH 573 0
DWIDTH 7 0
BBX 5 6 1 0
BITMAP
B0
D8
C8
C8
D8
B0
ENDCHAR
STARTCHAR uni0253
ENCODING 595
SWIDTH 573 0
DWIDTH 7 0
BBX 5 9 1 0
BITMAP
60
C0
C0
F0
D8
C8
C8
D8
B0
ENDCHAR
STARTCHAR uni0254
ENCODING 596
SWIDTH 467 0
DWIDTH 6 0
BBX 5 6 0 0
BITMAP
F0
18
18
18
18
F0
ENDCHAR
STARTCHAR uni0255
ENCODING 597
SWIDTH 467 0
DWIDTH 6 0
BBX 6 7 0 -1
BITMAP
38
60
C0
F8
6C
78
C0
ENDCHAR
STARTCHAR uni0256
ENCODING 598
SWIDTH 573 0
DWIDTH 7 0
BBX 7 11 0 -2
BITMAP
0C
0C
0C
3C
6C
CC
CC
6C
7C
0C
06
ENDCHAR
STARTCHAR uni0257
ENCODING 599
SWIDTH 573 0
DWIDTH 7 0
BBX 7 9 0 0
BITMAP
06
0C
0C
3C
6C
CC
CC
6C
74
ENDCHAR
STARTCHAR uni0258
ENCODING 600
SWIDTH 518 0
DWIDTH 6 0
BBX 6 6 0 0
BITMAP
78
48
FC
0C
08
78
ENDCHAR
STARTCHAR uni0259
ENCODING 601
SWIDTH 518 0
DWIDTH 6 0
BBX 6 6 0 0
BITMAP
78
08
FC
CC
48
78
ENDCHAR
STARTCHAR uni025A
ENCODING 602
SWIDTH 707 0
DWIDTH 8 0
BBX 9 6 0 0
BITMAP
7800
0E00
1D80
EC00
4800
7800
ENDCHAR
STARTCHAR uni025B
ENCODING 603
SWIDTH 462 0
DWIDTH 6 0
BBX 4 6 1 0
BITMAP
F0
C0
60
80
80
F0
ENDCHAR
STARTCHAR uni025C
ENCODING 604
SWIDTH 476 0
DWIDTH 6 0
BBX 5 6 0 0
BITMAP
70
18
30
18
18
F0
ENDCHAR
STARTCHAR uni025E
ENCODING 606
SWIDTH 566 0
DWIDTH 7 0
BBX 5 6 1 0
BITMAP
F0
D8
68
88
98
F0
ENDCHAR
STARTCHAR uni025F
ENCODING 607
SWIDTH 321 0
DWIDTH 4 0
BBX 4 8 0 -2
BITMAP
60
60
F0
60
60
60
60
C0
ENDCHAR
STARTCHAR uni0260
ENCODING 608
SWIDTH 583 0
DWIDTH 7 0
BBX 6 10 1 -2
BITMAP
0C
08
78
D8
98
98
D8
78
18
F0
ENDCHAR
STARTCHAR uni0261
ENCODING 609
SWIDTH 583 0
DWIDTH 7 0
BBX 5 8 1 -2
BITMAP
68
D8
98
98
D8
78
18
F0
ENDCHAR
STARTCHAR uni0262
ENCODING 610
SWIDTH 517 0
DWIDTH 6 0
BBX 6 6 0 0
BITMAP
3C
60
C0
DC
6C
3C
ENDCHAR
STARTCHAR uni0263
ENCODING 611
SWIDTH 523 0
DWIDTH 6 0
BBX 6 8 0 -2
BITMAP
CC
4C
68
38
30
38
68
38
ENDCHAR
STARTCHAR uni0264
ENCODING 612
SWIDTH 569 0
DWIDTH 7 0
BBX 7 6 0 0
BITMAP
EE
38
38
6C
6C
38
ENDCHAR
STARTCHAR uni0265
ENCODING 613
SWIDTH 572 0
DWIDTH 7 0
BBX 5 8 1 -2
BITMAP
98
98
98
98
D8
F8
18
18
ENDCHAR
STARTCHAR uni0266
ENCODING 614
SWIDTH 571 0
DWIDTH 7 0
BBX 5 9 1 0
BITMAP
60
C0
C0
B8
D8
D8
D8
D8
D8
ENDCHAR
STARTCHAR uni0267
ENCODING 615
SWIDTH 571 0
DWIDTH 7 0
BBX 5 11 1 -2
BITMAP
60
C0
C0
B8
D8
D8
D8
D8
D8
18
38
ENDCHAR
STARTCHAR uni0268
ENCODING 616
SWIDTH 321 0
DWIDTH 4 0
BBX 4 9 0 0
BITMAP
60
60
00
60
60
F0
60
60
60
ENDCHAR
STARTCHAR uni026A
ENCODING 618
SWIDTH 395 0
DWIDTH 5 0
BBX 3 6 1 0
BITMAP
E0
C0
C0
C0
C0
E0
ENDCHAR
STARTCHAR uni026C
ENCODING 620
SWIDTH 377 0
DWIDTH 5 0
BBX 4 9 0 0
BITMAP
30
30
30
F0
B0
F0
30
30
30
ENDCHAR
STARTCHAR uni026D
ENCODING 621
SWIDTH 286 0
DWIDTH 3 0
BBX 3 11 1 -2
BITMAP
C0
C0
C0
C0
C0
C0
C0
C0
C0
C0
E0
ENDCHAR
STARTCHAR uni026E
ENCODING 622
SWIDTH 640 0
DWIDTH 8 0
BBX 6 11 1 -2
BITMAP
C0
C0
C0
FC
CC
D8
F8
CC
C4
4C
38
ENDCHAR
STARTCHAR uni026F
ENCODING 623
SWIDTH 857 0
DWIDTH 10 0
BBX 9 6 1 0
BITMAP
D980
D980
D980
D980
D980
EF80
ENDCHAR
STARTCHAR uni0270
ENCODING 624
SWIDTH 857 0
DWIDTH 10 0
BBX 9 8 1 -2
BITMAP
D980
D980
D980
D980
D980
EF80
0180
0180
ENDCHAR
STARTCHAR uni0271
ENCODING 625
SWIDTH 857 0
DWIDTH 10 0
BBX 9 8 1 -2
BITMAP
BF00
D900
D980
D980
D980
D980
0100
0300
ENDCHAR
STARTCHAR uni0272
ENCODING 626
SWIDTH 572 0
DWIDTH 7 0
BBX 6 8 0 -2
BITMAP
5C
6C
6C
6C
6C
6C
40
C0
ENDCHAR
STARTCHAR uni0273
ENCODING 627
SWIDTH 572 0
DWIDTH 7 0
BBX 6 8 1 -2
BITMAP
B8
D8
D8
D8
D8
D8
18
0C
ENDCHAR
STARTCHAR uni0274
ENCODING 628
SWIDTH 561 0
DWIDTH 7 0
BBX 5 6 1 0
BITMAP
D8
D8
F8
B8
B8
98
ENDCHAR
STARTCHAR uni0275
ENCODING 629
SWIDTH 555 0
DWIDTH 7 0
BBX 6 6 0 0
BITMAP
38
4C
FC
CC
6C
38
ENDCHAR
STARTCHAR uni0276
ENCODING 630
SWIDTH 726 0
DWIDTH 9 0
BBX 8 6 0 0
BITMAP
3F
6C
CF
CC
6C
3F
ENDCHAR
STARTCHAR uni0278
ENCODING 632
SWIDTH 738 0
DWIDTH 9 0
BBX 8 11 0 -2
BITMAP
08
08
08
3E
6B
C9
C9
6B
3E
08
08
ENDCHAR
STARTCHAR uni0279
ENCODING 633
SWIDTH 398 0
DWIDTH 5 0
BBX 4 6 0 0
BITMAP
30
30
30
30
F0
D0
ENDCHAR
STARTCHAR uni027A
ENCODING 634
SWIDTH 398 0
DWIDTH 5 0
BBX 4 9 0 0
BITMAP
30
30
30
30
30
30
30
F0
D0
ENDCHAR
STARTCHAR uni027B
ENCODING 635
SWIDTH 398 0
DWIDTH 5 0
BBX 5 8 0 -2
BITMAP
30
30
30
30
F0
F0
30
18
ENDCHAR
STARTCHAR uni027D
ENCODING 637
SWIDTH 398 0
DWIDTH 5 0
BBX 4 8 1 -2
BITMAP
B0
F0
C0
C0
C0
C0
C0
E0
ENDCHAR
STARTCHAR uni027E
ENCODING 638
SWIDTH 380 0
DWIDTH 5 0
BBX 4 6 1 0
BITMAP
70
C0
C0
C0
C0
C0
ENDCHAR
STARTCHAR uni0280
ENCODING 640
SWIDTH 532 0
DWIDTH 6 0
BBX 5 6 1 0
BITMAP
F0
D8
D8
F0
F0
D8
ENDCHAR
STARTCHAR uni0281
ENCODING 641
SWIDTH 532 0
DWIDTH 6 0
BBX 6 6 0 0
BITMAP
CC
6C
7C
6C
6C
7C
ENDCHAR
STARTCHAR uni0282
ENCODING 642
SWIDTH 443 0
DWIDTH 5 0
BBX 5 8 0 -2
BITMAP
78
50
70
38
98
F0
C0
60
ENDCHAR
STARTCHAR uni0283
ENCODING 643
SWIDTH 278 0
DWIDTH 3 0
BBX 5 11 -1 -2
BITMAP
18
30
30
30
30
30
30
30
30
20
E0
ENDCHAR
STARTCHAR uni0284
ENCODING 644
SWIDTH 321 0
DWIDTH 4 0
BBX 4 11 0 -2
BITMAP
30
60
60
60
60
F0
60
60
60
60
C0
ENDCHAR
STARTCHAR uni0288
ENCODING 648
SWIDTH 383 0
DWIDTH 5 0
BBX 4 10 0 -2
BITMAP
60
60
F0
60
60
60
60
60
60
30
ENDCHAR
STARTCHAR uni0289
ENCODING 649
SWIDTH 617 0
DWIDTH 7 0
BBX 7 6 0 0
BITMAP
64
64
FE
64
6C
34
ENDCHAR
STARTCHAR uni028A
ENCODING 650
SWIDTH 558 0
DWIDTH 7 0
BBX 6 6 0 0
BITMAP
EC
6C
4C
CC
6C
38
ENDCHAR
STARTCHAR uni028B
ENCODING 651
SWIDTH 552 0
DWIDTH 7 0
BBX 5 6 1 0
BITMAP
B8
98
98
98
D8
70
ENDCHAR
STARTCHAR uni028C
ENCODING 652
SWIDTH 523 0
DWIDTH 6 0
BBX 6 6 0 0
BITMAP
30
38
78
68
4C
CC
ENDCHAR
STARTCHAR uni028D
ENCODING 653
SWIDTH 776 0
DWIDTH 9 0
BBX 9 6 0 0
BITMAP
3700
7700
7500
5D00
5D80
C980
ENDCHAR
STARTCHAR uni028E
ENCODING 654
SWIDTH 521 0
DWIDTH 6 0
BBX 6 9 0 0
BITMAP
1C
10
30
30
30
78
68
4C
CC
ENDCHAR
STARTCHAR uni028F
ENCODING 655
SWIDTH 466 0
DWIDTH 6 0
BBX 6 6 0 0
BITMAP
CC
58
70
30
30
30
ENDCHAR
STARTCHAR uni0290
ENCODING 656
SWIDTH 460 0
DWIDTH 6 0
BBX 6 8 0 -2
BITMAP
78
18
30
20
60
F8
18
0C
ENDCHAR
STARTCHAR uni0291
ENCODING 657
SWIDTH 503 0
DWIDTH 6 0
BBX 6 7 0 -1
BITMAP
78
18
30
6C
74
FC
10
ENDCHAR
STARTCHAR uni0292
ENCODING 658
SWIDTH 460 0
DWIDTH 6 0
BBX 5 8 0 -2
BITMAP
F8
18
30
70
18
18
98
F0
ENDCHAR
STARTCHAR uni0294
ENCODING 660
SWIDTH 448 0
DWIDTH 5 0
BBX 5 9 0 0
BITMAP
F0
98
18
18
38
30
20
20
20
ENDCHAR
STARTCHAR uni0295
ENCODING 661
SWIDTH 506 0
DWIDTH 6 0
BBX 6 9 0 0
BITMAP
38
4C
40
E0
70
30
30
30
30
ENDCHAR
STARTCHAR uni0298
ENCODING 664
SWIDTH 556 0
DWIDTH 7 0
BBX 5 9 1 0
BITMAP
70
D8
98
98
B8
B8
98
D8
70
ENDCHAR
STARTCHAR uni0299
ENCODING 665
SWIDTH 528 0
DWIDTH 6 0
BBX 5 6 1 0
BITMAP
F0
D8
F0
D8
D8
F0
ENDCHAR
STARTCHAR uni029C
ENCODING 668
SWIDTH 582 0
DWIDTH 7 0
BBX 5 6 1 0
BITMAP
D8
D8
F8
F8
D8
D8
ENDCHAR
STARTCHAR uni029D
ENCODING 669
SWIDTH 360 0
DWIDTH 4 0
BBX 6 12 -1 -3
BITMAP
18
18
00
18
18
18
18
18
78
D8
7C
08
ENDCHAR
STARTCHAR uni029F
ENCODING 671
SWIDTH 432 0
DWIDTH 5 0
BBX 4 6 1 0
BITMAP
C0
C0
C0
C0
C0
F0
ENDCHAR
STARTCHAR uni02A1
ENCODING 673
SWIDTH 476 0
DWIDTH 6 0
BBX 6 9 0 0
BITMAP
70
98
08
18
30
FC
20
20
20
ENDCHAR
STARTCHAR uni02A2
ENCODING 674
SWIDTH 476 0
DWIDTH 6 0
BBX 6 9 0 0
BITMAP
78
4C
C0
40
60
FC
30
30
30
ENDCHAR
STARTCHAR h.sups
ENCODING 688
SWIDTH 384 0
DWIDTH 5 0
BBX 4 5 0 5
BITMAP
C0
F0
D0
D0
D0
ENDCHAR
STARTCHAR j.sups
ENCODING 690
SWIDTH 190 0
DWIDTH 2 0
BBX 2 7 0 3
BITMAP
C0
00
40
40
40
40
C0
ENDCHAR
STARTCHAR r.sups
ENCODING 691
SWIDTH 272 0
DWIDTH 3 0
BBX 3 4 0 5
BITMAP
E0
C0
C0
C0
ENDCHAR
STARTCHAR w.sups
ENCODING 695
SWIDTH 523 0
DWIDTH 6 0
BBX 6 4 0 5
BITMAP
D4
74
78
68
ENDCHAR
STARTCHAR y.sups
ENCODING 696
SWIDTH 353 0
DWIDTH 4 0
BBX 4 6 0 3
BITMAP
90
50
60
60
20
C0
ENDCHAR
STARTCHAR uni02B9
ENCODING 697
SWIDTH 300 0
DWIDTH 4 0
BBX 2 4 1 4
BITMAP
C0
C0
C0
80
ENDCHAR
STARTCHAR uni02BB
ENCODING 699
SWIDTH 300 0
DWIDTH 4 0
BBX 2 4 1 4
BITMAP
C0
80
C0
C0
ENDCHAR
STARTCHAR uni02BC
ENCODING 700
SWIDTH 300 0
DWIDTH 4 0
BBX 2 4 1 4
BITMAP
C0
C0
40
80
ENDCHAR
STARTCHAR uni02BE
ENCODING 702
SWIDTH 176 0
DWIDTH 2 0
BBX 2 3 0 7
BITMAP
C0
40
C0
ENDCHAR
STARTCHAR uni02BF
ENCODING 703
SWIDTH 176 0
DWIDTH 2 0
BBX 2 3 0 7
BITMAP
C0
80
C0
ENDCHAR
STARTCHAR uni02C1
ENCODING 705
SWIDTH 343 0
DWIDTH 4 0
BBX 4 6 0 4
BITMAP
70
E0
40
60
20
20
ENDCHAR
STARTCHAR circumflex
ENCODING 710
SWIDTH 555 0
DWIDTH 7 0
BBX 5 2 1 7
BITMAP
70
D8
ENDCHAR
STARTCHAR caron
ENCODING 711
SWIDTH 555 0
DWIDTH 7 0
BBX 5 2 1 7
BITMAP
D0
78
ENDCHAR
STARTCHAR uni02C8
ENCODING 712
SWIDTH 147 0
DWIDTH 2 0
BBX 2 2 0 7
BITMAP
C0
C0
ENDCHAR
STARTCHAR uni02C9
ENCODING 713
SWIDTH 308 0
DWIDTH 4 0
BBX 4 1 0 7
BITMAP
F0
ENDCHAR
STARTCHAR uni02CA
ENCODING 714
SWIDTH 236 0
DWIDTH 3 0
BBX 3 3 1 7
BITMAP
40
E0
80
ENDCHAR
STARTCHAR uni02CB
ENCODING 715
SWIDTH 236 0
DWIDTH 3 0
BBX 3 3 -1 7
BITMAP
40
E0
20
ENDCHAR
STARTCHAR uni02CC
ENCODING 716
SWIDTH 147 0
DWIDTH 2 0
BBX 2 2 0 -3
BITMAP
C0
C0
ENDCHAR
STARTCHAR uni02D0
ENCODING 720
SWIDTH 300 0
DWIDTH 4 0
BBX 2 6 1 0
BITMAP
C0
80
00
00
80
C0
ENDCHAR
STARTCHAR uni02D1
ENCODING 721
SWIDTH 300 0
DWIDTH 4 0
BBX 2 2 1 4
BITMAP
C0
80
ENDCHAR
STARTCHAR breve
ENCODING 728
SWIDTH 555 0
DWIDTH 7 0
BBX 4 2 1 7
BITMAP
D0
70
ENDCHAR
STARTCHAR dotaccent
ENCODING 729
SWIDTH 555 0
DWIDTH 7 0
BBX 2 2 2 7
BITMAP
C0
C0
ENDCHAR
STARTCHAR ring
ENCODING 730
SWIDTH 555 0
DWIDTH 7 0
BBX 3 2 2 7
BITMAP
E0
E0
ENDCHAR
STARTCHAR ogonek
ENCODING 731
SWIDTH 555 0
DWIDTH 7 0
BBX 3 3 2 -2
BITMAP
40
C0
E0
ENDCHAR
STARTCHAR tilde
ENCODING 732
SWIDTH 555 0
DWIDTH 7 0
BBX 5 2 1 7
BITMAP
F8
90
ENDCHAR
STARTCHAR hungarumlaut
ENCODING 733
SWIDTH 555 0
DWIDTH 7 0
BBX 4 2 2 7
BITMAP
50
A0
ENDCHAR
STARTCHAR uni02DE
ENCODING 734
SWIDTH 189 0
DWIDTH 2 0
BBX 4 3 -1 3
BITMAP
40
C0
F0
ENDCHAR
STARTCHAR uni02E0
ENCODING 736
SWIDTH 353 0
DWIDTH 4 0
BBX 4 6 0 3
BITMAP
90
50
60
60
60
60
ENDCHAR
STARTCHAR l.sups
ENCODING 737
SWIDTH 194 0
DWIDTH 2 0
BBX 2 6 0 4
BITMAP
C0
C0
C0
C0
C0
40
ENDCHAR
STARTCHAR s.sups
ENCODING 738
SWIDTH 297 0
DWIDTH 4 0
BBX 3 5 0 4
BITMAP
60
C0
60
20
E0
ENDCHAR
STARTCHAR x.sups
ENCODING 739
SWIDTH 348 0
DWIDTH 4 0
BBX 4 4 0 5
BITMAP
D0
60
60
F0
ENDCHAR
STARTCHAR uni0300
ENCODING 768
SWIDTH 0 0
DWIDTH 0 0
BBX 3 3 -2 7
BITMAP
80
C0
60
ENDCHAR
STARTCHAR uni0301
ENCODING 769
SWIDTH 0 0
DWIDTH 0 0
BBX 3 3 -1 7
BITMAP
20
60
C0
ENDCHAR
STARTCHAR uni0302
ENCODING 770
SWIDTH 0 0
DWIDTH 0 0
BBX 4 2 -2 7
BITMAP
60
90
ENDCHAR
STARTCHAR uni0303
ENCODING 771
SWIDTH 0 0
DWIDTH 0 0
BBX 4 2 -2 7
BITMAP
F0
A0
ENDCHAR
STARTCHAR uni0304
ENCODING 772
SWIDTH 0 0
DWIDTH 0 0
BBX 4 1 -2 7
BITMAP
F0
ENDCHAR
STARTCHAR uni0305
ENCODING 773
SWIDTH 0 0
DWIDTH 0 0
BBX 4 1 -2 7
BITMAP
F0
ENDCHAR
STARTCHAR uni0306
ENCODING 774
SWIDTH 0 0
DWIDTH 0 0
BBX 4 2 -2 7
BITMAP
90
60
ENDCHAR
STARTCHAR uni0307
ENCODING 775
SWIDTH 0 0
DWIDTH 0 0
BBX 2 2 -1 7
BITMAP
C0
C0
ENDCHAR
STARTCHAR uni0308
ENCODING 776
SWIDTH 0 0
DWIDTH 0 0
BBX 4 2 -2 7
BITMAP
90
F0
ENDCHAR
STARTCHAR uni0309
ENCODING 777
SWIDTH 0 0
DWIDTH 0 0
BBX 2 3 -1 6
BITMAP
C0
40
80
ENDCHAR
STARTCHAR uni030A
ENCODING 778
SWIDTH 0 0
DWIDTH 0 0
BBX 4 2 -2 7
BITMAP
60
F0
ENDCHAR
STARTCHAR uni030B
ENCODING 779
SWIDTH 0 0
DWIDTH 0 0
BBX 5 2 -2 7
BITMAP
78
D0
ENDCHAR
STARTCHAR uni030C
ENCODING 780
SWIDTH 0 0
DWIDTH 0 0
BBX 4 2 -2 7
BITMAP
90
60
ENDCHAR
STARTCHAR uni030F
ENCODING 783
SWIDTH 0 0
DWIDTH 0 0
BBX 5 3 -3 7
BITMAP
D0
70
58
ENDCHAR
STARTCHAR uni0311
ENCODING 785
SWIDTH 0 0
DWIDTH 0 0
BBX 4 2 -2 7
BITMAP
60
90
ENDCHAR
STARTCHAR uni0312
ENCODING 786
SWIDTH 0 0
DWIDTH 0 0
BBX 2 2 -1 7
BITMAP
C0
C0
ENDCHAR
STARTCHAR uni0313
ENCODING 787
SWIDTH 0 0
DWIDTH 0 0
BBX 2 2 -1 7
BITMAP
C0
C0
ENDCHAR
STARTCHAR uni0318
ENCODING 792
SWIDTH 0 0
DWIDTH 0 0
BBX 2 3 -1 -3
BITMAP
40
C0
40
ENDCHAR
STARTCHAR uni0319
ENCODING 793
SWIDTH 0 0
DWIDTH 0 0
BBX 2 3 -1 -3
BITMAP
80
C0
80
ENDCHAR
STARTCHAR uni031A
ENCODING 794
SWIDTH 0 0
DWIDTH 0 0
BBX 2 2 -1 7
BITMAP
C0
40
ENDCHAR
STARTCHAR uni031B
ENCODING 795
SWIDTH 0 0
DWIDTH 0 0
BBX 2 3 0 5
BITMAP
C0
40
80
ENDCHAR
STARTCHAR uni031C
ENCODING 796
SWIDTH 0 0
DWIDTH 0 0
BBX 2 3 -1 -3
BITMAP
C0
80
C0
ENDCHAR
STARTCHAR uni031D
ENCODING 797
SWIDTH 0 0
DWIDTH 0 0
BBX 2 2 -1 -3
BITMAP
80
C0
ENDCHAR
STARTCHAR uni031E
ENCODING 798
SWIDTH 0 0
DWIDTH 0 0
BBX 2 2 -1 -3
BITMAP
C0
80
ENDCHAR
STARTCHAR uni031F
ENCODING 799
SWIDTH 0 0
DWIDTH 0 0
BBX 2 3 -1 -3
BITMAP
80
C0
80
ENDCHAR
STARTCHAR uni0320
ENCODING 800
SWIDTH 0 0
DWIDTH 0 0
BBX 2 1 -1 -2
BITMAP
C0
ENDCHAR
STARTCHAR uni0323
ENCODING 803
SWIDTH 0 0
DWIDTH 0 0
BBX 2 2 -1 -3
BITMAP
C0
C0
ENDCHAR
STARTCHAR uni0324
ENCODING 804
SWIDTH 0 0
DWIDTH 0 0
BBX 4 2 -2 -2
BITMAP
90
F0
ENDCHAR
STARTCHAR uni0325
ENCODING 805
SWIDTH 0 0
DWIDTH 0 0
BBX 4 2 -2 -3
BITMAP
60
F0
ENDCHAR
STARTCHAR uni0326
ENCODING 806
SWIDTH 0 0
DWIDTH 0 0
BBX 2 3 -1 -3
BITMAP
C0
40
C0
ENDCHAR
STARTCHAR uni0327
ENCODING 807
SWIDTH 0 0
DWIDTH 0 0
BBX 2 4 -1 -3
BITMAP
C0
C0
40
C0
ENDCHAR
STARTCHAR uni0328
ENCODING 808
SWIDTH 0 0
DWIDTH 0 0
BBX 2 3 -1 -2
BITMAP
40
80
C0
ENDCHAR
STARTCHAR uni0329
ENCODING 809
SWIDTH 0 0
DWIDTH 0 0
BBX 2 2 -1 -3
BITMAP
C0
C0
ENDCHAR
STARTCHAR uni032A
ENCODING 810
SWIDTH 0 0
DWIDTH 0 0
BBX 4 2 -2 -3
BITMAP
F0
90
ENDCHAR
STARTCHAR uni032C
ENCODING 812
SWIDTH 0 0
DWIDTH 0 0
BBX 4 2 -2 -3
BITMAP
90
60
ENDCHAR
STARTCHAR uni032E
ENCODING 814
SWIDTH 0 0
DWIDTH 0 0
BBX 4 2 -2 -3
BITMAP
90
60
ENDCHAR
STARTCHAR uni032F
ENCODING 815
SWIDTH 0 0
DWIDTH 0 0
BBX 4 2 -2 -3
BITMAP
60
90
ENDCHAR
STARTCHAR uni0330
ENCODING 816
SWIDTH 0 0
DWIDTH 0 0
BBX 4 2 -2 -3
BITMAP
F0
A0
ENDCHAR
STARTCHAR uni0331
ENCODING 817
SWIDTH 0 0
DWIDTH 0 0
BBX 4 1 -2 -2
BITMAP
F0
ENDCHAR
STARTCHAR uni0334
ENCODING 820
SWIDTH 0 0
DWIDTH 0 0
BBX 4 2 -2 2
BITMAP
F0
A0
ENDCHAR
STARTCHAR uni0339
ENCODING 825
SWIDTH 0 0
DWIDTH 0 0
BBX 2 3 -1 -3
BITMAP
C0
40
C0
ENDCHAR
STARTCHAR uni033A
ENCODING 826
SWIDTH 0 0
DWIDTH 0 0
BBX 4 2 -2 -2
BITMAP
90
F0
ENDCHAR
STARTCHAR uni033B
ENCODING 827
SWIDTH 0 0
DWIDTH 0 0
BBX 4 2 -2 -3
BITMAP
F0
F0
ENDCHAR
STARTCHAR uni033C
ENCODING 828
SWIDTH 0 0
DWIDTH 0 0
BBX 4 2 -2 -3
BITMAP
F0
D0
ENDCHAR
STARTCHAR uni033D
ENCODING 829
SWIDTH 0 0
DWIDTH 0 0
BBX 2 2 -1 7
BITMAP
C0
C0
ENDCHAR
STARTCHAR uni0342
ENCODING 834
SWIDTH 0 0
DWIDTH 0 0
BBX 4 2 -2 7
BITMAP
F0
A0
ENDCHAR
STARTCHAR uni0345
ENCODING 837
SWIDTH 0 0
DWIDTH 0 0
BBX 2 2 -1 -2
BITMAP
C0
40
ENDCHAR
STARTCHAR uni0361
ENCODING 865
SWIDTH 0 0
DWIDTH 0 0
BBX 10 2 -5 7
BITMAP
3F00
C0C0
ENDCHAR
STARTCHAR uni0374
ENCODING 884
SWIDTH 300 0
DWIDTH 4 0
BBX 2 4 1 4
BITMAP
C0
C0
C0
80
ENDCHAR
STARTCHAR uni0375
ENCODING 885
SWIDTH 300 0
DWIDTH 4 0
BBX 2 4 1 0
BITMAP
C0
C0
80
80
ENDCHAR
STARTCHAR uni037A
ENCODING 890
SWIDTH 555 0
DWIDTH 7 0
BBX 2 2 3 -2
BITMAP
80
C0
ENDCHAR
STARTCHAR uni037E
ENCODING 894
SWIDTH 300 0
DWIDTH 4 0
BBX 2 8 1 -2
BITMAP
C0
C0
00
00
C0
C0
40
80
ENDCHAR
STARTCHAR tonos
ENCODING 900
SWIDTH 555 0
DWIDTH 7 0
BBX 2 3 3 7
BITMAP
C0
80
80
ENDCHAR
STARTCHAR dieresistonos
ENCODING 901
SWIDTH 555 0
DWIDTH 7 0
BBX 5 3 1 7
BITMAP
20
20
B8
ENDCHAR
STARTCHAR Alphatonos
ENCODING 902
SWIDTH 622 0
DWIDTH 7 0
BBX 8 8 0 0
BITMAP
D8
9C
BC
3C
24
7E
66
43
ENDCHAR
STARTCHAR anoteleia
ENCODING 903
SWIDTH 300 0
DWIDTH 4 0
BBX 2 2 1 4
BITMAP
C0
C0
ENDCHAR
STARTCHAR Epsilontonos
ENCODING 904
SWIDTH 667 0
DWIDTH 8 0
BBX 7 8 0 0
BITMAP
FE
BE
B0
30
3E
30
3E
3E
ENDCHAR
STARTCHAR Etatonos
ENCODING 905
SWIDTH 792 0
DWIDTH 10 0
BBX 9 8 0 0
BITMAP
F180
B180
B180
3F80
3F80
3180
3180
3180
ENDCHAR
STARTCHAR Iotatonos
ENCODING 906
SWIDTH 420 0
DWIDTH 5 0
BBX 4 8 0 0
BITMAP
F0
B0
B0
30
30
30
30
30
ENDCHAR
STARTCHAR Omicrontonos
ENCODING 908
SWIDTH 777 0
DWIDTH 9 0
BBX 9 8 0 0
BITMAP
DE00
BF00
B380
3180
3180
3380
3F00
1E00
ENDCHAR
STARTCHAR Upsilontonos
ENCODING 910
SWIDTH 704 0
DWIDTH 8 0
BBX 9 8 0 0
BITMAP
F380
9B00
9A00
0E00
0C00
0C00
0C00
0C00
ENDCHAR
STARTCHAR Omegatonos
ENCODING 911
SWIDTH 803 0
DWIDTH 10 0
BBX 9 8 0 0
BITMAP
DE00
BF00
B180
3180
3180
1300
3B80
3B80
ENDCHAR
STARTCHAR iotadieresistonos
ENCODING 912
SWIDTH 301 0
DWIDTH 4 0
BBX 5 10 -1 0
BITMAP
20
30
E8
00
30
30
20
20
20
38
ENDCHAR
STARTCHAR Alpha
ENCODING 913
SWIDTH 573 0
DWIDTH 7 0
BBX 7 8 0 0
BITMAP
38
38
28
6C
6C
7C
C4
C6
ENDCHAR
STARTCHAR Beta
ENCODING 914
SWIDTH 605 0
DWIDTH 7 0
BBX 6 8 1 0
BITMAP
F8
F8
C8
C8
F8
CC
FC
F8
ENDCHAR
STARTCHAR Gamma
ENCODING 915
SWIDTH 521 0
DWIDTH 6 0
BBX 5 8 1 0
BITMAP
F8
F8
C0
C0
C0
C0
C0
C0
ENDCHAR
STARTCHAR uni0394
ENCODING 916
SWIDTH 640 0
DWIDTH 8 0
BBX 7 8 0 0
BITMAP
18
38
2C
2C
64
46
7E
FE
ENDCHAR
STARTCHAR Epsilon
ENCODING 917
SWIDTH 548 0
DWIDTH 7 0
BBX 5 8 1 0
BITMAP
F8
F8
C0
C0
F0
C0
F8
F8
ENDCHAR
STARTCHAR Zeta
ENCODING 918
SWIDTH 541 0
DWIDTH 6 0
BBX 6 8 0 0
BITMAP
7C
7C
1C
18
30
60
FC
FC
ENDCHAR
STARTCHAR Eta
ENCODING 919
SWIDTH 674 0
DWIDTH 8 0
BBX 6 8 1 0
BITMAP
CC
CC
CC
FC
FC
CC
CC
CC
ENDCHAR
STARTCHAR Theta
ENCODING 920
SWIDTH 684 0
DWIDTH 8 0
BBX 7 8 1 0
BITMAP
78
FC
CC
B6
86
CC
FC
78
ENDCHAR
STARTCHAR Iota
ENCODING 921
SWIDTH 301 0
DWIDTH 4 0
BBX 2 8 1 0
BITMAP
C0
C0
C0
C0
C0
C0
C0
C0
ENDCHAR
STARTCHAR Kappa
ENCODING 922
SWIDTH 614 0
DWIDTH 7 0
BBX 6 8 1 0
BITMAP
CC
D8
F0
F0
F0
D8
CC
CC
ENDCHAR
STARTCHAR Lambda
ENCODING 923
SWIDTH 556 0
DWIDTH 7 0
BBX 7 8 0 0
BITMAP
38
38
28
68
6C
4C
C4
C6
ENDCHAR
STARTCHAR Mu
ENCODING 924
SWIDTH 762 0
DWIDTH 9 0
BBX 7 8 1 0
BITMAP
C6
C6
EE
AA
AA
FA
D2
C2
ENDCHAR
STARTCHAR Nu
ENCODING 925
SWIDTH 665 0
DWIDTH 8 0
BBX 6 8 1 0
BITMAP
CC
EC
AC
FC
FC
D4
DC
CC
ENDCHAR
STARTCHAR Xi
ENCODING 926
SWIDTH 571 0
DWIDTH 7 0
BBX 5 8 1 0
BITMAP
F8
F8
00
F0
00
00
F8
F8
ENDCHAR
STARTCHAR Omicron
ENCODING 927
SWIDTH 684 0
DWIDTH 8 0
BBX 7 8 1 0
BITMAP
78
FC
CC
86
86
CC
FC
78
ENDCHAR
STARTCHAR Pi
ENCODING 928
SWIDTH 663 0
DWIDTH 8 0
BBX 6 8 1 0
BITMAP
FC
FC
CC
CC
CC
CC
CC
CC
ENDCHAR
STARTCHAR Rho
ENCODING 929
SWIDTH 596 0
DWIDTH 7 0
BBX 6 8 1 0
BITMAP
F8
FC
CC
CC
F8
C0
C0
C0
ENDCHAR
STARTCHAR Sigma
ENCODING 931
SWIDTH 549 0
DWIDTH 7 0
BBX 6 8 0 0
BITMAP
FC
7C
20
30
38
20
7C
FC
ENDCHAR
STARTCHAR Tau
ENCODING 932
SWIDTH 556 0
DWIDTH 7 0
BBX 6 8 0 0
BITMAP
FC
FC
30
30
30
30
30
30
ENDCHAR
STARTCHAR Upsilon
ENCODING 933
SWIDTH 525 0
DWIDTH 6 0
BBX 6 8 0 0
BITMAP
CC
4C
68
38
30
30
30
30
ENDCHAR
STARTCHAR Phi
ENCODING 934
SWIDTH 760 0
DWIDTH 9 0
BBX 8 8 1 0
BITMAP
10
7C
FE
93
93
FE
7C
10
ENDCHAR
STARTCHAR Chi
ENCODING 935
SWIDTH 567 0
DWIDTH 7 0
BBX 7 8 0 0
BITMAP
CE
6C
28
38
38
68
6C
CE
ENDCHAR
STARTCHAR Psi
ENCODING 936
SWIDTH 752 0
DWIDTH 9 0
BBX 7 8 1 0
BITMAP
92
92
92
D6
FE
7C
10
10
ENDCHAR
STARTCHAR uni03A9
ENCODING 937
SWIDTH 711 0
DWIDTH 9 0
BBX 7 8 1 0
BITMAP
78
FC
C6
C6
C6
CC
EE
EE
ENDCHAR
STARTCHAR Iotadieresis
ENCODING 938
SWIDTH 301 0
DWIDTH 4 0
BBX 4 10 0 0
BITMAP
B0
B0
60
60
60
60
60
60
60
60
ENDCHAR
STARTCHAR Upsilondieresis
ENCODING 939
SWIDTH 525 0
DWIDTH 6 0
BBX 6 10 0 0
BITMAP
68
68
CC
4C
68
38
30
30
30
30
ENDCHAR
STARTCHAR alphatonos
ENCODING 940
SWIDTH 595 0
DWIDTH 7 0
BBX 7 10 0 0
BITMAP
18
18
10
00
36
6C
CC
CC
6C
76
ENDCHAR
STARTCHAR epsilontonos
ENCODING 941
SWIDTH 471 0
DWIDTH 6 0
BBX 5 10 0 0
BITMAP
18
10
10
20
78
40
70
C0
C0
78
ENDCHAR
STARTCHAR etatonos
ENCODING 942
SWIDTH 562 0
DWIDTH 7 0
BBX 5 12 1 -2
BITMAP
30
30
20
00
B8
D8
D8
D8
D8
D8
18
18
ENDCHAR
STARTCHAR iotatonos
ENCODING 943
SWIDTH 301 0
DWIDTH 4 0
BBX 3 10 1 0
BITMAP
C0
C0
80
00
C0
C0
80
80
80
E0
ENDCHAR
STARTCHAR upsilondieresistonos
ENCODING 944
SWIDTH 532 0
DWIDTH 6 0
BBX 5 10 1 0
BITMAP
20
20
B0
00
98
98
98
98
98
F0
ENDCHAR
STARTCHAR alpha
ENCODING 945
SWIDTH 595 0
DWIDTH 7 0
BBX 7 6 0 0
BITMAP
36
6C
CC
CC
6C
76
ENDCHAR
STARTCHAR beta
ENCODING 946
SWIDTH 600 0
DWIDTH 7 0
BBX 6 11 1 -2
BITMAP
70
D8
D8
98
B8
8C
8C
CC
B8
80
C0
ENDCHAR
STARTCHAR gamma
ENCODING 947
SWIDTH 533 0
DWIDTH 6 0
BBX 6 8 0 -2
BITMAP
CC
6C
6C
28
38
30
30
30
ENDCHAR
STARTCHAR delta
ENCODING 948
SWIDTH 548 0
DWIDTH 7 0
BBX 6 9 0 0
BITMAP
3C
60
70
38
6C
4C
CC
4C
38
ENDCHAR
STARTCHAR epsilon
ENCODING 949
SWIDTH 471 0
DWIDTH 6 0
BBX 5 6 0 0
BITMAP
78
40
70
C0
C0
78
ENDCHAR
STARTCHAR zeta
ENCODING 950
SWIDTH 466 0
DWIDTH 6 0
BBX 5 11 0 -2
BITMAP
78
18
30
60
60
40
C0
60
38
08
18
ENDCHAR
STARTCHAR eta
ENCODING 951
SWIDTH 562 0
DWIDTH 7 0
BBX 5 8 1 -2
BITMAP
B8
D8
D8
D8
D8
D8
18
18
ENDCHAR
STARTCHAR theta
ENCODING 952
SWIDTH 549 0
DWIDTH 7 0
BBX 5 9 1 0
BITMAP
70
D0
98
98
F8
98
98
D0
70
ENDCHAR
STARTCHAR iota
ENCODING 953
SWIDTH 301 0
DWIDTH 4 0
BBX 3 6 1 0
BITMAP
C0
C0
80
80
80
E0
ENDCHAR
STARTCHAR kappa
ENCODING 954
SWIDTH 546 0
DWIDTH 7 0
BBX 6 6 1 0
BITMAP
88
F8
E0
F0
D0
9C
ENDCHAR
STARTCHAR lambda
ENCODING 955
SWIDTH 552 0
DWIDTH 7 0
BBX 7 9 0 0
BITMAP
E0
30
10
38
38
68
6C
6C
C6
ENDCHAR
STARTCHAR uni03BC
ENCODING 956
SWIDTH 594 0
DWIDTH 7 0
BBX 6 8 1 -2
BITMAP
D8
D8
D8
D8
D8
EC
80
C0
ENDCHAR
STARTCHAR nu
ENCODING 957
SWIDTH 523 0
DWIDTH 6 0
BBX 6 6 0 0
BITMAP
CC
6C
68
28
38
30
ENDCHAR
STARTCHAR xi
ENCODING 958
SWIDTH 469 0
DWIDTH 6 0
BBX 5 11 0 -2
BITMAP
F8
60
60
60
38
60
40
E0
78
08
18
ENDCHAR
STARTCHAR omicron
ENCODING 959
SWIDTH 553 0
DWIDTH 7 0
BBX 6 6 0 0
BITMAP
38
6C
CC
CC
6C
38
ENDCHAR
STARTCHAR pi
ENCODING 960
SWIDTH 635 0
DWIDTH 8 0
BBX 7 6 0 0
BITMAP
FE
24
64
6C
64
66
ENDCHAR
STARTCHAR rho
ENCODING 961
SWIDTH 569 0
DWIDTH 7 0
BBX 5 8 1 -2
BITMAP
70
D8
88
88
98
F0
80
C0
ENDCHAR
STARTCHAR uni03C2
ENCODING 962
SWIDTH 446 0
DWIDTH 5 0
BBX 5 8 0 -2
BITMAP
38
60
C0
C0
60
38
18
18
ENDCHAR
STARTCHAR sigma
ENCODING 963
SWIDTH 573 0
DWIDTH 7 0
BBX 7 6 0 0
BITMAP
3E
6C
CC
CC
6C
38
ENDCHAR
STARTCHAR tau
ENCODING 964
SWIDTH 492 0
DWIDTH 6 0
BBX 6 6 0 0
BITMAP
FC
30
30
30
30
18
ENDCHAR
STARTCHAR upsilon
ENCODING 965
SWIDTH 532 0
DWIDTH 6 0
BBX 5 6 1 0
BITMAP
98
98
98
98
98
F0
ENDCHAR
STARTCHAR phi
ENCODING 966
SWIDTH 738 0
DWIDTH 9 0
BBX 8 10 0 -2
BITMAP
08
08
3E
6B
C9
C9
6B
3E
08
08
ENDCHAR
STARTCHAR chi
ENCODING 967
SWIDTH 526 0
DWIDTH 6 0
BBX 6 8 0 -2
BITMAP
CC
68
38
30
38
68
6C
C0
ENDCHAR
STARTCHAR psi
ENCODING 968
SWIDTH 752 0
DWIDTH 9 0
BBX 7 10 1 -2
BITMAP
10
10
96
92
92
92
D6
7C
10
10
ENDCHAR
STARTCHAR omega
ENCODING 969
SWIDTH 746 0
DWIDTH 9 0
BBX 8 6 0 0
BITMAP
43
63
49
C9
49
77
ENDCHAR
STARTCHAR iotadieresis
ENCODING 970
SWIDTH 301 0
DWIDTH 4 0
BBX 5 9 -1 0
BITMAP
58
D8
00
30
30
20
20
20
38
ENDCHAR
STARTCHAR upsilondieresis
ENCODING 971
SWIDTH 532 0
DWIDTH 6 0
BBX 5 9 1 0
BITMAP
D0
D0
00
98
98
98
98
98
F0
ENDCHAR
STARTCHAR omicrontonos
ENCODING 972
SWIDTH 553 0
DWIDTH 7 0
BBX 6 10 0 0
BITMAP
18
10
10
00
38
6C
CC
CC
6C
38
ENDCHAR
STARTCHAR upsilontonos
ENCODING 973
SWIDTH 532 0
DWIDTH 6 0
BBX 5 10 1 0
BITMAP
30
20
20
00
98
98
98
98
98
F0
ENDCHAR
STARTCHAR omegatonos
ENCODING 974
SWIDTH 746 0
DWIDTH 9 0
BBX 8 10 0 0
BITMAP
0C
0C
08
00
43
63
49
C9
49
77
ENDCHAR
STARTCHAR uni03D0
ENCODING 976
SWIDTH 592 0
DWIDTH 7 0
BBX 6 9 1 0
BITMAP
70
D8
D8
98
F8
8C
CC
F8
78
ENDCHAR
STARTCHAR uni03D1
ENCODING 977
SWIDTH 549 0
DWIDTH 7 0
BBX 5 9 1 0
BITMAP
70
90
98
D8
78
18
D8
D8
F0
ENDCHAR
STARTCHAR uni03D5
ENCODING 981
SWIDTH 738 0
DWIDTH 9 0
BBX 8 8 0 -2
BITMAP
4E
6B
C9
C9
6B
3E
08
08
ENDCHAR
STARTCHAR uni03D7
ENCODING 983
SWIDTH 546 0
DWIDTH 7 0
BBX 6 8 1 -2
BITMAP
88
F8
E0
F0
D0
98
1C
30
ENDCHAR
STARTCHAR uni03D9
ENCODING 985
SWIDTH 553 0
DWIDTH 7 0
BBX 6 8 0 -2
BITMAP
38
6C
CC
CC
6C
38
30
30
ENDCHAR
STARTCHAR uni03DB
ENCODING 987
SWIDTH 490 0
DWIDTH 6 0
BBX 6 8 0 -2
BITMAP
3C
60
C0
C0
60
38
08
18
ENDCHAR
STARTCHAR uni03DD
ENCODING 989
SWIDTH 433 0
DWIDTH 5 0
BBX 4 8 1 -2
BITMAP
F0
80
80
F0
80
80
C0
C0
ENDCHAR
STARTCHAR uni03E1
ENCODING 993
SWIDTH 536 0
DWIDTH 6 0
BBX 6 11 0 -2
BITMAP
20
70
38
18
7C
EC
1C
7C
24
0C
0C
ENDCHAR
STARTCHAR uni0400
ENCODING 1024
SWIDTH 548 0
DWIDTH 7 0
BBX 5 11 1 0
BITMAP
40
E0
20
F8
F8
C0
C0
F0
C0
F8
F8
ENDCHAR
STARTCHAR uni0401
ENCODING 1025
SWIDTH 548 0
DWIDTH 7 0
BBX 5 10 1 0
BITMAP
D8
D8
F8
F8
C0
C0
F0
C0
F8
F8
ENDCHAR
STARTCHAR uni0402
ENCODING 1026
SWIDTH 701 0
DWIDTH 8 0
BBX 8 8 0 0
BITMAP
FC
FC
30
3E
33
33
37
36
ENDCHAR
STARTCHAR uni0403
ENCODING 1027
SWIDTH 521 0
DWIDTH 6 0
BBX 5 11 1 0
BITMAP
10
38
20
F8
F8
C0
C0
C0
C0
C0
C0
ENDCHAR
STARTCHAR uni0404
ENCODING 1028
SWIDTH 582 0
DWIDTH 7 0
BBX 6 8 1 0
BITMAP
78
FC
C8
80
F0
C8
FC
78
ENDCHAR
STARTCHAR uni0405
ENCODING 1029
SWIDTH 556 0
DWIDTH 7 0
BBX 6 8 0 0
BITMAP
38
7C
68
78
1C
4C
FC
38
ENDCHAR
STARTCHAR uni0406
ENCODING 1030
SWIDTH 301 0
DWIDTH 4 0
BBX 2 8 1 0
BITMAP
C0
C0
C0
C0
C0
C0
C0
C0
ENDCHAR
STARTCHAR uni0407
ENCODING 1031
SWIDTH 301 0
DWIDTH 4 0
BBX 4 10 0 0
BITMAP
B0
B0
60
60
60
60
60
60
60
60
ENDCHAR
STARTCHAR uni0408
ENCODING 1032
SWIDTH 509 0
DWIDTH 6 0
BBX 5 8 0 0
BITMAP
18
18
18
18
18
58
F8
70
ENDCHAR
STARTCHAR uni0409
ENCODING 1033
SWIDTH 920 0
DWIDTH 11 0
BBX 11 8 0 0
BITMAP
3E00
3E00
3600
37C0
27C0
6660
E7C0
C7C0
ENDCHAR
STARTCHAR uni040A
ENCODING 1034
SWIDTH 933 0
DWIDTH 11 0
BBX 10 8 1 0
BITMAP
CC00
CC00
CC00
CF80
FFC0
CCC0
CFC0
CF80
ENDCHAR
STARTCHAR uni040B
ENCODING 1035
SWIDTH 718 0
DWIDTH 9 0
BBX 8 8 0 0
BITMAP
FC
FC
30
3E
33
33
33
33
ENDCHAR
STARTCHAR uni040C
ENCODING 1036
SWIDTH 622 0
DWIDTH 7 0
BBX 6 11 1 0
BITMAP
08
18
30
CC
DC
D8
F0
D8
D8
CC
CC
ENDCHAR
STARTCHAR uni040D
ENCODING 1037
SWIDTH 676 0
DWIDTH 8 0
BBX 6 11 1 0
BITMAP
40
70
10
CC
CC
DC
D4
FC
AC
EC
CC
ENDCHAR
STARTCHAR uni040E
ENCODING 1038
SWIDTH 555 0
DWIDTH 7 0
BBX 7 10 0 0
BITMAP
6C
38
C6
4C
6C
28
38
38
70
60
ENDCHAR
STARTCHAR uni040F
ENCODING 1039
SWIDTH 663 0
DWIDTH 8 0
BBX 6 10 1 -2
BITMAP
CC
CC
CC
CC
CC
CC
FC
FC
30
30
ENDCHAR
STARTCHAR uni0410
ENCODING 1040
SWIDTH 573 0
DWIDTH 7 0
BBX 7 8 0 0
BITMAP
38
38
28
6C
6C
7C
C4
C6
ENDCHAR
STARTCHAR uni0411
ENCODING 1041
SWIDTH 600 0
DWIDTH 7 0
BBX 6 8 1 0
BITMAP
F8
F8
C0
F0
D8
CC
FC
F8
ENDCHAR
STARTCHAR uni0412
ENCODING 1042
SWIDTH 605 0
DWIDTH 7 0
BBX 6 8 1 0
BITMAP
F8
F8
C8
C8
F8
CC
FC
F8
ENDCHAR
STARTCHAR uni0413
ENCODING 1043
SWIDTH 521 0
DWIDTH 6 0
BBX 5 8 1 0
BITMAP
F8
F8
C0
C0
C0
C0
C0
C0
ENDCHAR
STARTCHAR uni0414
ENCODING 1044
SWIDTH 670 0
DWIDTH 8 0
BBX 8 10 0 -2
BITMAP
3E
3E
36
26
66
66
FF
FF
C3
C3
ENDCHAR
STARTCHAR uni0415
ENCODING 1045
SWIDTH 548 0
DWIDTH 7 0
BBX 5 8 1 0
BITMAP
F8
F8
C0
C0
F0
C0
F8
F8
ENDCHAR
STARTCHAR uni0416
ENCODING 1046
SWIDTH 868 0
DWIDTH 10 0
BBX 10 8 0 0
BITMAP
CCC0
EDC0
2D80
3F00
2D80
6D80
6CC0
CCC0
ENDCHAR
STARTCHAR uni0417
ENCODING 1047
SWIDTH 564 0
DWIDTH 7 0
BBX 6 8 0 0
BITMAP
38
7C
4C
38
04
4C
FC
78
ENDCHAR
STARTCHAR uni0418
ENCODING 1048
SWIDTH 676 0
DWIDTH 8 0
BBX 6 8 1 0
BITMAP
CC
CC
DC
D4
FC
AC
EC
CC
ENDCHAR
STARTCHAR uni0419
ENCODING 1049
SWIDTH 676 0
DWIDTH 8 0
BBX 6 10 1 0
BITMAP
68
38
CC
CC
DC
D4
FC
AC
EC
CC
ENDCHAR
STARTCHAR uni041A
ENCODING 1050
SWIDTH 622 0
DWIDTH 7 0
BBX 6 8 1 0
BITMAP
CC
DC
D8
F0
D8
D8
CC
CC
ENDCHAR
STARTCHAR uni041B
ENCODING 1051
SWIDTH 657 0
DWIDTH 8 0
BBX 7 8 0 0
BITMAP
3E
3E
36
26
66
66
E6
C6
ENDCHAR
STARTCHAR uni041C
ENCODING 1052
SWIDTH 762 0
DWIDTH 9 0
BBX 7 8 1 0
BITMAP
C6
C6
EE
AA
AA
FA
D2
C2
ENDCHAR
STARTCHAR uni041D
ENCODING 1053
SWIDTH 674 0
DWIDTH 8 0
BBX 6 8 1 0
BITMAP
CC
CC
CC
FC
FC
CC
CC
CC
ENDCHAR
STARTCHAR uni041E
ENCODING 1054
SWIDTH 684 0
DWIDTH 8 0
BBX 7 8 1 0
BITMAP
78
FC
CC
86
86
CC
FC
78
ENDCHAR
STARTCHAR uni041F
ENCODING 1055
SWIDTH 663 0
DWIDTH 8 0
BBX 6 8 1 0
BITMAP
FC
FC
CC
CC
CC
CC
CC
CC
ENDCHAR
STARTCHAR uni0420
ENCODING 1056
SWIDTH 596 0
DWIDTH 7 0
BBX 6 8 1 0
BITMAP
F8
FC
CC
CC
F8
C0
C0
C0
ENDCHAR
STARTCHAR uni0421
ENCODING 1057
SWIDTH 582 0
DWIDTH 7 0
BBX 6 8 1 0
BITMAP
78
FC
C8
80
80
C8
FC
78
ENDCHAR
STARTCHAR uni0422
ENCODING 1058
SWIDTH 556 0
DWIDTH 7 0
BBX 6 8 0 0
BITMAP
FC
FC
30
30
30
30
30
30
ENDCHAR
STARTCHAR uni0423
ENCODING 1059
SWIDTH 555 0
DWIDTH 7 0
BBX 7 8 0 0
BITMAP
C6
4C
6C
28
38
38
70
60
ENDCHAR
STARTCHAR uni0424
ENCODING 1060
SWIDTH 764 0
DWIDTH 9 0
BBX 8 8 1 0
BITMAP
10
7C
FE
93
93
FE
7C
10
ENDCHAR
STARTCHAR uni0425
ENCODING 1061
SWIDTH 567 0
DWIDTH 7 0
BBX 7 8 0 0
BITMAP
CE
6C
28
38
38
68
6C
CE
ENDCHAR
STARTCHAR uni0426
ENCODING 1062
SWIDTH 669 0
DWIDTH 8 0
BBX 7 10 1 -2
BITMAP
CC
CC
CC
CC
CC
CC
FE
FE
06
06
ENDCHAR
STARTCHAR uni0427
ENCODING 1063
SWIDTH 630 0
DWIDTH 8 0
BBX 6 8 1 0
BITMAP
8C
8C
CC
FC
7C
0C
0C
0C
ENDCHAR
STARTCHAR uni0428
ENCODING 1064
SWIDTH 910 0
DWIDTH 11 0
BBX 9 8 1 0
BITMAP
C980
C980
C980
C980
C980
C980
FF80
FF80
ENDCHAR
STARTCHAR uni0429
ENCODING 1065
SWIDTH 926 0
DWIDTH 11 0
BBX 10 10 1 -2
BITMAP
C980
C980
C980
C980
C980
C980
FFC0
FFC0
00C0
00C0
ENDCHAR
STARTCHAR uni042A
ENCODING 1066
SWIDTH 730 0
DWIDTH 9 0
BBX 8 8 0 0
BITMAP
F0
F0
10
1E
1F
11
1F
1E
ENDCHAR
STARTCHAR uni042B
ENCODING 1067
SWIDTH 853 0
DWIDTH 10 0
BBX 8 8 1 0
BITMAP
C1
C1
C1
F9
F9
CD
F9
F9
ENDCHAR
STARTCHAR uni042C
ENCODING 1068
SWIDTH 600 0
DWIDTH 7 0
BBX 6 8 1 0
BITMAP
C0
C0
C0
F8
FC
CC
FC
F8
ENDCHAR
STARTCHAR uni042D
ENCODING 1069
SWIDTH 582 0
DWIDTH 7 0
BBX 6 8 0 0
BITMAP
78
FC
8C
04
3C
8C
FC
78
ENDCHAR
STARTCHAR uni042E
ENCODING 1070
SWIDTH 950 0
DWIDTH 11 0
BBX 10 8 1 0
BITMAP
C700
CF80
D8C0
F8C0
D8C0
D8C0
CF80
C700
ENDCHAR
STARTCHAR uni042F
ENCODING 1071
SWIDTH 617 0
DWIDTH 7 0
BBX 6 8 0 0
BITMAP
3C
7C
44
64
3C
34
64
C4
ENDCHAR
STARTCHAR uni0430
ENCODING 1072
SWIDTH 527 0
DWIDTH 6 0
BBX 6 6 0 0
BITMAP
78
88
3C
6C
CC
7C
ENDCHAR
STARTCHAR uni0431
ENCODING 1073
SWIDTH 561 0
DWIDTH 7 0
BBX 6 9 0 0
BITMAP
3C
7C
60
78
4C
CC
4C
6C
38
ENDCHAR
STARTCHAR uni0432
ENCODING 1074
SWIDTH 528 0
DWIDTH 6 0
BBX 5 6 1 0
BITMAP
F0
D8
F0
D8
D8
F0
ENDCHAR
STARTCHAR uni0433
ENCODING 1075
SWIDTH 432 0
DWIDTH 5 0
BBX 4 6 1 0
BITMAP
F0
C0
C0
C0
C0
C0
ENDCHAR
STARTCHAR uni0434
ENCODING 1076
SWIDTH 584 0
DWIDTH 7 0
BBX 7 8 0 -2
BITMAP
7C
6C
6C
6C
4C
FE
C6
C6
ENDCHAR
STARTCHAR uni0435
ENCODING 1077
SWIDTH 518 0
DWIDTH 6 0
BBX 6 6 0 0
BITMAP
38
4C
FC
C0
60
3C
ENDCHAR
STARTCHAR uni0436
ENCODING 1078
SWIDTH 761 0
DWIDTH 9 0
BBX 9 6 0 0
BITMAP
C980
6B80
3E00
6B00
6900
C980
ENDCHAR
STARTCHAR uni0437
ENCODING 1079
SWIDTH 476 0
DWIDTH 6 0
BBX 5 6 0 0
BITMAP
F8
18
30
08
18
F0
ENDCHAR
STARTCHAR uni0438
ENCODING 1080
SWIDTH 583 0
DWIDTH 7 0
BBX 5 6 1 0
BITMAP
98
98
A8
A8
C8
C8
ENDCHAR
STARTCHAR uni0439
ENCODING 1081
SWIDTH 583 0
DWIDTH 7 0
BBX 5 9 1 0
BITMAP
D8
70
00
98
98
A8
A8
C8
C8
ENDCHAR
STARTCHAR uni043A
ENCODING 1082
SWIDTH 546 0
DWIDTH 7 0
BBX 5 6 1 0
BITMAP
D8
F8
E0
F0
D8
D8
ENDCHAR
STARTCHAR uni043B
ENCODING 1083
SWIDTH 573 0
DWIDTH 7 0
BBX 6 6 0 0
BITMAP
3C
2C
6C
6C
EC
CC
ENDCHAR
STARTCHAR uni043C
ENCODING 1084
SWIDTH 660 0
DWIDTH 8 0
BBX 6 6 1 0
BITMAP
CC
CC
FC
B4
B4
84
ENDCHAR
STARTCHAR uni043D
ENCODING 1085
SWIDTH 582 0
DWIDTH 7 0
BBX 5 6 1 0
BITMAP
D8
D8
F8
F8
D8
D8
ENDCHAR
STARTCHAR uni043E
ENCODING 1086
SWIDTH 555 0
DWIDTH 7 0
BBX 6 6 0 0
BITMAP
38
6C
CC
CC
6C
38
ENDCHAR
STARTCHAR uni043F
ENCODING 1087
SWIDTH 574 0
DWIDTH 7 0
BBX 5 6 1 0
BITMAP
F8
D8
D8
D8
D8
D8
ENDCHAR
STARTCHAR uni0440
ENCODING 1088
SWIDTH 573 0
DWIDTH 7 0
BBX 5 8 1 -2
BITMAP
B0
D8
C8
C8
D8
B0
C0
C0
ENDCHAR
STARTCHAR uni0441
ENCODING 1089
SWIDTH 467 0
DWIDTH 6 0
BBX 5 6 0 0
BITMAP
38
60
C0
C0
60
38
ENDCHAR
STARTCHAR uni0442
ENCODING 1090
SWIDTH 492 0
DWIDTH 6 0
BBX 6 6 0 0
BITMAP
FC
30
30
30
30
30
ENDCHAR
STARTCHAR uni0443
ENCODING 1091
SWIDTH 521 0
DWIDTH 6 0
BBX 6 8 0 -2
BITMAP
CC
4C
68
38
38
30
30
60
ENDCHAR
STARTCHAR uni0444
ENCODING 1092
SWIDTH 779 0
DWIDTH 9 0
BBX 9 11 0 -2
BITMAP
0C00
0C00
0C00
7F00
6980
C980
C980
6980
7F00
0C00
0C00
ENDCHAR
STARTCHAR uni0445
ENCODING 1093
SWIDTH 514 0
DWIDTH 6 0
BBX 6 6 0 0
BITMAP
CC
78
30
30
78
CC
ENDCHAR
STARTCHAR uni0446
ENCODING 1094
SWIDTH 595 0
DWIDTH 7 0
BBX 6 8 1 -2
BITMAP
D8
D8
D8
D8
D8
FC
0C
0C
ENDCHAR
STARTCHAR uni0447
ENCODING 1095
SWIDTH 550 0
DWIDTH 7 0
BBX 5 6 1 0
BITMAP
98
98
98
F8
18
18
ENDCHAR
STARTCHAR uni0448
ENCODING 1096
SWIDTH 803 0
DWIDTH 10 0
BBX 8 6 1 0
BITMAP
DB
DB
DB
DB
DB
FF
ENDCHAR
STARTCHAR uni0449
ENCODING 1097
SWIDTH 829 0
DWIDTH 10 0
BBX 9 8 1 -2
BITMAP
DB00
DB00
DB00
DB00
DB00
FF80
0180
0180
ENDCHAR
STARTCHAR uni044A
ENCODING 1098
SWIDTH 623 0
DWIDTH 7 0
BBX 7 6 0 0
BITMAP
F0
30
3C
36
36
3C
ENDCHAR
STARTCHAR uni044B
ENCODING 1099
SWIDTH 739 0
DWIDTH 9 0
BBX 7 6 1 0
BITMAP
C6
C6
F6
D6
DE
F6
ENDCHAR
STARTCHAR uni044C
ENCODING 1100
SWIDTH 516 0
DWIDTH 6 0
BBX 5 6 1 0
BITMAP
C0
C0
F0
D8
D8
F0
ENDCHAR
STARTCHAR uni044D
ENCODING 1101
SWIDTH 467 0
DWIDTH 6 0
BBX 5 6 0 0
BITMAP
F0
18
78
18
18
F0
ENDCHAR
STARTCHAR uni044E
ENCODING 1102
SWIDTH 776 0
DWIDTH 9 0
BBX 8 6 1 0
BITMAP
DE
D3
F3
F3
D3
DE
ENDCHAR
STARTCHAR uni044F
ENCODING 1103
SWIDTH 544 0
DWIDTH 7 0
BBX 6 6 0 0
BITMAP
7C
6C
6C
7C
6C
CC
ENDCHAR
STARTCHAR uni0450
ENCODING 1104
SWIDTH 518 0
DWIDTH 6 0
BBX 6 10 0 0
BITMAP
20
60
10
00
38
4C
FC
C0
60
3C
ENDCHAR
STARTCHAR uni0451
ENCODING 1105
SWIDTH 518 0
DWIDTH 6 0
BBX 6 9 0 0
BITMAP
68
68
00
38
4C
FC
C0
60
3C
ENDCHAR
STARTCHAR uni0452
ENCODING 1106
SWIDTH 572 0
DWIDTH 7 0
BBX 6 11 0 -2
BITMAP
60
F8
60
5C
6C
64
64
64
6C
0C
18
ENDCHAR
STARTCHAR uni0453
ENCODING 1107
SWIDTH 432 0
DWIDTH 5 0
BBX 4 10 1 0
BITMAP
10
30
60
00
F0
C0
C0
C0
C0
C0
ENDCHAR
STARTCHAR uni0454
ENCODING 1108
SWIDTH 467 0
DWIDTH 6 0
BBX 5 6 0 0
BITMAP
38
40
F0
C0
60
38
ENDCHAR
STARTCHAR uni0455
ENCODING 1109
SWIDTH 443 0
DWIDTH 5 0
BBX 5 6 0 0
BITMAP
78
50
70
38
98
F0
ENDCHAR
STARTCHAR uni0456
ENCODING 1110
SWIDTH 276 0
DWIDTH 3 0
BBX 2 9 1 0
BITMAP
80
C0
00
C0
C0
C0
C0
C0
C0
ENDCHAR
STARTCHAR uni0457
ENCODING 1111
SWIDTH 276 0
DWIDTH 3 0
BBX 5 9 -1 0
BITMAP
58
D8
00
30
30
30
30
30
30
ENDCHAR
STARTCHAR uni0458
ENCODING 1112
SWIDTH 278 0
DWIDTH 3 0
BBX 4 11 -1 -2
BITMAP
30
30
00
30
30
30
30
30
30
20
E0
ENDCHAR
STARTCHAR uni0459
ENCODING 1113
SWIDTH 780 0
DWIDTH 9 0
BBX 9 6 0 0
BITMAP
3C00
2C00
6F00
6D80
ED80
CF00
ENDCHAR
STARTCHAR uni045A
ENCODING 1114
SWIDTH 788 0
DWIDTH 9 0
BBX 8 6 1 0
BITMAP
D8
D8
FE
FB
DB
DE
ENDCHAR
STARTCHAR uni045B
ENCODING 1115
SWIDTH 571 0
DWIDTH 7 0
BBX 6 9 0 0
BITMAP
60
F8
60
58
6C
6C
6C
6C
6C
ENDCHAR
STARTCHAR uni045C
ENCODING 1116
SWIDTH 546 0
DWIDTH 7 0
BBX 5 10 1 0
BITMAP
10
38
20
00
D8
F8
E0
F0
D8
D8
ENDCHAR
STARTCHAR uni045D
ENCODING 1117
SWIDTH 583 0
DWIDTH 7 0
BBX 5 10 1 0
BITMAP
40
E0
20
00
98
98
A8
A8
C8
C8
ENDCHAR
STARTCHAR uni045E
ENCODING 1118
SWIDTH 521 0
DWIDTH 6 0
BBX 6 11 0 -2
BITMAP
68
38
00
CC
4C
68
38
38
30
30
60
ENDCHAR
STARTCHAR uni045F
ENCODING 1119
SWIDTH 578 0
DWIDTH 7 0
BBX 5 8 1 -2
BITMAP
D8
D8
D8
D8
D8
F8
20
20
ENDCHAR
STARTCHAR uni0462
ENCODING 1122
SWIDTH 624 0
DWIDTH 7 0
BBX 7 8 0 0
BITMAP
30
FC
30
3C
36
36
3E
3C
ENDCHAR
STARTCHAR uni0463
ENCODING 1123
SWIDTH 600 0
DWIDTH 7 0
BBX 7 7 0 0
BITMAP
30
FC
30
3C
36
36
3C
ENDCHAR
STARTCHAR uni0472
ENCODING 1138
SWIDTH 684 0
DWIDTH 8 0
BBX 7 8 1 0
BITMAP
78
FC
C4
FE
86
CC
FC
78
ENDCHAR
STARTCHAR uni0473
ENCODING 1139
SWIDTH 555 0
DWIDTH 7 0
BBX 6 6 0 0
BITMAP
38
4C
FC
CC
6C
38
ENDCHAR
STARTCHAR uni0474
ENCODING 1140
SWIDTH 574 0
DWIDTH 7 0
BBX 7 8 0 0
BITMAP
C6
C6
4C
6C
68
28
38
38
ENDCHAR
STARTCHAR uni0475
ENCODING 1141
SWIDTH 533 0
DWIDTH 6 0
BBX 7 6 0 0
BITMAP
C6
4C
68
78
38
30
ENDCHAR
STARTCHAR uni0490
ENCODING 1168
SWIDTH 521 0
DWIDTH 6 0
BBX 5 10 1 0
BITMAP
18
18
F8
F8
C0
C0
C0
C0
C0
C0
ENDCHAR
STARTCHAR uni0491
ENCODING 1169
SWIDTH 433 0
DWIDTH 5 0
BBX 4 8 1 0
BITMAP
30
30
F0
C0
C0
C0
C0
C0
ENDCHAR
STARTCHAR uni0492
ENCODING 1170
SWIDTH 546 0
DWIDTH 7 0
BBX 6 8 0 0
BITMAP
7C
7C
60
60
F0
60
60
60
ENDCHAR
STARTCHAR uni0493
ENCODING 1171
SWIDTH 457 0
DWIDTH 5 0
BBX 5 6 0 0
BITMAP
78
60
60
F0
60
60
ENDCHAR
STARTCHAR uni0496
ENCODING 1174
SWIDTH 905 0
DWIDTH 11 0
BBX 11 10 0 -2
BITMAP
CCC0
EDC0
2D80
3F00
2D80
6D80
6CE0
CCE0
0060
0060
ENDCHAR
STARTCHAR uni0497
ENCODING 1175
SWIDTH 803 0
DWIDTH 10 0
BBX 10 8 0 -2
BITMAP
C980
6B80
3E00
6B00
6900
C9C0
0080
0080
ENDCHAR
STARTCHAR uni0498
ENCODING 1176
SWIDTH 564 0
DWIDTH 7 0
BBX 6 10 0 -2
BITMAP
38
7C
4C
38
04
4C
FC
78
10
10
ENDCHAR
STARTCHAR uni0499
ENCODING 1177
SWIDTH 476 0
DWIDTH 6 0
BBX 5 8 0 -2
BITMAP
F0
18
38
08
18
F8
30
20
ENDCHAR
STARTCHAR uni049A
ENCODING 1178
SWIDTH 667 0
DWIDTH 8 0
BBX 7 10 1 -2
BITMAP
CC
DC
D8
F0
D8
D8
CE
CE
06
06
ENDCHAR
STARTCHAR uni049B
ENCODING 1179
SWIDTH 588 0
DWIDTH 7 0
BBX 6 8 1 -2
BITMAP
D8
F8
E0
F0
D0
DC
0C
0C
ENDCHAR
STARTCHAR uni04A0
ENCODING 1184
SWIDTH 749 0
DWIDTH 9 0
BBX 9 7 0 1
BITMAP
F180
F380
3600
3C00
3600
3300
3180
ENDCHAR
STARTCHAR uni04A1
ENCODING 1185
SWIDTH 656 0
DWIDTH 8 0
BBX 8 6 0 0
BITMAP
F6
36
3C
34
36
33
ENDCHAR
STARTCHAR uni04A2
ENCODING 1186
SWIDTH 689 0
DWIDTH 8 0
BBX 7 10 1 -2
BITMAP
CC
CC
CC
CC
FC
CC
CE
CE
06
06
ENDCHAR
STARTCHAR uni04A3
ENCODING 1187
SWIDTH 608 0
DWIDTH 7 0
BBX 6 8 1 -2
BITMAP
D8
D8
F8
F8
D8
DC
0C
0C
ENDCHAR
STARTCHAR uni04AA
ENCODING 1194
SWIDTH 582 0
DWIDTH 7 0
BBX 6 10 1 -2
BITMAP
78
FC
C8
80
80
C8
FC
78
30
30
ENDCHAR
STARTCHAR uni04AB
ENCODING 1195
SWIDTH 467 0
DWIDTH 6 0
BBX 5 8 0 -2
BITMAP
38
60
C0
C0
60
38
30
10
ENDCHAR
STARTCHAR uni04AE
ENCODING 1198
SWIDTH 525 0
DWIDTH 6 0
BBX 6 8 0 0
BITMAP
CC
4C
68
38
30
30
30
30
ENDCHAR
STARTCHAR uni04AF
ENCODING 1199
SWIDTH 523 0
DWIDTH 6 0
BBX 6 8 0 -2
BITMAP
CC
4C
68
78
38
30
30
30
ENDCHAR
STARTCHAR uni04B0
ENCODING 1200
SWIDTH 525 0
DWIDTH 6 0
BBX 6 8 0 0
BITMAP
CC
4C
68
38
7C
30
30
30
ENDCHAR
STARTCHAR uni04B1
ENCODING 1201
SWIDTH 523 0
DWIDTH 6 0
BBX 6 8 0 -2
BITMAP
CC
4C
68
78
38
7C
30
30
ENDCHAR
STARTCHAR uni04B2
ENCODING 1202
SWIDTH 605 0
DWIDTH 7 0
BBX 7 10 0 -2
BITMAP
CE
6C
28
38
38
6C
6E
CE
06
06
ENDCHAR
STARTCHAR uni04B3
ENCODING 1203
SWIDTH 548 0
DWIDTH 7 0
BBX 6 8 0 -2
BITMAP
CC
78
30
30
78
CC
04
04
ENDCHAR
STARTCHAR uni04B6
ENCODING 1206
SWIDTH 645 0
DWIDTH 8 0
BBX 7 10 1 -2
BITMAP
8C
8C
CC
FC
7C
0C
0E
0E
06
04
ENDCHAR
STARTCHAR uni04B7
ENCODING 1207
SWIDTH 575 0
DWIDTH 7 0
BBX 6 8 1 -2
BITMAP
98
98
98
F8
18
1C
0C
0C
ENDCHAR
STARTCHAR uni04BA
ENCODING 1210
SWIDTH 630 0
DWIDTH 8 0
BBX 6 8 1 0
BITMAP
C0
C0
C0
F8
FC
CC
CC
CC
ENDCHAR
STARTCHAR uni04BB
ENCODING 1211
SWIDTH 571 0
DWIDTH 7 0
BBX 5 9 1 0
BITMAP
C0
C0
C0
B8
D8
D8
D8
D8
D8
ENDCHAR
STARTCHAR uni04C0
ENCODING 1216
SWIDTH 301 0
DWIDTH 4 0
BBX 2 8 1 0
BITMAP
C0
C0
C0
C0
C0
C0
C0
C0
ENDCHAR
STARTCHAR uni04C1
ENCODING 1217
SWIDTH 868 0
DWIDTH 10 0
BBX 10 10 0 0
BITMAP
1A00
0E00
CCC0
EDC0
2D80
3F00
2D80
6D80
6CC0
CCC0
ENDCHAR
STARTCHAR uni04C2
ENCODING 1218
SWIDTH 761 0
DWIDTH 9 0
BBX 9 9 0 0
BITMAP
3600
1C00
0000
C980
6B80
3E00
6B00
6900
C980
ENDCHAR
STARTCHAR uni04CF
ENCODING 1231
SWIDTH 286 0
DWIDTH 3 0
BBX 2 9 1 0
BITMAP
C0
C0
C0
C0
C0
C0
C0
C0
C0
ENDCHAR
STARTCHAR uni04D0
ENCODING 1232
SWIDTH 573 0
DWIDTH 7 0
BBX 7 10 0 0
BITMAP
6C
38
38
38
28
6C
6C
7C
C4
C6
ENDCHAR
STARTCHAR uni04D1
ENCODING 1233
SWIDTH 527 0
DWIDTH 6 0
BBX 6 9 0 0
BITMAP
68
38
00
78
88
3C
6C
CC
7C
ENDCHAR
STARTCHAR uni04D4
ENCODING 1236
SWIDTH 845 0
DWIDTH 10 0
BBX 10 8 0 0
BITMAP
1F80
1F80
3400
3400
6780
7C00
47C0
C7C0
ENDCHAR
STARTCHAR uni04D5
ENCODING 1237
SWIDTH 786 0
DWIDTH 9 0
BBX 8 6 1 0
BITMAP
FE
9B
7F
D8
98
EF
ENDCHAR
STARTCHAR uni04D6
ENCODING 1238
SWIDTH 548 0
DWIDTH 7 0
BBX 5 10 1 0
BITMAP
D8
70
F8
F8
C0
C0
F0
C0
F8
F8
ENDCHAR
STARTCHAR uni04D7
ENCODING 1239
SWIDTH 518 0
DWIDTH 6 0
BBX 6 9 0 0
BITMAP
68
38
00
38
4C
FC
C0
60
3C
ENDCHAR
STARTCHAR uni04D8
ENCODING 1240
SWIDTH 675 0
DWIDTH 8 0
BBX 7 8 1 0
BITMAP
78
FC
8C
06
FE
CC
FC
78
ENDCHAR
STARTCHAR uni04D9
ENCODING 1241
SWIDTH 518 0
DWIDTH 6 0
BBX 6 6 0 0
BITMAP
78
08
FC
CC
48
78
ENDCHAR
STARTCHAR uni04E2
ENCODING 1250
SWIDTH 676 0
DWIDTH 8 0
BBX 6 10 1 0
BITMAP
78
00
CC
CC
DC
D4
FC
AC
EC
CC
ENDCHAR
STARTCHAR uni04E3
ENCODING 1251
SWIDTH 583 0
DWIDTH 7 0
BBX 5 8 1 0
BITMAP
70
00
98
98
A8
A8
C8
C8
ENDCHAR
STARTCHAR uni04E6
ENCODING 1254
SWIDTH 684 0
DWIDTH 8 0
BBX 7 10 1 0
BITMAP
68
68
78
FC
CC
86
86
CC
FC
78
ENDCHAR
STARTCHAR uni04E7
ENCODING 1255
SWIDTH 555 0
DWIDTH 7 0
BBX 6 9 0 0
BITMAP
68
6C
00
38
6C
CC
CC
6C
38
ENDCHAR
STARTCHAR uni04E8
ENCODING 1256
SWIDTH 684 0
DWIDTH 8 0
BBX 7 8 1 0
BITMAP
78
FC
C4
FE
86
CC
FC
78
ENDCHAR
STARTCHAR uni04E9
ENCODING 1257
SWIDTH 555 0
DWIDTH 7 0
BBX 6 6 0 0
BITMAP
38
4C
FC
CC
6C
38
ENDCHAR
STARTCHAR uni04EE
ENCODING 1262
SWIDTH 555 0
DWIDTH 7 0
BBX 7 10 0 0
BITMAP
38
00
C6
4C
6C
28
38
38
70
60
ENDCHAR
STARTCHAR uni04EF
ENCODING 1263
SWIDTH 521 0
DWIDTH 6 0
BBX 6 10 0 -2
BITMAP
78
00
CC
4C
68
38
38
30
30
60
ENDCHAR
STARTCHAR uni04F2
ENCODING 1266
SWIDTH 555 0
DWIDTH 7 0
BBX 7 10 0 0
BITMAP
14
28
C6
4C
6C
28
38
38
70
60
ENDCHAR
STARTCHAR uni04F3
ENCODING 1267
SWIDTH 521 0
DWIDTH 6 0
BBX 6 11 0 -2
BITMAP
3C
28
00
CC
4C
68
38
38
30
30
60
ENDCHAR
STARTCHAR a.sups
ENCODING 7491
SWIDTH 359 0
DWIDTH 4 0
BBX 4 5 0 4
BITMAP
60
90
70
D0
70
ENDCHAR
STARTCHAR b.sups
ENCODING 7495
SWIDTH 385 0
DWIDTH 5 0
BBX 4 6 0 4
BITMAP
C0
F0
D0
D0
D0
F0
ENDCHAR
STARTCHAR d.sups
ENCODING 7496
SWIDTH 385 0
DWIDTH 5 0
BBX 4 6 0 4
BITMAP
10
70
D0
D0
D0
70
ENDCHAR
STARTCHAR e.sups
ENCODING 7497
SWIDTH 346 0
DWIDTH 4 0
BBX 4 5 0 4
BITMAP
60
D0
F0
C0
70
ENDCHAR
STARTCHAR g.sups
ENCODING 7501
SWIDTH 361 0
DWIDTH 4 0
BBX 4 6 0 3
BITMAP
70
D0
60
80
70
F0
ENDCHAR
STARTCHAR k.sups
ENCODING 7503
SWIDTH 371 0
DWIDTH 4 0
BBX 4 5 0 5
BITMAP
C0
C0
F0
E0
D0
ENDCHAR
STARTCHAR m.sups
ENCODING 7504
SWIDTH 577 0
DWIDTH 7 0
BBX 6 4 0 5
BITMAP
FC
D4
D4
D4
ENDCHAR
STARTCHAR o.sups
ENCODING 7506
SWIDTH 373 0
DWIDTH 4 0
BBX 4 5 0 4
BITMAP
60
D0
D0
D0
60
ENDCHAR
STARTCHAR p.sups
ENCODING 7510
SWIDTH 385 0
DWIDTH 5 0
BBX 4 6 0 3
BITMAP
F0
D0
D0
D0
F0
C0
ENDCHAR
STARTCHAR t.sups
ENCODING 7511
SWIDTH 259 0
DWIDTH 3 0
BBX 3 6 0 4
BITMAP
40
E0
40
40
40
60
ENDCHAR
STARTCHAR u.sups
ENCODING 7512
SWIDTH 383 0
DWIDTH 5 0
BBX 4 5 0 4
BITMAP
D0
D0
D0
D0
70
ENDCHAR
STARTCHAR v.sups
ENCODING 7515
SWIDTH 355 0
DWIDTH 4 0
BBX 4 4 0 5
BITMAP
90
50
60
60
ENDCHAR
STARTCHAR c.sups
ENCODING 7580
SWIDTH 313 0
DWIDTH 4 0
BBX 4 5 0 4
BITMAP
70
C0
C0
C0
70
ENDCHAR
STARTCHAR f.sups
ENCODING 7584
SWIDTH 232 0
DWIDTH 3 0
BBX 3 5 0 5
BITMAP
60
40
E0
40
40
ENDCHAR
STARTCHAR z.sups
ENCODING 7611
SWIDTH 312 0
DWIDTH 4 0
BBX 4 3 0 5
BITMAP
E0
60
F0
ENDCHAR
STARTCHAR uni1E06
ENCODING 7686
SWIDTH 605 0
DWIDTH 7 0
BBX 6 10 1 -2
BITMAP
F8
F8
C8
C8
F8
CC
FC
F8
00
78
ENDCHAR
STARTCHAR uni1E07
ENCODING 7687
SWIDTH 573 0
DWIDTH 7 0
BBX 5 11 1 -2
BITMAP
C0
C0
C0
F0
D8
C8
C8
D8
B0
00
70
ENDCHAR
STARTCHAR uni1E0C
ENCODING 7692
SWIDTH 635 0
DWIDTH 8 0
BBX 6 11 1 -3
BITMAP
F0
F8
CC
CC
CC
CC
F8
F0
00
30
30
ENDCHAR
STARTCHAR uni1E0D
ENCODING 7693
SWIDTH 573 0
DWIDTH 7 0
BBX 6 12 0 -3
BITMAP
0C
0C
0C
3C
6C
CC
CC
6C
74
00
18
18
ENDCHAR
STARTCHAR uni1E0E
ENCODING 7694
SWIDTH 635 0
DWIDTH 8 0
BBX 6 10 1 -2
BITMAP
F0
F8
CC
CC
CC
CC
F8
F0
00
78
ENDCHAR
STARTCHAR uni1E0F
ENCODING 7695
SWIDTH 573 0
DWIDTH 7 0
BBX 6 11 0 -2
BITMAP
0C
0C
0C
3C
6C
CC
CC
6C
74
00
3C
ENDCHAR
STARTCHAR uni1E16
ENCODING 7702
SWIDTH 548 0
DWIDTH 7 0
BBX 5 13 1 0
BITMAP
10
60
00
70
00
F8
F8
C0
C0
F0
C0
F8
F8
ENDCHAR
STARTCHAR uni1E17
ENCODING 7703
SWIDTH 518 0
DWIDTH 6 0
BBX 6 11 0 0
BITMAP
10
38
00
78
00
38
4C
FC
C0
60
3C
ENDCHAR
STARTCHAR uni1E20
ENCODING 7712
SWIDTH 638 0
DWIDTH 8 0
BBX 6 10 1 0
BITMAP
38
00
78
FC
C8
80
9C
CC
FC
78
ENDCHAR
STARTCHAR uni1E21
ENCODING 7713
SWIDTH 534 0
DWIDTH 6 0
BBX 6 10 0 -2
BITMAP
38
00
7C
48
48
78
40
7C
C4
78
ENDCHAR
STARTCHAR uni1E24
ENCODING 7716
SWIDTH 674 0
DWIDTH 8 0
BBX 6 11 1 -3
BITMAP
CC
CC
CC
FC
FC
CC
CC
CC
00
30
30
ENDCHAR
STARTCHAR uni1E25
ENCODING 7717
SWIDTH 571 0
DWIDTH 7 0
BBX 5 12 1 -3
BITMAP
C0
C0
C0
B8
D8
D8
D8
D8
D8
00
20
20
ENDCHAR
STARTCHAR uni1E2A
ENCODING 7722
SWIDTH 674 0
DWIDTH 8 0
BBX 6 11 1 -3
BITMAP
CC
CC
CC
FC
FC
CC
CC
CC
00
48
30
ENDCHAR
STARTCHAR uni1E2B
ENCODING 7723
SWIDTH 571 0
DWIDTH 7 0
BBX 5 12 1 -3
BITMAP
C0
C0
C0
B8
D8
D8
D8
D8
D8
00
D8
70
ENDCHAR
STARTCHAR uni1E32
ENCODING 7730
SWIDTH 614 0
DWIDTH 7 0
BBX 6 11 1 -3
BITMAP
CC
D8
F0
F0
F0
D8
CC
CC
00
30
30
ENDCHAR
STARTCHAR uni1E33
ENCODING 7731
SWIDTH 548 0
DWIDTH 7 0
BBX 6 12 1 -3
BITMAP
C0
C0
C0
D8
F0
E0
F0
D8
D8
04
20
30
ENDCHAR
STARTCHAR uni1E34
ENCODING 7732
SWIDTH 614 0
DWIDTH 7 0
BBX 6 10 1 -2
BITMAP
CC
D8
F0
F0
F0
D8
CC
CC
00
78
ENDCHAR
STARTCHAR uni1E35
ENCODING 7733
SWIDTH 548 0
DWIDTH 7 0
BBX 6 11 1 -2
BITMAP
C0
C0
C0
D8
F0
E0
F0
D8
D8
04
70
ENDCHAR
STARTCHAR uni1E36
ENCODING 7734
SWIDTH 518 0
DWIDTH 6 0
BBX 5 11 1 -3
BITMAP
C0
C0
C0
C0
C0
C0
F8
F8
00
20
20
ENDCHAR
STARTCHAR uni1E37
ENCODING 7735
SWIDTH 286 0
DWIDTH 3 0
BBX 2 12 1 -3
BITMAP
C0
C0
C0
C0
C0
C0
C0
C0
C0
00
C0
C0
ENDCHAR
STARTCHAR uni1E38
ENCODING 7736
SWIDTH 518 0
DWIDTH 6 0
BBX 6 13 0 -3
BITMAP
F0
00
60
60
60
60
60
60
7C
7C
00
10
10
ENDCHAR
STARTCHAR uni1E39
ENCODING 7737
SWIDTH 286 0
DWIDTH 3 0
BBX 3 14 0 -3
BITMAP
E0
00
60
60
60
60
60
60
60
60
60
00
60
60
ENDCHAR
STARTCHAR uni1E3A
ENCODING 7738
SWIDTH 518 0
DWIDTH 6 0
BBX 5 10 1 -2
BITMAP
C0
C0
C0
C0
C0
C0
F8
F8
00
70
ENDCHAR
STARTCHAR uni1E3B
ENCODING 7739
SWIDTH 286 0
DWIDTH 3 0
BBX 4 11 0 -2
BITMAP
60
60
60
60
60
60
60
60
60
00
F0
ENDCHAR
STARTCHAR uni1E3E
ENCODING 7742
SWIDTH 762 0
DWIDTH 9 0
BBX 7 11 1 0
BITMAP
08
1C
10
C6
C6
EE
AA
AA
FA
D2
C2
ENDCHAR
STARTCHAR uni1E3F
ENCODING 7743
SWIDTH 857 0
DWIDTH 10 0
BBX 9 10 1 0
BITMAP
0400
0E00
1800
0000
BF00
D900
D980
D980
D980
D980
ENDCHAR
STARTCHAR uni1E40
ENCODING 7744
SWIDTH 762 0
DWIDTH 9 0
BBX 7 10 1 0
BITMAP
10
18
C6
C6
EE
AA
AA
FA
D2
C2
ENDCHAR
STARTCHAR uni1E41
ENCODING 7745
SWIDTH 857 0
DWIDTH 10 0
BBX 9 9 1 0
BITMAP
1800
1800
0000
BF00
D900
D980
D980
D980
D980
ENDCHAR
STARTCHAR uni1E42
ENCODING 7746
SWIDTH 762 0
DWIDTH 9 0
BBX 7 11 1 -3
BITMAP
C6
C6
EE
AA
AA
FA
D2
C2
00
10
18
ENDCHAR
STARTCHAR uni1E43
ENCODING 7747
SWIDTH 857 0
DWIDTH 10 0
BBX 9 9 1 -3
BITMAP
BF00
D900
D980
D980
D980
D980
0000
1800
1800
ENDCHAR
STARTCHAR uni1E44
ENCODING 7748
SWIDTH 665 0
DWIDTH 8 0
BBX 6 10 1 0
BITMAP
30
30
CC
EC
AC
FC
FC
D4
DC
CC
ENDCHAR
STARTCHAR uni1E45
ENCODING 7749
SWIDTH 572 0
DWIDTH 7 0
BBX 5 9 1 0
BITMAP
30
30
00
B8
D8
D8
D8
D8
D8
ENDCHAR
STARTCHAR uni1E46
ENCODING 7750
SWIDTH 665 0
DWIDTH 8 0
BBX 6 11 1 -3
BITMAP
CC
EC
AC
FC
FC
D4
DC
CC
00
30
30
ENDCHAR
STARTCHAR uni1E47
ENCODING 7751
SWIDTH 572 0
DWIDTH 7 0
BBX 5 9 1 -3
BITMAP
B8
D8
D8
D8
D8
D8
00
20
20
ENDCHAR
STARTCHAR uni1E48
ENCODING 7752
SWIDTH 665 0
DWIDTH 8 0
BBX 6 10 1 -2
BITMAP
CC
EC
AC
FC
FC
D4
DC
CC
00
78
ENDCHAR
STARTCHAR uni1E49
ENCODING 7753
SWIDTH 572 0
DWIDTH 7 0
BBX 5 8 1 -2
BITMAP
B8
D8
D8
D8
D8
D8
00
70
ENDCHAR
STARTCHAR uni1E52
ENCODING 7762
SWIDTH 684 0
DWIDTH 8 0
BBX 7 13 1 0
BITMAP
10
38
00
78
00
78
FC
CC
86
86
CC
FC
78
ENDCHAR
STARTCHAR uni1E53
ENCODING 7763
SWIDTH 555 0
DWIDTH 7 0
BBX 6 11 0 0
BITMAP
18
30
00
38
00
38
6C
CC
CC
6C
38
ENDCHAR
STARTCHAR uni1E58
ENCODING 7768
SWIDTH 613 0
DWIDTH 7 0
BBX 6 10 1 0
BITMAP
30
30
F8
FC
CC
CC
F8
D8
D8
CC
ENDCHAR
STARTCHAR uni1E59
ENCODING 7769
SWIDTH 398 0
DWIDTH 5 0
BBX 4 9 1 0
BITMAP
60
60
00
B0
F0
C0
C0
C0
C0
ENDCHAR
STARTCHAR uni1E5A
ENCODING 7770
SWIDTH 613 0
DWIDTH 7 0
BBX 6 11 1 -3
BITMAP
F8
FC
CC
CC
F8
D8
D8
CC
00
30
30
ENDCHAR
STARTCHAR uni1E5B
ENCODING 7771
SWIDTH 398 0
DWIDTH 5 0
BBX 4 9 1 -3
BITMAP
B0
F0
C0
C0
C0
C0
00
C0
C0
ENDCHAR
STARTCHAR uni1E5C
ENCODING 7772
SWIDTH 613 0
DWIDTH 7 0
BBX 6 13 1 -3
BITMAP
78
00
F8
FC
CC
CC
F8
D8
D8
CC
00
30
30
ENDCHAR
STARTCHAR uni1E5D
ENCODING 7773
SWIDTH 398 0
DWIDTH 5 0
BBX 4 11 1 -3
BITMAP
F0
00
B0
F0
C0
C0
C0
C0
00
C0
C0
ENDCHAR
STARTCHAR uni1E5E
ENCODING 7774
SWIDTH 613 0
DWIDTH 7 0
BBX 6 10 1 -2
BITMAP
F8
FC
CC
CC
F8
D8
D8
CC
00
78
ENDCHAR
STARTCHAR uni1E5F
ENCODING 7775
SWIDTH 398 0
DWIDTH 5 0
BBX 5 8 0 -2
BITMAP
58
78
60
60
60
60
00
E0
ENDCHAR
STARTCHAR uni1E60
ENCODING 7776
SWIDTH 556 0
DWIDTH 7 0
BBX 6 10 0 0
BITMAP
10
38
38
7C
68
78
1C
4C
FC
38
ENDCHAR
STARTCHAR uni1E61
ENCODING 7777
SWIDTH 443 0
DWIDTH 5 0
BBX 5 9 0 0
BITMAP
30
30
00
78
50
70
38
98
F0
ENDCHAR
STARTCHAR uni1E62
ENCODING 7778
SWIDTH 556 0
DWIDTH 7 0
BBX 6 11 0 -3
BITMAP
38
7C
68
78
1C
4C
FC
38
00
10
30
ENDCHAR
STARTCHAR uni1E63
ENCODING 7779
SWIDTH 443 0
DWIDTH 5 0
BBX 5 9 0 -3
BITMAP
78
50
70
38
98
F0
00
30
30
ENDCHAR
STARTCHAR uni1E6C
ENCODING 7788
SWIDTH 556 0
DWIDTH 7 0
BBX 6 11 0 -3
BITMAP
FC
FC
30
30
30
30
30
30
00
30
30
ENDCHAR
STARTCHAR uni1E6D
ENCODING 7789
SWIDTH 383 0
DWIDTH 5 0
BBX 4 11 0 -3
BITMAP
60
60
F0
60
60
60
60
30
00
30
30
ENDCHAR
STARTCHAR uni1E6E
ENCODING 7790
SWIDTH 556 0
DWIDTH 7 0
BBX 6 10 0 -2
BITMAP
FC
FC
30
30
30
30
30
30
00
38
ENDCHAR
STARTCHAR uni1E6F
ENCODING 7791
SWIDTH 383 0
DWIDTH 5 0
BBX 5 10 0 -2
BITMAP
60
60
F0
60
60
60
60
30
00
78
ENDCHAR
STARTCHAR Wgrave
ENCODING 7808
SWIDTH 813 0
DWIDTH 10 0
BBX 10 11 0 0
BITMAP
1000
1800
0C00
CCC0
CC80
4C80
5D80
7F80
7780
7300
3300
ENDCHAR
STARTCHAR wgrave
ENCODING 7809
SWIDTH 776 0
DWIDTH 9 0
BBX 9 10 0 0
BITMAP
1000
3800
0800
0000
CD80
4D80
7D00
7500
7500
3700
ENDCHAR
STARTCHAR Wacute
ENCODING 7810
SWIDTH 813 0
DWIDTH 10 0
BBX 10 11 0 0
BITMAP
0400
0E00
0800
CCC0
CC80
4C80
5D80
7F80
7780
7300
3300
ENDCHAR
STARTCHAR wacute
ENCODING 7811
SWIDTH 776 0
DWIDTH 9 0
BBX 9 10 0 0
BITMAP
0400
0E00
0800
0000
CD80
4D80
7D00
7500
7500
3700
ENDCHAR
STARTCHAR Wdieresis
ENCODING 7812
SWIDTH 813 0
DWIDTH 10 0
BBX 10 10 0 0
BITMAP
1600
1600
CCC0
CC80
4C80
5D80
7F80
7780
7300
3300
ENDCHAR
STARTCHAR wdieresis
ENCODING 7813
SWIDTH 776 0
DWIDTH 9 0
BBX 9 9 0 0
BITMAP
1600
3600
0000
CD80
4D80
7D00
7500
7500
3700
ENDCHAR
STARTCHAR uni1E8E
ENCODING 7822
SWIDTH 525 0
DWIDTH 6 0
BBX 6 10 0 0
BITMAP
30
30
CC
4C
68
38
30
30
30
30
ENDCHAR
STARTCHAR uni1E8F
ENCODING 7823
SWIDTH 521 0
DWIDTH 6 0
BBX 6 11 0 -2
BITMAP
30
30
00
CC
4C
68
38
38
30
30
60
ENDCHAR
STARTCHAR uni1E92
ENCODING 7826
SWIDTH 541 0
DWIDTH 6 0
BBX 6 11 0 -3
BITMAP
7C
7C
1C
18
30
60
FC
FC
00
10
30
ENDCHAR
STARTCHAR uni1E93
ENCODING 7827
SWIDTH 460 0
DWIDTH 6 0
BBX 5 9 0 -3
BITMAP
78
18
30
70
60
F8
00
30
30
ENDCHAR
STARTCHAR uni1E94
ENCODING 7828
SWIDTH 541 0
DWIDTH 6 0
BBX 6 10 0 -2
BITMAP
7C
7C
1C
18
30
60
FC
FC
00
38
ENDCHAR
STARTCHAR uni1E95
ENCODING 7829
SWIDTH 460 0
DWIDTH 6 0
BBX 5 8 0 -2
BITMAP
78
18
30
70
60
F8
00
78
ENDCHAR
STARTCHAR uni1E96
ENCODING 7830
SWIDTH 571 0
DWIDTH 7 0
BBX 5 11 1 -2
BITMAP
C0
C0
C0
B8
D8
D8
D8
D8
D8
00
70
ENDCHAR
STARTCHAR uni1E97
ENCODING 7831
SWIDTH 383 0
DWIDTH 5 0
BBX 4 11 0 0
BITMAP
90
F0
00
60
60
F0
60
60
60
60
30
ENDCHAR
STARTCHAR uni1E9E
ENCODING 7838
SWIDTH 705 0
DWIDTH 8 0
BBX 7 8 1 0
BITMAP
78
FC
C4
C8
DC
E6
DE
FC
ENDCHAR
STARTCHAR uni1EA0
ENCODING 7840
SWIDTH 573 0
DWIDTH 7 0
BBX 7 11 0 -3
BITMAP
38
38
28
6C
6C
7C
C4
C6
00
10
30
ENDCHAR
STARTCHAR uni1EA1
ENCODING 7841
SWIDTH 527 0
DWIDTH 6 0
BBX 6 9 0 -3
BITMAP
78
88
3C
6C
CC
7C
00
30
30
ENDCHAR
STARTCHAR uni1EA2
ENCODING 7842
SWIDTH 573 0
DWIDTH 7 0
BBX 7 11 0 0
BITMAP
30
18
00
38
38
28
6C
6C
7C
C4
C6
ENDCHAR
STARTCHAR uni1EA3
ENCODING 7843
SWIDTH 527 0
DWIDTH 6 0
BBX 6 9 0 0
BITMAP
30
10
20
78
88
3C
6C
CC
7C
ENDCHAR
STARTCHAR uni1EA4
ENCODING 7844
SWIDTH 573 0
DWIDTH 7 0
BBX 7 11 0 0
BITMAP
04
34
28
38
38
28
6C
6C
7C
C4
C6
ENDCHAR
STARTCHAR uni1EA5
ENCODING 7845
SWIDTH 527 0
DWIDTH 6 0
BBX 7 10 0 0
BITMAP
04
36
28
48
78
88
3C
6C
CC
7C
ENDCHAR
STARTCHAR uni1EA6
ENCODING 7846
SWIDTH 573 0
DWIDTH 7 0
BBX 7 11 0 0
BITMAP
80
70
28
38
38
28
6C
6C
7C
C4
C6
ENDCHAR
STARTCHAR uni1EA7
ENCODING 7847
SWIDTH 527 0
DWIDTH 6 0
BBX 6 10 0 0
BITMAP
80
70
28
48
78
88
3C
6C
CC
7C
ENDCHAR
STARTCHAR uni1EA8
ENCODING 7848
SWIDTH 573 0
DWIDTH 7 0
BBX 7 12 0 0
BITMAP
04
0C
34
28
38
38
28
6C
6C
7C
C4
C6
ENDCHAR
STARTCHAR uni1EA9
ENCODING 7849
SWIDTH 527 0
DWIDTH 6 0
BBX 6 11 0 0
BITMAP
0C
04
34
28
48
78
88
3C
6C
CC
7C
ENDCHAR
STARTCHAR uni1EAA
ENCODING 7850
SWIDTH 573 0
DWIDTH 7 0
BBX 7 13 0 0
BITMAP
28
38
00
30
28
38
38
28
6C
6C
7C
C4
C6
ENDCHAR
STARTCHAR uni1EAB
ENCODING 7851
SWIDTH 527 0
DWIDTH 6 0
BBX 6 11 0 0
BITMAP
28
38
00
30
28
78
88
3C
6C
CC
7C
ENDCHAR
STARTCHAR uni1EAC
ENCODING 7852
SWIDTH 573 0
DWIDTH 7 0
BBX 7 13 0 -3
BITMAP
38
68
38
38
28
6C
6C
7C
C4
C6
00
10
30
ENDCHAR
STARTCHAR uni1EAD
ENCODING 7853
SWIDTH 527 0
DWIDTH 6 0
BBX 6 12 0 -3
BITMAP
38
6C
00
78
88
3C
6C
CC
7C
00
30
30
ENDCHAR
STARTCHAR uni1EAE
ENCODING 7854
SWIDTH 573 0
DWIDTH 7 0
BBX 7 12 0 0
BITMAP
18
10
68
38
38
38
28
6C
6C
7C
C4
C6
ENDCHAR
STARTCHAR uni1EAF
ENCODING 7855
SWIDTH 527 0
DWIDTH 6 0
BBX 6 11 0 0
BITMAP
10
18
48
38
00
78
88
3C
6C
CC
7C
ENDCHAR
STARTCHAR uni1EB0
ENCODING 7856
SWIDTH 573 0
DWIDTH 7 0
BBX 7 12 0 0
BITMAP
20
10
68
38
38
38
28
6C
6C
7C
C4
C6
ENDCHAR
STARTCHAR uni1EB1
ENCODING 7857
SWIDTH 527 0
DWIDTH 6 0
BBX 6 11 0 0
BITMAP
20
10
48
38
00
78
88
3C
6C
CC
7C
ENDCHAR
STARTCHAR uni1EB2
ENCODING 7858
SWIDTH 573 0
DWIDTH 7 0
BBX 7 13 0 0
BITMAP
10
30
10
68
38
38
38
28
6C
6C
7C
C4
C6
ENDCHAR
STARTCHAR uni1EB3
ENCODING 7859
SWIDTH 527 0
DWIDTH 6 0
BBX 6 12 0 0
BITMAP
30
10
10
48
38
00
78
88
3C
6C
CC
7C
ENDCHAR
STARTCHAR uni1EB4
ENCODING 7860
SWIDTH 573 0
DWIDTH 7 0
BBX 7 13 0 0
BITMAP
28
38
00
68
38
38
38
28
6C
6C
7C
C4
C6
ENDCHAR
STARTCHAR uni1EB5
ENCODING 7861
SWIDTH 527 0
DWIDTH 6 0
BBX 6 12 0 0
BITMAP
28
38
40
68
38
00
78
88
3C
6C
CC
7C
ENDCHAR
STARTCHAR uni1EB6
ENCODING 7862
SWIDTH 573 0
DWIDTH 7 0
BBX 7 13 0 -3
BITMAP
68
38
38
38
28
6C
6C
7C
C4
C6
00
10
30
ENDCHAR
STARTCHAR uni1EB7
ENCODING 7863
SWIDTH 527 0
DWIDTH 6 0
BBX 6 12 0 -3
BITMAP
48
38
00
78
88
3C
6C
CC
7C
00
30
30
ENDCHAR
STARTCHAR uni1EB8
ENCODING 7864
SWIDTH 548 0
DWIDTH 7 0
BBX 5 11 1 -3
BITMAP
F8
F8
C0
C0
F0
C0
F8
F8
00
20
30
ENDCHAR
STARTCHAR uni1EB9
ENCODING 7865
SWIDTH 518 0
DWIDTH 6 0
BBX 6 9 0 -3
BITMAP
38
4C
FC
C0
60
3C
00
30
30
ENDCHAR
STARTCHAR uni1EBA
ENCODING 7866
SWIDTH 548 0
DWIDTH 7 0
BBX 5 11 1 0
BITMAP
60
30
00
F8
F8
C0
C0
F0
C0
F8
F8
ENDCHAR
STARTCHAR uni1EBB
ENCODING 7867
SWIDTH 518 0
DWIDTH 6 0
BBX 6 9 0 0
BITMAP
30
10
20
38
4C
FC
C0
60
3C
ENDCHAR
STARTCHAR uni1EBC
ENCODING 7868
SWIDTH 548 0
DWIDTH 7 0
BBX 5 11 1 0
BITMAP
10
78
80
F8
F8
C0
C0
F0
C0
F8
F8
ENDCHAR
STARTCHAR uni1EBD
ENCODING 7869
SWIDTH 518 0
DWIDTH 6 0
BBX 6 9 0 0
BITMAP
7C
50
00
38
4C
FC
C0
60
3C
ENDCHAR
STARTCHAR uni1EBE
ENCODING 7870
SWIDTH 548 0
DWIDTH 7 0
BBX 6 11 1 0
BITMAP
08
6C
50
F8
F8
C0
C0
F0
C0
F8
F8
ENDCHAR
STARTCHAR uni1EBF
ENCODING 7871
SWIDTH 518 0
DWIDTH 6 0
BBX 7 10 0 0
BITMAP
04
36
28
48
38
4C
FC
C0
60
3C
ENDCHAR
STARTCHAR uni1EC0
ENCODING 7872
SWIDTH 548 0
DWIDTH 7 0
BBX 6 11 0 0
BITMAP
80
70
28
7C
7C
60
60
78
60
7C
7C
ENDCHAR
STARTCHAR uni1EC1
ENCODING 7873
SWIDTH 518 0
DWIDTH 6 0
BBX 6 10 0 0
BITMAP
80
70
28
48
38
4C
FC
C0
60
3C
ENDCHAR
STARTCHAR uni1EC2
ENCODING 7874
SWIDTH 548 0
DWIDTH 7 0
BBX 5 12 1 0
BITMAP
08
08
68
50
F8
F8
C0
C0
F0
C0
F8
F8
ENDCHAR
STARTCHAR uni1EC3
ENCODING 7875
SWIDTH 518 0
DWIDTH 6 0
BBX 6 11 0 0
BITMAP
0C
04
34
28
48
38
4C
FC
C0
60
3C
ENDCHAR
STARTCHAR uni1EC4
ENCODING 7876
SWIDTH 548 0
DWIDTH 7 0
BBX 5 13 1 0
BITMAP
50
70
00
60
50
F8
F8
C0
C0
F0
C0
F8
F8
ENDCHAR
STARTCHAR uni1EC5
ENCODING 7877
SWIDTH 518 0
DWIDTH 6 0
BBX 6 11 0 0
BITMAP
28
38
40
30
28
78
4C
FC
C0
60
3C
ENDCHAR
STARTCHAR uni1EC6
ENCODING 7878
SWIDTH 548 0
DWIDTH 7 0
BBX 5 13 1 -3
BITMAP
70
D8
F8
F8
C0
C0
F0
C0
F8
F8
00
20
30
ENDCHAR
STARTCHAR uni1EC7
ENCODING 7879
SWIDTH 518 0
DWIDTH 6 0
BBX 6 12 0 -3
BITMAP
38
48
00
38
4C
FC
C0
60
3C
00
30
30
ENDCHAR
STARTCHAR uni1EC8
ENCODING 7880
SWIDTH 301 0
DWIDTH 4 0
BBX 2 11 1 0
BITMAP
C0
40
80
C0
C0
C0
C0
C0
C0
C0
C0
ENDCHAR
STARTCHAR uni1EC9
ENCODING 7881
SWIDTH 276 0
DWIDTH 3 0
BBX 2 9 1 0
BITMAP
80
40
80
C0
C0
C0
C0
C0
C0
ENDCHAR
STARTCHAR uni1ECA
ENCODING 7882
SWIDTH 301 0
DWIDTH 4 0
BBX 2 11 1 -3
BITMAP
C0
C0
C0
C0
C0
C0
C0
C0
00
C0
C0
ENDCHAR
STARTCHAR uni1ECB
ENCODING 7883
SWIDTH 276 0
DWIDTH 3 0
BBX 2 12 1 -3
BITMAP
80
C0
00
C0
C0
C0
C0
C0
C0
00
C0
C0
ENDCHAR
STARTCHAR uni1ECC
ENCODING 7884
SWIDTH 684 0
DWIDTH 8 0
BBX 7 11 1 -3
BITMAP
78
FC
CC
86
86
CC
FC
78
00
30
30
ENDCHAR
STARTCHAR uni1ECD
ENCODING 7885
SWIDTH 555 0
DWIDTH 7 0
BBX 6 9 0 -3
BITMAP
38
6C
CC
CC
6C
38
00
30
30
ENDCHAR
STARTCHAR uni1ECE
ENCODING 7886
SWIDTH 684 0
DWIDTH 8 0
BBX 7 11 1 0
BITMAP
30
10
20
78
FC
CC
86
86
CC
FC
78
ENDCHAR
STARTCHAR uni1ECF
ENCODING 7887
SWIDTH 555 0
DWIDTH 7 0
BBX 6 9 0 0
BITMAP
30
10
20
38
6C
CC
CC
6C
38
ENDCHAR
STARTCHAR uni1ED0
ENCODING 7888
SWIDTH 684 0
DWIDTH 8 0
BBX 7 11 1 0
BITMAP
04
38
28
78
FC
CC
86
86
CC
FC
78
ENDCHAR
STARTCHAR uni1ED1
ENCODING 7889
SWIDTH 555 0
DWIDTH 7 0
BBX 7 10 0 0
BITMAP
06
34
28
48
38
6C
CC
CC
6C
38
ENDCHAR
STARTCHAR uni1ED2
ENCODING 7890
SWIDTH 684 0
DWIDTH 8 0
BBX 7 11 1 0
BITMAP
80
70
28
78
FC
CC
86
86
CC
FC
78
ENDCHAR
STARTCHAR uni1ED3
ENCODING 7891
SWIDTH 555 0
DWIDTH 7 0
BBX 6 10 0 0
BITMAP
80
70
28
48
38
6C
CC
CC
6C
38
ENDCHAR
STARTCHAR uni1ED4
ENCODING 7892
SWIDTH 684 0
DWIDTH 8 0
BBX 7 12 1 0
BITMAP
0C
04
34
28
78
FC
CC
86
86
CC
FC
78
ENDCHAR
STARTCHAR uni1ED5
ENCODING 7893
SWIDTH 555 0
DWIDTH 7 0
BBX 6 11 0 0
BITMAP
04
0C
34
28
48
38
6C
CC
CC
6C
38
ENDCHAR
STARTCHAR uni1ED6
ENCODING 7894
SWIDTH 684 0
DWIDTH 8 0
BBX 7 13 1 0
BITMAP
28
58
00
30
28
78
FC
CC
86
86
CC
FC
78
ENDCHAR
STARTCHAR uni1ED7
ENCODING 7895
SWIDTH 555 0
DWIDTH 7 0
BBX 6 11 0 0
BITMAP
28
38
00
30
28
38
6C
CC
CC
6C
38
ENDCHAR
STARTCHAR uni1ED8
ENCODING 7896
SWIDTH 684 0
DWIDTH 8 0
BBX 7 13 1 -3
BITMAP
30
48
78
FC
CC
86
86
CC
FC
78
00
30
30
ENDCHAR
STARTCHAR uni1ED9
ENCODING 7897
SWIDTH 555 0
DWIDTH 7 0
BBX 6 12 0 -3
BITMAP
38
6C
00
38
6C
CC
CC
6C
38
00
30
30
ENDCHAR
STARTCHAR uni1EDA
ENCODING 7898
SWIDTH 684 0
DWIDTH 8 0
BBX 7 11 1 0
BITMAP
08
1A
36
7E
FC
CC
86
86
CC
FC
78
ENDCHAR
STARTCHAR uni1EDB
ENCODING 7899
SWIDTH 555 0
DWIDTH 7 0
BBX 7 10 0 0
BITMAP
08
1C
16
06
3C
6C
CC
CC
6C
38
ENDCHAR
STARTCHAR uni1EDC
ENCODING 7900
SWIDTH 684 0
DWIDTH 8 0
BBX 7 11 1 0
BITMAP
40
72
16
7E
FC
CC
86
86
CC
FC
78
ENDCHAR
STARTCHAR uni1EDD
ENCODING 7901
SWIDTH 555 0
DWIDTH 7 0
BBX 7 10 0 0
BITMAP
20
70
16
06
3C
6C
CC
CC
6C
38
ENDCHAR
STARTCHAR uni1EDE
ENCODING 7902
SWIDTH 684 0
DWIDTH 8 0
BBX 7 11 1 0
BITMAP
30
12
26
7E
FC
CC
86
86
CC
FC
78
ENDCHAR
STARTCHAR uni1EDF
ENCODING 7903
SWIDTH 555 0
DWIDTH 7 0
BBX 7 9 0 0
BITMAP
30
16
26
3C
6C
CC
CC
6C
38
ENDCHAR
STARTCHAR uni1EE0
ENCODING 7904
SWIDTH 684 0
DWIDTH 8 0
BBX 7 11 1 0
BITMAP
08
7A
46
7E
FC
CC
86
86
CC
FC
78
ENDCHAR
STARTCHAR uni1EE1
ENCODING 7905
SWIDTH 555 0
DWIDTH 7 0
BBX 7 9 0 0
BITMAP
68
56
06
3C
6C
CC
CC
6C
38
ENDCHAR
STARTCHAR uni1EE2
ENCODING 7906
SWIDTH 684 0
DWIDTH 8 0
BBX 7 13 1 -3
BITMAP
02
06
7E
FC
CC
86
86
CC
FC
78
00
30
30
ENDCHAR
STARTCHAR uni1EE3
ENCODING 7907
SWIDTH 555 0
DWIDTH 7 0
BBX 7 11 0 -3
BITMAP
06
06
3C
6C
CC
CC
6C
38
00
30
30
ENDCHAR
STARTCHAR uni1EE4
ENCODING 7908
SWIDTH 665 0
DWIDTH 8 0
BBX 6 11 1 -3
BITMAP
CC
CC
CC
CC
CC
CC
FC
78
00
30
30
ENDCHAR
STARTCHAR uni1EE5
ENCODING 7909
SWIDTH 568 0
DWIDTH 7 0
BBX 5 9 1 -3
BITMAP
98
98
98
98
D8
E8
00
20
30
ENDCHAR
STARTCHAR uni1EE6
ENCODING 7910
SWIDTH 665 0
DWIDTH 8 0
BBX 6 11 1 0
BITMAP
30
10
20
CC
CC
CC
CC
CC
CC
FC
78
ENDCHAR
STARTCHAR uni1EE7
ENCODING 7911
SWIDTH 568 0
DWIDTH 7 0
BBX 5 9 1 0
BITMAP
60
30
20
98
98
98
98
D8
E8
ENDCHAR
STARTCHAR uni1EE8
ENCODING 7912
SWIDTH 683 0
DWIDTH 8 0
BBX 8 11 1 0
BITMAP
10
1B
33
CE
CC
CC
CC
CC
CC
FC
78
ENDCHAR
STARTCHAR uni1EE9
ENCODING 7913
SWIDTH 568 0
DWIDTH 7 0
BBX 6 10 1 0
BITMAP
10
38
24
04
9C
98
98
98
D8
E8
ENDCHAR
STARTCHAR uni1EEA
ENCODING 7914
SWIDTH 683 0
DWIDTH 8 0
BBX 8 11 1 0
BITMAP
40
63
33
CE
CC
CC
CC
CC
CC
FC
78
ENDCHAR
STARTCHAR uni1EEB
ENCODING 7915
SWIDTH 568 0
DWIDTH 7 0
BBX 6 10 1 0
BITMAP
40
C0
24
04
9C
98
98
98
D8
E8
ENDCHAR
STARTCHAR uni1EEC
ENCODING 7916
SWIDTH 683 0
DWIDTH 8 0
BBX 8 11 1 0
BITMAP
30
13
23
CE
CC
CC
CC
CC
CC
FC
78
ENDCHAR
STARTCHAR uni1EED
ENCODING 7917
SWIDTH 568 0
DWIDTH 7 0
BBX 6 9 1 0
BITMAP
60
24
44
9C
98
98
98
D8
E8
ENDCHAR
STARTCHAR uni1EEE
ENCODING 7918
SWIDTH 683 0
DWIDTH 8 0
BBX 8 11 1 0
BITMAP
08
7B
43
CE
CC
CC
CC
CC
CC
FC
78
ENDCHAR
STARTCHAR uni1EEF
ENCODING 7919
SWIDTH 568 0
DWIDTH 7 0
BBX 6 9 1 0
BITMAP
F8
A4
04
9C
98
98
98
D8
E8
ENDCHAR
STARTCHAR uni1EF0
ENCODING 7920
SWIDTH 683 0
DWIDTH 8 0
BBX 8 13 1 -3
BITMAP
03
03
CE
CC
CC
CC
CC
CC
FC
78
00
30
30
ENDCHAR
STARTCHAR uni1EF1
ENCODING 7921
SWIDTH 568 0
DWIDTH 7 0
BBX 6 11 1 -3
BITMAP
04
04
9C
98
98
98
D8
E8
00
20
20
ENDCHAR
STARTCHAR Ygrave
ENCODING 7922
SWIDTH 525 0
DWIDTH 6 0
BBX 6 11 0 0
BITMAP
20
70
10
CC
4C
68
38
30
30
30
30
ENDCHAR
STARTCHAR ygrave
ENCODING 7923
SWIDTH 521 0
DWIDTH 6 0
BBX 6 12 0 -2
BITMAP
20
60
30
00
CC
4C
68
38
38
30
30
60
ENDCHAR
STARTCHAR uni1EF4
ENCODING 7924
SWIDTH 525 0
DWIDTH 6 0
BBX 6 11 0 -3
BITMAP
CC
4C
68
38
30
30
30
30
00
30
30
ENDCHAR
STARTCHAR uni1EF5
ENCODING 7925
SWIDTH 521 0
DWIDTH 6 0
BBX 6 8 0 -2
BITMAP
CC
4C
68
38
38
30
34
6C
ENDCHAR
STARTCHAR uni1EF6
ENCODING 7926
SWIDTH 525 0
DWIDTH 6 0
BBX 6 11 0 0
BITMAP
30
10
20
CC
4C
68
38
30
30
30
30
ENDCHAR
STARTCHAR uni1EF7
ENCODING 7927
SWIDTH 521 0
DWIDTH 6 0
BBX 6 11 0 -2
BITMAP
30
10
20
CC
4C
68
38
38
30
30
60
ENDCHAR
STARTCHAR uni1EF8
ENCODING 7928
SWIDTH 525 0
DWIDTH 6 0
BBX 6 11 0 0
BITMAP
08
7C
40
CC
4C
68
38
30
30
30
30
ENDCHAR
STARTCHAR uni1EF9
ENCODING 7929
SWIDTH 521 0
DWIDTH 6 0
BBX 6 11 0 -2
BITMAP
78
50
00
CC
4C
68
38
38
30
30
60
ENDCHAR
STARTCHAR uni1F00
ENCODING 7936
SWIDTH 595 0
DWIDTH 7 0
BBX 7 9 0 0
BITMAP
30
18
10
36
6C
CC
CC
6C
76
ENDCHAR
STARTCHAR uni1F01
ENCODING 7937
SWIDTH 595 0
DWIDTH 7 0
BBX 7 9 0 0
BITMAP
18
30
10
36
6C
CC
CC
6C
76
ENDCHAR
STARTCHAR uni1F02
ENCODING 7938
SWIDTH 595 0
DWIDTH 7 0
BBX 7 10 0 0
BITMAP
08
78
28
40
36
6C
CC
CC
6C
76
ENDCHAR
STARTCHAR uni1F03
ENCODING 7939
SWIDTH 595 0
DWIDTH 7 0
BBX 7 10 0 0
BITMAP
08
78
48
20
36
6C
CC
CC
6C
76
ENDCHAR
STARTCHAR uni1F04
ENCODING 7940
SWIDTH 595 0
DWIDTH 7 0
BBX 7 10 0 0
BITMAP
10
68
28
40
36
6C
CC
CC
6C
76
ENDCHAR
STARTCHAR uni1F05
ENCODING 7941
SWIDTH 595 0
DWIDTH 7 0
BBX 7 10 0 0
BITMAP
10
28
48
20
36
6C
CC
CC
6C
76
ENDCHAR
STARTCHAR uni1F06
ENCODING 7942
SWIDTH 595 0
DWIDTH 7 0
BBX 7 10 0 0
BITMAP
38
10
18
00
36
6C
CC
CC
6C
76
ENDCHAR
STARTCHAR uni1F07
ENCODING 7943
SWIDTH 595 0
DWIDTH 7 0
BBX 7 10 0 0
BITMAP
38
10
10
00
36
6C
CC
CC
6C
76
ENDCHAR
STARTCHAR uni1F08
ENCODING 7944
SWIDTH 655 0
DWIDTH 8 0
BBX 8 8 0 0
BITMAP
DC
5C
D4
36
36
3E
62
63
ENDCHAR
STARTCHAR uni1F09
ENCODING 7945
SWIDTH 639 0
DWIDTH 8 0
BBX 8 8 0 0
BITMAP
D8
9C
FC
34
26
7E
62
63
ENDCHAR
STARTCHAR uni1F0A
ENCODING 7946
SWIDTH 822 0
DWIDTH 10 0
BBX 10 8 0 0
BITMAP
F700
5700
8500
0D80
0D80
0F80
1880
18C0
ENDCHAR
STARTCHAR uni1F0B
ENCODING 7947
SWIDTH 821 0
DWIDTH 10 0
BBX 10 8 0 0
BITMAP
F700
9700
8500
0D80
0D80
0F80
1880
18C0
ENDCHAR
STARTCHAR uni1F0C
ENCODING 7948
SWIDTH 812 0
DWIDTH 10 0
BBX 10 8 0 0
BITMAP
D700
7700
AD00
0D00
0D80
0F80
1880
18C0
ENDCHAR
STARTCHAR uni1F0D
ENCODING 7949
SWIDTH 811 0
DWIDTH 10 0
BBX 10 8 0 0
BITMAP
F700
B700
AD00
0D00
0D80
0F80
1880
18C0
ENDCHAR
STARTCHAR uni1F0E
ENCODING 7950
SWIDTH 679 0
DWIDTH 8 0
BBX 8 8 0 0
BITMAP
FC
DC
56
16
36
3E
23
63
ENDCHAR
STARTCHAR uni1F0F
ENCODING 7951
SWIDTH 679 0
DWIDTH 8 0
BBX 8 8 0 0
BITMAP
FC
5C
D6
16
36
3E
23
63
ENDCHAR
STARTCHAR uni1F10
ENCODING 7952
SWIDTH 471 0
DWIDTH 6 0
BBX 5 9 0 0
BITMAP
30
10
20
78
40
70
C0
C0
78
ENDCHAR
STARTCHAR uni1F11
ENCODING 7953
SWIDTH 471 0
DWIDTH 6 0
BBX 5 9 0 0
BITMAP
30
20
10
78
40
70
C0
C0
78
ENDCHAR
STARTCHAR uni1F12
ENCODING 7954
SWIDTH 471 0
DWIDTH 6 0
BBX 5 10 0 0
BITMAP
08
58
28
C0
78
40
70
C0
C0
78
ENDCHAR
STARTCHAR uni1F13
ENCODING 7955
SWIDTH 471 0
DWIDTH 6 0
BBX 5 10 0 0
BITMAP
08
78
48
40
78
40
70
C0
C0
78
ENDCHAR
STARTCHAR uni1F14
ENCODING 7956
SWIDTH 471 0
DWIDTH 6 0
BBX 5 10 0 0
BITMAP
10
58
30
C0
78
40
70
C0
C0
78
ENDCHAR
STARTCHAR uni1F15
ENCODING 7957
SWIDTH 471 0
DWIDTH 6 0
BBX 5 10 0 0
BITMAP
10
78
50
40
78
40
70
C0
C0
78
ENDCHAR
STARTCHAR uni1F18
ENCODING 7960
SWIDTH 711 0
DWIDTH 9 0
BBX 8 8 0 0
BITMAP
DF
5F
D8
18
1E
18
1F
1F
ENDCHAR
STARTCHAR uni1F19
ENCODING 7961
SWIDTH 711 0
DWIDTH 9 0
BBX 8 8 0 0
BITMAP
DF
9F
D8
18
1E
18
1F
1F
ENDCHAR
STARTCHAR uni1F1A
ENCODING 7962
SWIDTH 874 0
DWIDTH 10 0
BBX 10 8 0 0
BITMAP
F7C0
57C0
8600
0600
0780
0600
07C0
07C0
ENDCHAR
STARTCHAR uni1F1B
ENCODING 7963
SWIDTH 873 0
DWIDTH 10 0
BBX 10 8 0 0
BITMAP
F7C0
97C0
8600
0600
0780
0600
07C0
07C0
ENDCHAR
STARTCHAR uni1F1C
ENCODING 7964
SWIDTH 864 0
DWIDTH 10 0
BBX 10 8 0 0
BITMAP
D7C0
77C0
A400
0400
0780
0400
07C0
07C0
ENDCHAR
STARTCHAR uni1F1D
ENCODING 7965
SWIDTH 863 0
DWIDTH 10 0
BBX 10 8 0 0
BITMAP
F7C0
B7C0
A400
0400
0780
0400
07C0
07C0
ENDCHAR
STARTCHAR uni1F20
ENCODING 7968
SWIDTH 562 0
DWIDTH 7 0
BBX 5 11 1 -2
BITMAP
20
10
20
B8
D8
D8
D8
D8
D8
18
18
ENDCHAR
STARTCHAR uni1F21
ENCODING 7969
SWIDTH 562 0
DWIDTH 7 0
BBX 5 11 1 -2
BITMAP
30
20
20
B8
D8
D8
D8
D8
D8
18
18
ENDCHAR
STARTCHAR uni1F22
ENCODING 7970
SWIDTH 562 0
DWIDTH 7 0
BBX 5 12 1 -2
BITMAP
10
D0
50
80
B8
D8
D8
D8
D8
D8
18
18
ENDCHAR
STARTCHAR uni1F23
ENCODING 7971
SWIDTH 562 0
DWIDTH 7 0
BBX 5 12 1 -2
BITMAP
10
50
D0
40
B8
D8
D8
D8
D8
D8
18
18
ENDCHAR
STARTCHAR uni1F24
ENCODING 7972
SWIDTH 562 0
DWIDTH 7 0
BBX 5 12 1 -2
BITMAP
20
D8
50
80
B8
D8
D8
D8
D8
D8
18
18
ENDCHAR
STARTCHAR uni1F25
ENCODING 7973
SWIDTH 562 0
DWIDTH 7 0
BBX 5 12 1 -2
BITMAP
20
58
D0
40
B8
D8
D8
D8
D8
D8
18
18
ENDCHAR
STARTCHAR uni1F26
ENCODING 7974
SWIDTH 562 0
DWIDTH 7 0
BBX 5 12 1 -2
BITMAP
78
20
30
00
B8
D8
D8
D8
D8
D8
18
18
ENDCHAR
STARTCHAR uni1F27
ENCODING 7975
SWIDTH 562 0
DWIDTH 7 0
BBX 5 12 1 -2
BITMAP
78
30
20
00
B8
D8
D8
D8
D8
D8
18
18
ENDCHAR
STARTCHAR uni1F28
ENCODING 7976
SWIDTH 836 0
DWIDTH 10 0
BBX 9 8 0 0
BITMAP
D980
5980
D980
1F80
1F80
1980
1980
1980
ENDCHAR
STARTCHAR uni1F29
ENCODING 7977
SWIDTH 836 0
DWIDTH 10 0
BBX 9 8 0 0
BITMAP
D980
9980
D980
1F80
1F80
1980
1980
1980
ENDCHAR
STARTCHAR uni1F2A
ENCODING 7978
SWIDTH 999 0
DWIDTH 12 0
BBX 11 8 0 0
BITMAP
F660
5660
8660
07E0
07E0
0660
0660
0660
ENDCHAR
STARTCHAR uni1F2B
ENCODING 7979
SWIDTH 998 0
DWIDTH 12 0
BBX 11 8 0 0
BITMAP
F660
9660
8660
07E0
07E0
0660
0660
0660
ENDCHAR
STARTCHAR uni1F2C
ENCODING 7980
SWIDTH 990 0
DWIDTH 12 0
BBX 11 8 0 0
BITMAP
D460
7460
A460
07E0
07E0
0460
0460
0460
ENDCHAR
STARTCHAR uni1F2D
ENCODING 7981
SWIDTH 988 0
DWIDTH 12 0
BBX 11 8 0 0
BITMAP
F460
B460
A460
07E0
07E0
0460
0460
0460
ENDCHAR
STARTCHAR uni1F2E
ENCODING 7982
SWIDTH 896 0
DWIDTH 11 0
BBX 10 8 0 0
BITMAP
E8C0
C8C0
48C0
0FC0
0FC0
08C0
08C0
08C0
ENDCHAR
STARTCHAR uni1F2F
ENCODING 7983
SWIDTH 896 0
DWIDTH 11 0
BBX 10 8 0 0
BITMAP
E8C0
48C0
C8C0
0FC0
0FC0
08C0
08C0
08C0
ENDCHAR
STARTCHAR uni1F30
ENCODING 7984
SWIDTH 301 0
DWIDTH 4 0
BBX 3 9 1 0
BITMAP
80
40
80
C0
C0
80
80
80
E0
ENDCHAR
STARTCHAR uni1F31
ENCODING 7985
SWIDTH 301 0
DWIDTH 4 0
BBX 4 9 0 0
BITMAP
60
C0
40
60
60
40
40
40
70
ENDCHAR
STARTCHAR uni1F32
ENCODING 7986
SWIDTH 301 0
DWIDTH 4 0
BBX 5 10 -1 0
BITMAP
10
D0
50
80
30
30
20
20
20
38
ENDCHAR
STARTCHAR uni1F33
ENCODING 7987
SWIDTH 301 0
DWIDTH 4 0
BBX 5 10 -1 0
BITMAP
10
50
90
40
30
30
20
20
20
38
ENDCHAR
STARTCHAR uni1F34
ENCODING 7988
SWIDTH 301 0
DWIDTH 4 0
BBX 5 10 -1 0
BITMAP
20
D8
50
80
30
30
20
20
20
38
ENDCHAR
STARTCHAR uni1F35
ENCODING 7989
SWIDTH 301 0
DWIDTH 4 0
BBX 5 10 -1 0
BITMAP
20
58
D0
40
30
30
20
20
20
38
ENDCHAR
STARTCHAR uni1F36
ENCODING 7990
SWIDTH 301 0
DWIDTH 4 0
BBX 4 10 0 0
BITMAP
F0
40
60
00
60
60
40
40
40
70
ENDCHAR
STARTCHAR uni1F37
ENCODING 7991
SWIDTH 301 0
DWIDTH 4 0
BBX 4 10 0 0
BITMAP
F0
60
40
00
60
60
40
40
40
70
ENDCHAR
STARTCHAR uni1F38
ENCODING 7992
SWIDTH 464 0
DWIDTH 6 0
BBX 5 8 0 0
BITMAP
D8
58
D8
18
18
18
18
18
ENDCHAR
STARTCHAR uni1F39
ENCODING 7993
SWIDTH 464 0
DWIDTH 6 0
BBX 5 8 0 0
BITMAP
D8
98
D8
18
18
18
18
18
ENDCHAR
STARTCHAR uni1F3A
ENCODING 7994
SWIDTH 627 0
DWIDTH 8 0
BBX 7 8 0 0
BITMAP
F6
56
86
06
06
06
06
06
ENDCHAR
STARTCHAR uni1F3B
ENCODING 7995
SWIDTH 626 0
DWIDTH 8 0
BBX 7 8 0 0
BITMAP
F6
96
86
06
06
06
06
06
ENDCHAR
STARTCHAR uni1F3C
ENCODING 7996
SWIDTH 617 0
DWIDTH 7 0
BBX 6 8 0 0
BITMAP
D4
74
A4
04
04
04
04
04
ENDCHAR
STARTCHAR uni1F3D
ENCODING 7997
SWIDTH 616 0
DWIDTH 7 0
BBX 6 8 0 0
BITMAP
F4
B4
A4
04
04
04
04
04
ENDCHAR
STARTCHAR uni1F3E
ENCODING 7998
SWIDTH 524 0
DWIDTH 6 0
BBX 5 8 0 0
BITMAP
E8
C8
48
08
08
08
08
08
ENDCHAR
STARTCHAR uni1F3F
ENCODING 7999
SWIDTH 524 0
DWIDTH 6 0
BBX 5 8 0 0
BITMAP
E8
48
C8
08
08
08
08
08
ENDCHAR
STARTCHAR uni1F40
ENCODING 8000
SWIDTH 553 0
DWIDTH 7 0
BBX 6 9 0 0
BITMAP
30
18
20
38
6C
CC
CC
6C
38
ENDCHAR
STARTCHAR uni1F41
ENCODING 8001
SWIDTH 553 0
DWIDTH 7 0
BBX 6 9 0 0
BITMAP
10
20
10
38
6C
CC
CC
6C
38
ENDCHAR
STARTCHAR uni1F42
ENCODING 8002
SWIDTH 553 0
DWIDTH 7 0
BBX 6 10 0 0
BITMAP
08
78
28
40
38
6C
CC
CC
6C
38
ENDCHAR
STARTCHAR uni1F43
ENCODING 8003
SWIDTH 553 0
DWIDTH 7 0
BBX 6 10 0 0
BITMAP
08
78
48
60
38
6C
CC
CC
6C
38
ENDCHAR
STARTCHAR uni1F44
ENCODING 8004
SWIDTH 553 0
DWIDTH 7 0
BBX 6 10 0 0
BITMAP
10
68
28
50
38
6C
CC
CC
6C
38
ENDCHAR
STARTCHAR uni1F45
ENCODING 8005
SWIDTH 553 0
DWIDTH 7 0
BBX 6 10 0 0
BITMAP
10
68
48
30
38
6C
CC
CC
6C
38
ENDCHAR
STARTCHAR uni1F48
ENCODING 8008
SWIDTH 827 0
DWIDTH 10 0
BBX 9 8 0 0
BITMAP
CF00
5F80
F980
3080
3080
3980
1F80
0F00
ENDCHAR
STARTCHAR uni1F49
ENCODING 8009
SWIDTH 808 0
DWIDTH 10 0
BBX 9 8 0 0
BITMAP
CE00
9F80
F180
3180
3180
3180
1F00
0E00
ENDCHAR
STARTCHAR uni1F4A
ENCODING 8010
SWIDTH 984 0
DWIDTH 12 0
BBX 11 8 0 0
BITMAP
F3C0
57E0
8E60
0C20
0C20
0660
07E0
03C0
ENDCHAR
STARTCHAR uni1F4B
ENCODING 8011
SWIDTH 996 0
DWIDTH 12 0
BBX 11 8 0 0
BITMAP
F3C0
97E0
8E60
0C20
0C20
0660
07E0
03C0
ENDCHAR
STARTCHAR uni1F4C
ENCODING 8012
SWIDTH 974 0
DWIDTH 12 0
BBX 11 8 0 0
BITMAP
D380
77C0
AC60
0C60
0C60
0C60
07C0
0380
ENDCHAR
STARTCHAR uni1F4D
ENCODING 8013
SWIDTH 973 0
DWIDTH 12 0
BBX 11 8 0 0
BITMAP
F380
B7C0
AC60
0C60
0C60
0C60
07C0
0380
ENDCHAR
STARTCHAR uni1F50
ENCODING 8016
SWIDTH 532 0
DWIDTH 6 0
BBX 5 9 1 0
BITMAP
60
20
40
98
98
98
98
98
F0
ENDCHAR
STARTCHAR uni1F51
ENCODING 8017
SWIDTH 532 0
DWIDTH 6 0
BBX 5 9 1 0
BITMAP
60
40
20
98
98
98
98
98
F0
ENDCHAR
STARTCHAR uni1F52
ENCODING 8018
SWIDTH 532 0
DWIDTH 6 0
BBX 5 10 1 0
BITMAP
10
F0
50
80
98
98
98
98
98
F0
ENDCHAR
STARTCHAR uni1F53
ENCODING 8019
SWIDTH 532 0
DWIDTH 6 0
BBX 5 10 1 0
BITMAP
10
F0
90
80
98
98
98
98
98
F0
ENDCHAR
STARTCHAR uni1F54
ENCODING 8020
SWIDTH 532 0
DWIDTH 6 0
BBX 5 10 1 0
BITMAP
20
D0
70
80
98
98
98
98
98
F0
ENDCHAR
STARTCHAR uni1F55
ENCODING 8021
SWIDTH 532 0
DWIDTH 6 0
BBX 5 10 1 0
BITMAP
20
F0
A0
C0
98
98
98
98
98
F0
ENDCHAR
STARTCHAR uni1F56
ENCODING 8022
SWIDTH 532 0
DWIDTH 6 0
BBX 5 10 1 0
BITMAP
F0
60
20
00
98
98
98
98
98
F0
ENDCHAR
STARTCHAR uni1F57
ENCODING 8023
SWIDTH 532 0
DWIDTH 6 0
BBX 5 10 1 0
BITMAP
F0
60
60
00
98
98
98
98
98
F0
ENDCHAR
STARTCHAR uni1F59
ENCODING 8025
SWIDTH 731 0
DWIDTH 9 0
BBX 9 8 0 0
BITMAP
F180
9B00
CB00
0E00
0E00
0600
0600
0600
ENDCHAR
STARTCHAR uni1F5B
ENCODING 8027
SWIDTH 910 0
DWIDTH 11 0
BBX 11 8 0 0
BITMAP
F660
9640
82C0
0380
0180
0180
0180
0180
ENDCHAR
STARTCHAR uni1F5D
ENCODING 8029
SWIDTH 900 0
DWIDTH 11 0
BBX 11 8 0 0
BITMAP
FC60
B6C0
A2C0
0380
0380
0180
0180
0180
ENDCHAR
STARTCHAR uni1F5F
ENCODING 8031
SWIDTH 794 0
DWIDTH 10 0
BBX 10 8 0 0
BITMAP
F8C0
4D80
CD00
0700
0700
0600
0600
0600
ENDCHAR
STARTCHAR uni1F60
ENCODING 8032
SWIDTH 746 0
DWIDTH 9 0
BBX 8 9 0 0
BITMAP
18
0C
08
43
63
49
C9
49
77
ENDCHAR
STARTCHAR uni1F61
ENCODING 8033
SWIDTH 746 0
DWIDTH 9 0
BBX 8 9 0 0
BITMAP
08
1C
08
43
63
49
C9
49
77
ENDCHAR
STARTCHAR uni1F62
ENCODING 8034
SWIDTH 746 0
DWIDTH 9 0
BBX 8 10 0 0
BITMAP
04
3C
14
20
43
63
49
C9
49
77
ENDCHAR
STARTCHAR uni1F63
ENCODING 8035
SWIDTH 746 0
DWIDTH 9 0
BBX 8 10 0 0
BITMAP
04
3C
24
10
43
63
49
C9
49
77
ENDCHAR
STARTCHAR uni1F64
ENCODING 8036
SWIDTH 746 0
DWIDTH 9 0
BBX 8 10 0 0
BITMAP
08
34
14
20
43
63
49
C9
49
77
ENDCHAR
STARTCHAR uni1F65
ENCODING 8037
SWIDTH 746 0
DWIDTH 9 0
BBX 8 10 0 0
BITMAP
08
14
24
10
43
63
49
C9
49
77
ENDCHAR
STARTCHAR uni1F66
ENCODING 8038
SWIDTH 746 0
DWIDTH 9 0
BBX 8 10 0 0
BITMAP
1C
08
08
00
43
63
49
C9
49
77
ENDCHAR
STARTCHAR uni1F67
ENCODING 8039
SWIDTH 746 0
DWIDTH 9 0
BBX 8 10 0 0
BITMAP
1C
08
18
00
43
63
49
C9
49
77
ENDCHAR
STARTCHAR uni1F68
ENCODING 8040
SWIDTH 853 0
DWIDTH 10 0
BBX 10 8 0 0
BITMAP
CF00
5F80
D980
30C0
1080
1980
3BC0
3BC0
ENDCHAR
STARTCHAR uni1F69
ENCODING 8041
SWIDTH 835 0
DWIDTH 10 0
BBX 9 8 0 0
BITMAP
CF00
9F80
F180
3180
3180
1980
3B80
3B80
ENDCHAR
STARTCHAR uni1F6A
ENCODING 8042
SWIDTH 1018 0
DWIDTH 12 0
BBX 12 8 0 0
BITMAP
F3C0
57E0
8660
0C30
0420
0660
0EF0
0EF0
ENDCHAR
STARTCHAR uni1F6B
ENCODING 8043
SWIDTH 1017 0
DWIDTH 12 0
BBX 12 8 0 0
BITMAP
F3C0
97E0
8660
0C30
0420
0660
0EF0
0EF0
ENDCHAR
STARTCHAR uni1F6C
ENCODING 8044
SWIDTH 1008 0
DWIDTH 12 0
BBX 12 8 0 0
BITMAP
D3C0
77E0
AE60
0C20
0C20
0660
0EF0
0EF0
ENDCHAR
STARTCHAR uni1F6D
ENCODING 8045
SWIDTH 1007 0
DWIDTH 12 0
BBX 12 8 0 0
BITMAP
F3C0
B7E0
AE60
0C20
0C60
0660
0EF0
0EF0
ENDCHAR
STARTCHAR uni1F6E
ENCODING 8046
SWIDTH 877 0
DWIDTH 11 0
BBX 10 8 0 0
BITMAP
EF00
DF80
58C0
18C0
18C0
1980
1DC0
1DC0
ENDCHAR
STARTCHAR uni1F6F
ENCODING 8047
SWIDTH 877 0
DWIDTH 11 0
BBX 10 8 0 0
BITMAP
EF00
5F80
D8C0
18C0
18C0
1980
1DC0
1DC0
ENDCHAR
STARTCHAR uni1F70
ENCODING 8048
SWIDTH 595 0
DWIDTH 7 0
BBX 7 10 0 0
BITMAP
20
70
10
00
36
6C
CC
CC
6C
76
ENDCHAR
STARTCHAR uni1F71
ENCODING 8049
SWIDTH 595 0
DWIDTH 7 0
BBX 7 10 0 0
BITMAP
08
1C
10
00
36
6C
CC
CC
6C
76
ENDCHAR
STARTCHAR uni1F72
ENCODING 8050
SWIDTH 471 0
DWIDTH 6 0
BBX 5 10 0 0
BITMAP
40
60
30
00
78
40
70
C0
C0
78
ENDCHAR
STARTCHAR uni1F73
ENCODING 8051
SWIDTH 471 0
DWIDTH 6 0
BBX 5 10 0 0
BITMAP
08
18
30
00
78
40
70
C0
C0
78
ENDCHAR
STARTCHAR uni1F74
ENCODING 8052
SWIDTH 562 0
DWIDTH 7 0
BBX 5 12 1 -2
BITMAP
40
E0
20
00
B8
D8
D8
D8
D8
D8
18
18
ENDCHAR
STARTCHAR uni1F75
ENCODING 8053
SWIDTH 562 0
DWIDTH 7 0
BBX 5 12 1 -2
BITMAP
10
38
20
00
B8
D8
D8
D8
D8
D8
18
18
ENDCHAR
STARTCHAR uni1F76
ENCODING 8054
SWIDTH 301 0
DWIDTH 4 0
BBX 5 10 -1 0
BITMAP
40
E0
20
00
30
30
20
20
20
38
ENDCHAR
STARTCHAR uni1F77
ENCODING 8055
SWIDTH 301 0
DWIDTH 4 0
BBX 3 10 1 0
BITMAP
40
E0
80
00
C0
C0
80
80
80
E0
ENDCHAR
STARTCHAR uni1F78
ENCODING 8056
SWIDTH 553 0
DWIDTH 7 0
BBX 6 10 0 0
BITMAP
20
70
10
00
38
6C
CC
CC
6C
38
ENDCHAR
STARTCHAR uni1F79
ENCODING 8057
SWIDTH 553 0
DWIDTH 7 0
BBX 6 10 0 0
BITMAP
08
1C
10
00
38
6C
CC
CC
6C
38
ENDCHAR
STARTCHAR uni1F7A
ENCODING 8058
SWIDTH 532 0
DWIDTH 6 0
BBX 5 10 1 0
BITMAP
80
C0
60
00
98
98
98
98
98
F0
ENDCHAR
STARTCHAR uni1F7B
ENCODING 8059
SWIDTH 532 0
DWIDTH 6 0
BBX 5 10 1 0
BITMAP
10
30
60
00
98
98
98
98
98
F0
ENDCHAR
STARTCHAR uni1F7C
ENCODING 8060
SWIDTH 746 0
DWIDTH 9 0
BBX 8 10 0 0
BITMAP
10
38
08
00
43
63
49
C9
49
77
ENDCHAR
STARTCHAR uni1F7D
ENCODING 8061
SWIDTH 746 0
DWIDTH 9 0
BBX 8 10 0 0
BITMAP
04
0E
08
00
43
63
49
C9
49
77
ENDCHAR
STARTCHAR uni1F80
ENCODING 8064
SWIDTH 595 0
DWIDTH 7 0
BBX 7 11 0 -2
BITMAP
30
18
10
36
6C
CC
CC
6C
76
10
18
ENDCHAR
STARTCHAR uni1F81
ENCODING 8065
SWIDTH 595 0
DWIDTH 7 0
BBX 7 11 0 -2
BITMAP
18
30
10
36
6C
CC
CC
6C
76
10
18
ENDCHAR
STARTCHAR uni1F82
ENCODING 8066
SWIDTH 595 0
DWIDTH 7 0
BBX 7 12 0 -2
BITMAP
08
78
28
40
36
6C
CC
CC
6C
76
10
18
ENDCHAR
STARTCHAR uni1F83
ENCODING 8067
SWIDTH 595 0
DWIDTH 7 0
BBX 7 12 0 -2
BITMAP
08
78
48
20
36
6C
CC
CC
6C
76
10
18
ENDCHAR
STARTCHAR uni1F84
ENCODING 8068
SWIDTH 595 0
DWIDTH 7 0
BBX 7 12 0 -2
BITMAP
10
68
28
40
36
6C
CC
CC
6C
76
10
18
ENDCHAR
STARTCHAR uni1F85
ENCODING 8069
SWIDTH 595 0
DWIDTH 7 0
BBX 7 12 0 -2
BITMAP
10
28
48
20
36
6C
CC
CC
6C
76
10
18
ENDCHAR
STARTCHAR uni1F86
ENCODING 8070
SWIDTH 595 0
DWIDTH 7 0
BBX 7 12 0 -2
BITMAP
38
10
18
00
36
6C
CC
CC
6C
76
10
18
ENDCHAR
STARTCHAR uni1F87
ENCODING 8071
SWIDTH 595 0
DWIDTH 7 0
BBX 7 12 0 -2
BITMAP
38
10
10
00
36
6C
CC
CC
6C
76
10
18
ENDCHAR
STARTCHAR uni1F88
ENCODING 8072
SWIDTH 949 0
DWIDTH 11 0
BBX 11 8 0 0
BITMAP
DC00
5C00
D400
3640
3640
3E40
6240
6360
ENDCHAR
STARTCHAR uni1F89
ENCODING 8073
SWIDTH 933 0
DWIDTH 11 0
BBX 11 8 0 0
BITMAP
D800
9C00
FC00
34C0
26C0
7EC0
62C0
6360
ENDCHAR
STARTCHAR uni1F8A
ENCODING 8074
SWIDTH 1116 0
DWIDTH 13 0
BBX 13 8 0 0
BITMAP
F700
5700
8500
0D90
0D90
0F90
1890
18D8
ENDCHAR
STARTCHAR uni1F8B
ENCODING 8075
SWIDTH 1115 0
DWIDTH 13 0
BBX 13 8 0 0
BITMAP
F700
9700
8500
0D90
0D90
0F90
1890
18D8
ENDCHAR
STARTCHAR uni1F8C
ENCODING 8076
SWIDTH 1106 0
DWIDTH 13 0
BBX 13 8 0 0
BITMAP
D700
7700
AD00
0D30
0DB0
0FB0
1890
18D8
ENDCHAR
STARTCHAR uni1F8D
ENCODING 8077
SWIDTH 1105 0
DWIDTH 13 0
BBX 13 8 0 0
BITMAP
F700
B700
AD00
0D30
0DB0
0FB0
1890
18D8
ENDCHAR
STARTCHAR uni1F8E
ENCODING 8078
SWIDTH 973 0
DWIDTH 12 0
BBX 12 8 0 0
BITMAP
FC00
DC00
5600
1660
3660
3E60
2360
6370
ENDCHAR
STARTCHAR uni1F8F
ENCODING 8079
SWIDTH 973 0
DWIDTH 12 0
BBX 12 8 0 0
BITMAP
FC00
5C00
D600
1660
3660
3E60
2360
6370
ENDCHAR
STARTCHAR uni1F90
ENCODING 8080
SWIDTH 562 0
DWIDTH 7 0
BBX 5 11 1 -2
BITMAP
20
10
20
B8
D8
D8
D8
D8
D8
98
D8
ENDCHAR
STARTCHAR uni1F91
ENCODING 8081
SWIDTH 562 0
DWIDTH 7 0
BBX 5 11 1 -2
BITMAP
30
20
20
B8
D8
D8
D8
D8
D8
98
D8
ENDCHAR
STARTCHAR uni1F92
ENCODING 8082
SWIDTH 562 0
DWIDTH 7 0
BBX 5 12 1 -2
BITMAP
10
D0
50
80
B8
D8
D8
D8
D8
D8
98
D8
ENDCHAR
STARTCHAR uni1F93
ENCODING 8083
SWIDTH 562 0
DWIDTH 7 0
BBX 5 12 1 -2
BITMAP
10
50
D0
40
B8
D8
D8
D8
D8
D8
98
D8
ENDCHAR
STARTCHAR uni1F94
ENCODING 8084
SWIDTH 562 0
DWIDTH 7 0
BBX 5 12 1 -2
BITMAP
20
D8
50
80
B8
D8
D8
D8
D8
D8
98
D8
ENDCHAR
STARTCHAR uni1F95
ENCODING 8085
SWIDTH 562 0
DWIDTH 7 0
BBX 5 12 1 -2
BITMAP
20
58
D0
40
B8
D8
D8
D8
D8
D8
98
D8
ENDCHAR
STARTCHAR uni1F96
ENCODING 8086
SWIDTH 562 0
DWIDTH 7 0
BBX 5 12 1 -2
BITMAP
78
20
30
00
B8
D8
D8
D8
D8
D8
98
D8
ENDCHAR
STARTCHAR uni1F97
ENCODING 8087
SWIDTH 562 0
DWIDTH 7 0
BBX 5 12 1 -2
BITMAP
78
30
20
00
B8
D8
D8
D8
D8
D8
98
D8
ENDCHAR
STARTCHAR uni1F98
ENCODING 8088
SWIDTH 1131 0
DWIDTH 14 0
BBX 14 8 0 0
BITMAP
D980
5980
D980
1F98
1F90
1990
1990
199C
ENDCHAR
STARTCHAR uni1F99
ENCODING 8089
SWIDTH 1131 0
DWIDTH 14 0
BBX 14 8 0 0
BITMAP
D980
9980
D980
1F98
1F90
1990
1990
199C
ENDCHAR
STARTCHAR uni1F9A
ENCODING 8090
SWIDTH 1294 0
DWIDTH 16 0
BBX 16 8 0 0
BITMAP
F660
5660
8660
07E6
07E4
0664
0664
0667
ENDCHAR
STARTCHAR uni1F9B
ENCODING 8091
SWIDTH 1293 0
DWIDTH 16 0
BBX 15 8 0 0
BITMAP
F660
9660
8660
07E4
07E4
0664
0664
0666
ENDCHAR
STARTCHAR uni1F9C
ENCODING 8092
SWIDTH 1284 0
DWIDTH 15 0
BBX 15 8 0 0
BITMAP
D460
7460
A460
07E4
07E4
0464
0464
0466
ENDCHAR
STARTCHAR uni1F9D
ENCODING 8093
SWIDTH 1283 0
DWIDTH 15 0
BBX 15 8 0 0
BITMAP
F460
B460
A460
07E4
07E4
0464
0464
0466
ENDCHAR
STARTCHAR uni1F9E
ENCODING 8094
SWIDTH 1190 0
DWIDTH 14 0
BBX 14 8 0 0
BITMAP
E8C0
C8C0
48C0
0FD8
0FD8
08D8
08C8
08CC
ENDCHAR
STARTCHAR uni1F9F
ENCODING 8095
SWIDTH 1190 0
DWIDTH 14 0
BBX 14 8 0 0
BITMAP
E8C0
48C0
C8C0
0FD8
0FD8
08D8
08C8
08CC
ENDCHAR
STARTCHAR uni1FA0
ENCODING 8096
SWIDTH 746 0
DWIDTH 9 0
BBX 8 11 0 -2
BITMAP
18
0C
08
43
63
49
C9
49
77
08
0C
ENDCHAR
STARTCHAR uni1FA1
ENCODING 8097
SWIDTH 746 0
DWIDTH 9 0
BBX 8 11 0 -2
BITMAP
08
1C
08
43
63
49
C9
49
77
08
0C
ENDCHAR
STARTCHAR uni1FA2
ENCODING 8098
SWIDTH 746 0
DWIDTH 9 0
BBX 8 12 0 -2
BITMAP
04
3C
14
20
43
63
49
C9
49
77
08
0C
ENDCHAR
STARTCHAR uni1FA3
ENCODING 8099
SWIDTH 746 0
DWIDTH 9 0
BBX 8 12 0 -2
BITMAP
04
3C
24
10
43
63
49
C9
49
77
08
0C
ENDCHAR
STARTCHAR uni1FA4
ENCODING 8100
SWIDTH 746 0
DWIDTH 9 0
BBX 8 12 0 -2
BITMAP
08
34
14
20
43
63
49
C9
49
77
08
0C
ENDCHAR
STARTCHAR uni1FA5
ENCODING 8101
SWIDTH 746 0
DWIDTH 9 0
BBX 8 12 0 -2
BITMAP
08
14
24
10
43
63
49
C9
49
77
08
0C
ENDCHAR
STARTCHAR uni1FA6
ENCODING 8102
SWIDTH 746 0
DWIDTH 9 0
BBX 8 12 0 -2
BITMAP
1C
08
08
00
43
63
49
C9
49
77
08
0C
ENDCHAR
STARTCHAR uni1FA7
ENCODING 8103
SWIDTH 746 0
DWIDTH 9 0
BBX 8 12 0 -2
BITMAP
1C
08
18
00
43
63
49
C9
49
77
08
0C
ENDCHAR
STARTCHAR uni1FA8
ENCODING 8104
SWIDTH 1147 0
DWIDTH 14 0
BBX 14 8 0 0
BITMAP
CF00
5F80
D980
30D8
1098
1998
3BD8
3BDC
ENDCHAR
STARTCHAR uni1FA9
ENCODING 8105
SWIDTH 1129 0
DWIDTH 14 0
BBX 14 8 0 0
BITMAP
CF00
9F80
F180
3198
3190
1990
3B90
3B9C
ENDCHAR
STARTCHAR uni1FAA
ENCODING 8106
SWIDTH 1313 0
DWIDTH 16 0
BBX 16 8 0 0
BITMAP
F3C0
57E0
8660
0C36
0426
0666
0EF6
0EF7
ENDCHAR
STARTCHAR uni1FAB
ENCODING 8107
SWIDTH 1311 0
DWIDTH 16 0
BBX 16 8 0 0
BITMAP
F3C0
97E0
8660
0C36
0426
0666
0EF6
0EF7
ENDCHAR
STARTCHAR uni1FAC
ENCODING 8108
SWIDTH 1303 0
DWIDTH 16 0
BBX 16 8 0 0
BITMAP
D3C0
77E0
AE60
0C26
0C26
0664
0EF4
0EF7
ENDCHAR
STARTCHAR uni1FAD
ENCODING 8109
SWIDTH 1302 0
DWIDTH 16 0
BBX 16 8 0 0
BITMAP
F3C0
B7E0
AE60
0C26
0C66
0664
0EF4
0EF7
ENDCHAR
STARTCHAR uni1FAE
ENCODING 8110
SWIDTH 1172 0
DWIDTH 14 0
BBX 14 8 0 0
BITMAP
EF00
DF80
58C0
18D8
18D8
1998
1DD8
1DCC
ENDCHAR
STARTCHAR uni1FAF
ENCODING 8111
SWIDTH 1172 0
DWIDTH 14 0
BBX 14 8 0 0
BITMAP
EF00
5F80
D8C0
18D8
18D8
1998
1DD8
1DCC
ENDCHAR
STARTCHAR uni1FB0
ENCODING 8112
SWIDTH 595 0
DWIDTH 7 0
BBX 7 9 0 0
BITMAP
6C
38
00
36
6C
CC
CC
6C
76
ENDCHAR
STARTCHAR uni1FB1
ENCODING 8113
SWIDTH 595 0
DWIDTH 7 0
BBX 7 8 0 0
BITMAP
38
00
36
6C
CC
CC
6C
76
ENDCHAR
STARTCHAR uni1FB2
ENCODING 8114
SWIDTH 595 0
DWIDTH 7 0
BBX 7 12 0 -2
BITMAP
20
70
10
00
36
6C
CC
CC
6C
76
10
18
ENDCHAR
STARTCHAR uni1FB3
ENCODING 8115
SWIDTH 595 0
DWIDTH 7 0
BBX 7 8 0 -2
BITMAP
36
6C
CC
CC
6C
76
10
18
ENDCHAR
STARTCHAR uni1FB4
ENCODING 8116
SWIDTH 595 0
DWIDTH 7 0
BBX 7 12 0 -2
BITMAP
08
1C
10
00
36
6C
CC
CC
6C
76
10
18
ENDCHAR
STARTCHAR uni1FB6
ENCODING 8118
SWIDTH 595 0
DWIDTH 7 0
BBX 7 9 0 0
BITMAP
3C
48
00
36
6C
CC
CC
6C
76
ENDCHAR
STARTCHAR uni1FB7
ENCODING 8119
SWIDTH 595 0
DWIDTH 7 0
BBX 7 11 0 -2
BITMAP
3C
48
00
36
6C
CC
CC
6C
76
10
18
ENDCHAR
STARTCHAR uni1FB8
ENCODING 8120
SWIDTH 573 0
DWIDTH 7 0
BBX 7 10 0 0
BITMAP
68
38
38
38
28
6C
6C
7C
C4
C6
ENDCHAR
STARTCHAR uni1FB9
ENCODING 8121
SWIDTH 573 0
DWIDTH 7 0
BBX 7 10 0 0
BITMAP
38
00
38
38
28
6C
6C
7C
C4
C6
ENDCHAR
STARTCHAR uni1FBA
ENCODING 8122
SWIDTH 622 0
DWIDTH 7 0
BBX 8 8 0 0
BITMAP
98
DC
3C
3C
24
7E
66
43
ENDCHAR
STARTCHAR uni1FBB
ENCODING 8123
SWIDTH 622 0
DWIDTH 7 0
BBX 8 8 0 0
BITMAP
D8
9C
BC
3C
24
7E
66
43
ENDCHAR
STARTCHAR uni1FBC
ENCODING 8124
SWIDTH 867 0
DWIDTH 10 0
BBX 10 8 0 0
BITMAP
3800
3800
2800
6C80
6C80
7C80
C480
C6C0
ENDCHAR
STARTCHAR uni1FBD
ENCODING 8125
SWIDTH 555 0
DWIDTH 7 0
BBX 3 3 2 6
BITMAP
C0
60
80
ENDCHAR
STARTCHAR uni1FBE
ENCODING 8126
SWIDTH 301 0
DWIDTH 4 0
BBX 3 5 1 0
BITMAP
C0
80
80
80
E0
ENDCHAR
STARTCHAR uni1FBF
ENCODING 8127
SWIDTH 555 0
DWIDTH 7 0
BBX 3 3 2 6
BITMAP
C0
60
80
ENDCHAR
STARTCHAR uni1FC0
ENCODING 8128
SWIDTH 555 0
DWIDTH 7 0
BBX 5 2 1 7
BITMAP
F8
90
ENDCHAR
STARTCHAR uni1FC1
ENCODING 8129
SWIDTH 555 0
DWIDTH 7 0
BBX 4 3 1 7
BITMAP
50
B0
D0
ENDCHAR
STARTCHAR uni1FC2
ENCODING 8130
SWIDTH 562 0
DWIDTH 7 0
BBX 5 12 1 -2
BITMAP
40
E0
20
00
B8
D8
D8
D8
D8
D8
98
D8
ENDCHAR
STARTCHAR uni1FC3
ENCODING 8131
SWIDTH 562 0
DWIDTH 7 0
BBX 5 8 1 -2
BITMAP
B8
D8
D8
D8
D8
D8
98
D8
ENDCHAR
STARTCHAR uni1FC4
ENCODING 8132
SWIDTH 562 0
DWIDTH 7 0
BBX 5 12 1 -2
BITMAP
10
38
20
00
B8
D8
D8
D8
D8
D8
98
D8
ENDCHAR
STARTCHAR uni1FC6
ENCODING 8134
SWIDTH 562 0
DWIDTH 7 0
BBX 5 11 1 -2
BITMAP
68
D0
00
B8
D8
D8
D8
D8
D8
18
18
ENDCHAR
STARTCHAR uni1FC7
ENCODING 8135
SWIDTH 562 0
DWIDTH 7 0
BBX 5 11 1 -2
BITMAP
68
D0
00
B8
D8
D8
D8
D8
D8
98
D8
ENDCHAR
STARTCHAR uni1FC8
ENCODING 8136
SWIDTH 667 0
DWIDTH 8 0
BBX 7 8 0 0
BITMAP
BE
FE
30
30
3E
30
3E
3E
ENDCHAR
STARTCHAR uni1FC9
ENCODING 8137
SWIDTH 667 0
DWIDTH 8 0
BBX 7 8 0 0
BITMAP
FE
BE
B0
30
3E
30
3E
3E
ENDCHAR
STARTCHAR uni1FCA
ENCODING 8138
SWIDTH 792 0
DWIDTH 10 0
BBX 9 8 0 0
BITMAP
B180
F180
3180
3F80
3F80
3180
3180
3180
ENDCHAR
STARTCHAR uni1FCB
ENCODING 8139
SWIDTH 792 0
DWIDTH 10 0
BBX 9 8 0 0
BITMAP
F180
B180
B180
3F80
3F80
3180
3180
3180
ENDCHAR
STARTCHAR uni1FCC
ENCODING 8140
SWIDTH 968 0
DWIDTH 12 0
BBX 11 8 1 0
BITMAP
CC00
CC00
CC00
FCC0
FCC0
CC80
CC80
CCE0
ENDCHAR
STARTCHAR uni1FCD
ENCODING 8141
SWIDTH 555 0
DWIDTH 7 0
BBX 4 4 1 6
BITMAP
10
F0
50
80
ENDCHAR
STARTCHAR uni1FCE
ENCODING 8142
SWIDTH 555 0
DWIDTH 7 0
BBX 4 4 1 6
BITMAP
20
D0
50
A0
ENDCHAR
STARTCHAR uni1FCF
ENCODING 8143
SWIDTH 555 0
DWIDTH 7 0
BBX 4 3 1 7
BITMAP
70
E0
20
ENDCHAR
STARTCHAR uni1FD0
ENCODING 8144
SWIDTH 301 0
DWIDTH 4 0
BBX 4 9 0 0
BITMAP
B0
E0
00
60
60
40
40
40
70
ENDCHAR
STARTCHAR uni1FD1
ENCODING 8145
SWIDTH 301 0
DWIDTH 4 0
BBX 4 8 0 0
BITMAP
E0
00
60
60
40
40
40
70
ENDCHAR
STARTCHAR uni1FD2
ENCODING 8146
SWIDTH 301 0
DWIDTH 4 0
BBX 5 10 -1 0
BITMAP
20
20
E8
00
30
30
20
20
20
38
ENDCHAR
STARTCHAR uni1FD3
ENCODING 8147
SWIDTH 301 0
DWIDTH 4 0
BBX 5 10 -1 0
BITMAP
20
30
E8
00
30
30
20
20
20
38
ENDCHAR
STARTCHAR uni1FD6
ENCODING 8150
SWIDTH 301 0
DWIDTH 4 0
BBX 5 9 -1 0
BITMAP
68
D0
00
30
30
20
20
20
38
ENDCHAR
STARTCHAR uni1FD7
ENCODING 8151
SWIDTH 301 0
DWIDTH 4 0
BBX 4 10 0 0
BITMAP
D0
A0
B0
00
60
60
40
40
40
70
ENDCHAR
STARTCHAR uni1FD8
ENCODING 8152
SWIDTH 301 0
DWIDTH 4 0
BBX 4 10 0 0
BITMAP
90
E0
60
60
60
60
60
60
60
60
ENDCHAR
STARTCHAR uni1FD9
ENCODING 8153
SWIDTH 301 0
DWIDTH 4 0
BBX 4 10 0 0
BITMAP
F0
00
60
60
60
60
60
60
60
60
ENDCHAR
STARTCHAR uni1FDA
ENCODING 8154
SWIDTH 420 0
DWIDTH 5 0
BBX 4 8 0 0
BITMAP
B0
F0
30
30
30
30
30
30
ENDCHAR
STARTCHAR uni1FDB
ENCODING 8155
SWIDTH 420 0
DWIDTH 5 0
BBX 4 8 0 0
BITMAP
F0
B0
B0
30
30
30
30
30
ENDCHAR
STARTCHAR uni1FDD
ENCODING 8157
SWIDTH 555 0
DWIDTH 7 0
BBX 4 4 1 6
BITMAP
10
F0
90
C0
ENDCHAR
STARTCHAR uni1FDE
ENCODING 8158
SWIDTH 555 0
DWIDTH 7 0
BBX 4 4 1 6
BITMAP
20
D0
90
60
ENDCHAR
STARTCHAR uni1FDF
ENCODING 8159
SWIDTH 555 0
DWIDTH 7 0
BBX 4 3 1 7
BITMAP
70
A0
60
ENDCHAR
STARTCHAR uni1FE0
ENCODING 8160
SWIDTH 532 0
DWIDTH 6 0
BBX 5 9 1 0
BITMAP
90
70
00
98
98
98
98
98
F0
ENDCHAR
STARTCHAR uni1FE1
ENCODING 8161
SWIDTH 532 0
DWIDTH 6 0
BBX 5 8 1 0
BITMAP
F0
00
98
98
98
98
98
F0
ENDCHAR
STARTCHAR uni1FE2
ENCODING 8162
SWIDTH 532 0
DWIDTH 6 0
BBX 5 10 1 0
BITMAP
40
60
B0
00
98
98
98
98
98
F0
ENDCHAR
STARTCHAR uni1FE3
ENCODING 8163
SWIDTH 532 0
DWIDTH 6 0
BBX 5 10 1 0
BITMAP
20
20
B0
00
98
98
98
98
98
F0
ENDCHAR
STARTCHAR uni1FE4
ENCODING 8164
SWIDTH 569 0
DWIDTH 7 0
BBX 5 11 1 -2
BITMAP
20
30
20
70
D8
88
88
98
F0
80
C0
ENDCHAR
STARTCHAR uni1FE5
ENCODING 8165
SWIDTH 569 0
DWIDTH 7 0
BBX 5 11 1 -2
BITMAP
30
60
20
70
D8
88
88
98
F0
80
C0
ENDCHAR
STARTCHAR uni1FE6
ENCODING 8166
SWIDTH 532 0
DWIDTH 6 0
BBX 5 9 1 0
BITMAP
F0
A0
00
98
98
98
98
98
F0
ENDCHAR
STARTCHAR uni1FE7
ENCODING 8167
SWIDTH 532 0
DWIDTH 6 0
BBX 5 10 1 0
BITMAP
50
B0
D0
00
98
98
98
98
98
F0
ENDCHAR
STARTCHAR uni1FE8
ENCODING 8168
SWIDTH 525 0
DWIDTH 6 0
BBX 6 10 0 0
BITMAP
48
38
CC
4C
68
38
30
30
30
30
ENDCHAR
STARTCHAR uni1FE9
ENCODING 8169
SWIDTH 525 0
DWIDTH 6 0
BBX 6 10 0 0
BITMAP
78
00
CC
4C
68
38
30
30
30
30
ENDCHAR
STARTCHAR uni1FEA
ENCODING 8170
SWIDTH 704 0
DWIDTH 8 0
BBX 9 8 0 0
BITMAP
B380
DB00
1A00
0E00
0C00
0C00
0C00
0C00
ENDCHAR
STARTCHAR uni1FEB
ENCODING 8171
SWIDTH 704 0
DWIDTH 8 0
BBX 9 8 0 0
BITMAP
F380
9B00
9A00
0E00
0C00
0C00
0C00
0C00
ENDCHAR
STARTCHAR uni1FEC
ENCODING 8172
SWIDTH 759 0
DWIDTH 9 0
BBX 9 8 0 0
BITMAP
DF00
9F80
D980
1900
1F00
1800
1800
1800
ENDCHAR
STARTCHAR uni1FED
ENCODING 8173
SWIDTH 555 0
DWIDTH 7 0
BBX 5 3 1 7
BITMAP
20
60
B8
ENDCHAR
STARTCHAR uni1FEE
ENCODING 8174
SWIDTH 555 0
DWIDTH 7 0
BBX 5 3 1 7
BITMAP
20
20
B8
ENDCHAR
STARTCHAR uni1FEF
ENCODING 8175
SWIDTH 555 0
DWIDTH 7 0
BBX 2 3 2 7
BITMAP
C0
C0
40
ENDCHAR
STARTCHAR uni1FF2
ENCODING 8178
SWIDTH 746 0
DWIDTH 9 0
BBX 8 12 0 -2
BITMAP
10
38
08
00
43
63
49
C9
49
77
08
0C
ENDCHAR
STARTCHAR uni1FF3
ENCODING 8179
SWIDTH 746 0
DWIDTH 9 0
BBX 8 8 0 -2
BITMAP
43
63
49
C9
49
77
08
0C
ENDCHAR
STARTCHAR uni1FF4
ENCODING 8180
SWIDTH 746 0
DWIDTH 9 0
BBX 8 12 0 -2
BITMAP
04
0E
08
00
43
63
49
C9
49
77
08
0C
ENDCHAR
STARTCHAR uni1FF6
ENCODING 8182
SWIDTH 746 0
DWIDTH 9 0
BBX 8 9 0 0
BITMAP
1E
24
00
43
63
49
C9
49
77
ENDCHAR
STARTCHAR uni1FF7
ENCODING 8183
SWIDTH 746 0
DWIDTH 9 0
BBX 8 11 0 -2
BITMAP
1E
24
00
43
63
49
C9
49
77
08
0C
ENDCHAR
STARTCHAR uni1FF8
ENCODING 8184
SWIDTH 790 0
DWIDTH 9 0
BBX 9 8 0 0
BITMAP
9E00
FF00
3180
3180
3180
3180
3F00
1E00
ENDCHAR
STARTCHAR uni1FF9
ENCODING 8185
SWIDTH 777 0
DWIDTH 9 0
BBX 9 8 0 0
BITMAP
DE00
BF00
B380
3180
3180
3380
3F00
1E00
ENDCHAR
STARTCHAR uni1FFA
ENCODING 8186
SWIDTH 811 0
DWIDTH 10 0
BBX 9 8 0 0
BITMAP
8E00
FF80
3180
3180
3180
1100
3B80
3B80
ENDCHAR
STARTCHAR uni1FFB
ENCODING 8187
SWIDTH 803 0
DWIDTH 10 0
BBX 9 8 0 0
BITMAP
DE00
BF00
B180
3180
3180
1300
3B80
3B80
ENDCHAR
STARTCHAR uni1FFC
ENCODING 8188
SWIDTH 1005 0
DWIDTH 12 0
BBX 11 8 1 0
BITMAP
7800
FC00
C600
C6C0
C6C0
CCC0
EEC0
EE60
ENDCHAR
STARTCHAR uni1FFD
ENCODING 8189
SWIDTH 555 0
DWIDTH 7 0
BBX 2 3 3 7
BITMAP
C0
80
80
ENDCHAR
STARTCHAR uni1FFE
ENCODING 8190
SWIDTH 555 0
DWIDTH 7 0
BBX 2 3 2 6
BITMAP
40
80
40
ENDCHAR
STARTCHAR uni2007
ENCODING 8199
SWIDTH 528 0
DWIDTH 6 0
BBX 1 1 0 0
BITMAP
00
ENDCHAR
STARTCHAR figuredash
ENCODING 8210
SWIDTH 528 0
DWIDTH 6 0
BBX 5 1 1 3
BITMAP
F8
ENDCHAR
STARTCHAR endash
ENCODING 8211
SWIDTH 480 0
DWIDTH 6 0
BBX 4 1 1 3
BITMAP
F0
ENDCHAR
STARTCHAR emdash
ENCODING 8212
SWIDTH 800 0
DWIDTH 10 0
BBX 8 1 1 3
BITMAP
FF
ENDCHAR
STARTCHAR uni2015
ENCODING 8213
SWIDTH 800 0
DWIDTH 10 0
BBX 8 1 1 3
BITMAP
FF
ENDCHAR
STARTCHAR uni2016
ENCODING 8214
SWIDTH 452 0
DWIDTH 5 0
BBX 3 12 1 -3
BITMAP
A0
A0
A0
A0
A0
A0
A0
A0
A0
A0
A0
A0
ENDCHAR
STARTCHAR quoteleft
ENCODING 8216
SWIDTH 300 0
DWIDTH 4 0
BBX 2 4 1 4
BITMAP
C0
80
C0
C0
ENDCHAR
STARTCHAR quoteright
ENCODING 8217
SWIDTH 300 0
DWIDTH 4 0
BBX 2 4 1 4
BITMAP
C0
C0
40
80
ENDCHAR
STARTCHAR quotesinglbase
ENCODING 8218
SWIDTH 300 0
DWIDTH 4 0
BBX 2 4 1 -2
BITMAP
C0
C0
40
80
ENDCHAR
STARTCHAR quotedblleft
ENCODING 8220
SWIDTH 536 0
DWIDTH 6 0
BBX 5 4 1 4
BITMAP
D8
90
F0
D8
ENDCHAR
STARTCHAR quotedblright
ENCODING 8221
SWIDTH 536 0
DWIDTH 6 0
BBX 5 4 1 4
BITMAP
D8
D8
48
90
ENDCHAR
STARTCHAR quotedblbase
ENCODING 8222
SWIDTH 536 0
DWIDTH 6 0
BBX 5 4 1 -2
BITMAP
D8
D8
48
90
ENDCHAR
STARTCHAR dagger
ENCODING 8224
SWIDTH 510 0
DWIDTH 6 0
BBX 5 10 1 -1
BITMAP
60
60
F8
60
60
60
60
60
60
60
ENDCHAR
STARTCHAR daggerdbl
ENCODING 8225
SWIDTH 510 0
DWIDTH 6 0
BBX 5 10 1 -1
BITMAP
60
60
F8
60
60
60
F8
E8
60
60
ENDCHAR
STARTCHAR bullet
ENCODING 8226
SWIDTH 345 0
DWIDTH 4 0
BBX 4 3 0 2
BITMAP
60
F0
60
ENDCHAR
STARTCHAR ellipsis
ENCODING 8230
SWIDTH 977 0
DWIDTH 12 0
BBX 10 2 1 0
BITMAP
CCC0
CCC0
ENDCHAR
STARTCHAR uni202F
ENCODING 8239
SWIDTH 125 0
DWIDTH 2 0
BBX 1 1 0 0
BITMAP
00
ENDCHAR
STARTCHAR perthousand
ENCODING 8240
SWIDTH 1249 0
DWIDTH 15 0
BBX 15 8 0 0
BITMAP
6300
D200
D400
D59C
6A56
0A56
1256
119C
ENDCHAR
STARTCHAR uni2032
ENCODING 8242
SWIDTH 300 0
DWIDTH 4 0
BBX 2 4 1 4
BITMAP
C0
C0
C0
80
ENDCHAR
STARTCHAR uni2033
ENCODING 8243
SWIDTH 537 0
DWIDTH 6 0
BBX 5 4 1 4
BITMAP
D8
D8
D0
90
ENDCHAR
STARTCHAR uni2035
ENCODING 8245
SWIDTH 300 0
DWIDTH 4 0
BBX 2 4 1 4
BITMAP
80
80
C0
C0
ENDCHAR
STARTCHAR guilsinglleft
ENCODING 8249
SWIDTH 292 0
DWIDTH 4 0
BBX 2 5 1 1
BITMAP
40
80
80
80
40
ENDCHAR
STARTCHAR guilsinglright
ENCODING 8250
SWIDTH 292 0
DWIDTH 4 0
BBX 2 5 1 1
BITMAP
80
C0
40
C0
80
ENDCHAR
STARTCHAR uni203C
ENCODING 8252
SWIDTH 614 0
DWIDTH 7 0
BBX 5 8 1 0
BITMAP
D8
C8
C8
C8
C8
00
D8
D8
ENDCHAR
STARTCHAR uni203D
ENCODING 8253
SWIDTH 480 0
DWIDTH 6 0
BBX 5 8 0 0
BITMAP
78
88
28
30
20
00
30
30
ENDCHAR
STARTCHAR uni203E
ENCODING 8254
SWIDTH 500 0
DWIDTH 6 0
BBX 6 1 0 7
BITMAP
FC
ENDCHAR
STARTCHAR uni203F
ENCODING 8255
SWIDTH 0 0
DWIDTH 0 0
BBX 10 2 -5 -3
BITMAP
C0C0
3F00
ENDCHAR
STARTCHAR fraction
ENCODING 8260
SWIDTH 96 0
DWIDTH 1 0
BBX 5 8 -2 0
BITMAP
08
10
10
20
20
40
40
80
ENDCHAR
STARTCHAR uni2047
ENCODING 8263
SWIDTH 873 0
DWIDTH 10 0
BBX 10 8 0 0
BITMAP
7380
DCC0
18C0
3180
2100
0000
3100
3380
ENDCHAR
STARTCHAR uni2048
ENCODING 8264
SWIDTH 750 0
DWIDTH 9 0
BBX 8 8 0 0
BITMAP
73
DB
1B
33
23
00
33
33
ENDCHAR
STARTCHAR uni2049
ENCODING 8265
SWIDTH 750 0
DWIDTH 9 0
BBX 7 8 1 0
BITMAP
DE
D2
C6
C6
CC
00
CC
CC
ENDCHAR
STARTCHAR zero.sups
ENCODING 8304
SWIDTH 376 0
DWIDTH 5 0
BBX 4 5 0 5
BITMAP
60
D0
D0
D0
60
ENDCHAR
STARTCHAR i.sups
ENCODING 8305
SWIDTH 188 0
DWIDTH 2 0
BBX 2 5 0 5
BITMAP
C0
00
C0
C0
C0
ENDCHAR
STARTCHAR four.sups
ENCODING 8308
SWIDTH 376 0
DWIDTH 5 0
BBX 4 5 0 5
BITMAP
30
50
50
F0
10
ENDCHAR
STARTCHAR five.sups
ENCODING 8309
SWIDTH 376 0
DWIDTH 5 0
BBX 4 5 0 5
BITMAP
70
40
70
90
70
ENDCHAR
STARTCHAR six.sups
ENCODING 8310
SWIDTH 376 0
DWIDTH 5 0
BBX 4 5 0 5
BITMAP
70
40
F0
50
70
ENDCHAR
STARTCHAR seven.sups
ENCODING 8311
SWIDTH 376 0
DWIDTH 5 0
BBX 3 5 1 5
BITMAP
E0
60
40
40
C0
ENDCHAR
STARTCHAR eight.sups
ENCODING 8312
SWIDTH 376 0
DWIDTH 5 0
BBX 4 5 0 5
BITMAP
70
50
60
D0
70
ENDCHAR
STARTCHAR nine.sups
ENCODING 8313
SWIDTH 376 0
DWIDTH 5 0
BBX 4 5 0 5
BITMAP
60
D0
70
10
60
ENDCHAR
STARTCHAR parenleft.sups
ENCODING 8317
SWIDTH 268 0
DWIDTH 3 0
BBX 2 7 1 4
BITMAP
40
80
80
80
80
80
40
ENDCHAR
STARTCHAR parenright.sups
ENCODING 8318
SWIDTH 268 0
DWIDTH 3 0
BBX 2 7 0 4
BITMAP
C0
40
40
40
40
40
C0
ENDCHAR
STARTCHAR n.sups
ENCODING 8319
SWIDTH 384 0
DWIDTH 5 0
BBX 4 4 0 5
BITMAP
F0
D0
D0
D0
ENDCHAR
STARTCHAR zero.subs
ENCODING 8320
SWIDTH 376 0
DWIDTH 5 0
BBX 4 5 0 -2
BITMAP
60
D0
D0
D0
60
ENDCHAR
STARTCHAR one.subs
ENCODING 8321
SWIDTH 376 0
DWIDTH 5 0
BBX 2 5 1 -2
BITMAP
C0
40
40
40
40
ENDCHAR
STARTCHAR two.subs
ENCODING 8322
SWIDTH 376 0
DWIDTH 5 0
BBX 4 5 0 -2
BITMAP
60
90
30
60
70
ENDCHAR
STARTCHAR three.subs
ENCODING 8323
SWIDTH 376 0
DWIDTH 5 0
BBX 4 5 0 -2
BITMAP
70
10
20
90
70
ENDCHAR
STARTCHAR four.subs
ENCODING 8324
SWIDTH 376 0
DWIDTH 5 0
BBX 4 5 0 -2
BITMAP
30
50
50
F0
10
ENDCHAR
STARTCHAR five.subs
ENCODING 8325
SWIDTH 376 0
DWIDTH 5 0
BBX 4 5 0 -2
BITMAP
70
40
70
90
70
ENDCHAR
STARTCHAR six.subs
ENCODING 8326
SWIDTH 376 0
DWIDTH 5 0
BBX 4 5 0 -2
BITMAP
70
40
F0
50
70
ENDCHAR
STARTCHAR seven.subs
ENCODING 8327
SWIDTH 376 0
DWIDTH 5 0
BBX 3 5 1 -2
BITMAP
E0
60
40
40
C0
ENDCHAR
STARTCHAR eight.subs
ENCODING 8328
SWIDTH 376 0
DWIDTH 5 0
BBX 4 5 0 -2
BITMAP
70
50
60
D0
70
ENDCHAR
STARTCHAR nine.subs
ENCODING 8329
SWIDTH 376 0
DWIDTH 5 0
BBX 4 5 0 -2
BITMAP
60
D0
70
10
60
ENDCHAR
STARTCHAR parenleft.subs
ENCODING 8333
SWIDTH 268 0
DWIDTH 3 0
BBX 2 7 1 -3
BITMAP
40
80
80
80
80
80
40
ENDCHAR
STARTCHAR parenright.subs
ENCODING 8334
SWIDTH 268 0
DWIDTH 3 0
BBX 2 7 0 -3
BITMAP
C0
40
40
40
40
40
C0
ENDCHAR
STARTCHAR uni0259.sups
ENCODING 8340
SWIDTH 346 0
DWIDTH 4 0
BBX 4 5 0 4
BITMAP
E0
10
F0
90
60
ENDCHAR
STARTCHAR colonmonetary
ENCODING 8353
SWIDTH 528 0
DWIDTH 6 0
BBX 5 10 1 -1
BITMAP
30
78
F8
F0
B0
D0
E0
E8
78
60
ENDCHAR
STARTCHAR lira
ENCODING 8356
SWIDTH 528 0
DWIDTH 6 0
BBX 5 8 1 0
BITMAP
78
50
C0
F0
40
F0
F8
F8
ENDCHAR
STARTCHAR uni20A6
ENCODING 8358
SWIDTH 528 0
DWIDTH 6 0
BBX 6 8 0 0
BITMAP
68
68
68
FC
58
FC
58
48
ENDCHAR
STARTCHAR peseta
ENCODING 8359
SWIDTH 528 0
DWIDTH 6 0
BBX 6 8 0 0
BITMAP
78
48
FC
48
78
40
40
40
ENDCHAR
STARTCHAR uni20A9
ENCODING 8361
SWIDTH 528 0
DWIDTH 6 0
BBX 7 7 0 0
BITMAP
D4
F4
F4
FE
74
74
6C
ENDCHAR
STARTCHAR dong
ENCODING 8363
SWIDTH 528 0
DWIDTH 6 0
BBX 5 8 1 0
BITMAP
10
78
10
F0
90
F0
40
F8
ENDCHAR
STARTCHAR Euro
ENCODING 8364
SWIDTH 528 0
DWIDTH 6 0
BBX 6 8 0 0
BITMAP
1C
28
60
F8
60
F8
68
3C
ENDCHAR
STARTCHAR uni20AE
ENCODING 8366
SWIDTH 528 0
DWIDTH 6 0
BBX 6 8 0 0
BITMAP
FC
30
38
38
78
B8
70
B0
ENDCHAR
STARTCHAR uni20B1
ENCODING 8369
SWIDTH 528 0
DWIDTH 6 0
BBX 6 8 0 0
BITMAP
78
FC
4C
F8
78
40
40
40
ENDCHAR
STARTCHAR uni20B2
ENCODING 8370
SWIDTH 528 0
DWIDTH 6 0
BBX 6 10 0 -1
BITMAP
10
3C
68
40
C0
CC
4C
6C
3C
10
ENDCHAR
STARTCHAR uni20B4
ENCODING 8372
SWIDTH 528 0
DWIDTH 6 0
BBX 6 8 0 0
BITMAP
78
48
08
FC
30
FC
68
3C
ENDCHAR
STARTCHAR uni20B5
ENCODING 8373
SWIDTH 528 0
DWIDTH 6 0
BBX 5 10 1 -1
BITMAP
20
78
E0
E0
A0
A0
E0
F0
78
20
ENDCHAR
STARTCHAR uni20B8
ENCODING 8376
SWIDTH 528 0
DWIDTH 6 0
BBX 6 8 0 0
BITMAP
FC
7C
B0
30
30
30
30
30
ENDCHAR
STARTCHAR uni20B9
ENCODING 8377
SWIDTH 528 0
DWIDTH 6 0
BBX 5 8 1 0
BITMAP
F8
30
F8
30
E0
60
20
30
ENDCHAR
STARTCHAR uni20BA
ENCODING 8378
SWIDTH 528 0
DWIDTH 6 0
BBX 6 8 0 0
BITMAP
60
68
70
E8
7C
EC
78
70
ENDCHAR
STARTCHAR uni20BD
ENCODING 8381
SWIDTH 528 0
DWIDTH 6 0
BBX 6 8 0 0
BITMAP
78
4C
4C
F8
40
F8
40
40
ENDCHAR
STARTCHAR uni2113
ENCODING 8467
SWIDTH 470 0
DWIDTH 6 0
BBX 6 9 0 0
BITMAP
38
28
68
68
70
60
E8
7C
38
ENDCHAR
STARTCHAR uni2116
ENCODING 8470
SWIDTH 967 0
DWIDTH 12 0
BBX 10 8 1 0
BITMAP
CC00
EDC0
AF40
EDC0
FC00
DDC0
DC00
9C00
ENDCHAR
STARTCHAR uni2117
ENCODING 8471
SWIDTH 750 0
DWIDTH 9 0
BBX 7 8 1 0
BITMAP
7C
C6
BA
AE
BA
A2
C6
7C
ENDCHAR
STARTCHAR uni2120
ENCODING 8480
SWIDTH 682 0
DWIDTH 8 0
BBX 8 4 0 4
BITMAP
6B
CF
2D
E9
ENDCHAR
STARTCHAR trademark
ENCODING 8482
SWIDTH 682 0
DWIDTH 8 0
BBX 8 6 0 4
BITMAP
E0
E3
CB
4F
4D
49
ENDCHAR
STARTCHAR uni2126
ENCODING 8486
SWIDTH 711 0
DWIDTH 9 0
BBX 7 8 1 0
BITMAP
78
FC
C6
C6
C6
CC
EE
EE
ENDCHAR
STARTCHAR estimated
ENCODING 8494
SWIDTH 800 0
DWIDTH 10 0
BBX 8 8 1 0
BITMAP
3C
C2
81
81
FF
80
82
7C
ENDCHAR
STARTCHAR uni2150
ENCODING 8528
SWIDTH 837 0
DWIDTH 10 0
BBX 9 8 1 0
BITMAP
C400
4800
4800
5780
5100
2300
2200
4200
ENDCHAR
STARTCHAR uni2151
ENCODING 8529
SWIDTH 837 0
DWIDTH 10 0
BBX 9 8 1 0
BITMAP
C400
4400
4800
5700
5580
2780
2100
4700
ENDCHAR
STARTCHAR uni2152
ENCODING 8530
SWIDTH 1155 0
DWIDTH 14 0
BBX 13 8 1 0
BITMAP
C400
4800
4800
5770
1350
2358
2350
4070
ENDCHAR
STARTCHAR onethird
ENCODING 8531
SWIDTH 837 0
DWIDTH 10 0
BBX 9 8 1 0
BITMAP
C400
4800
4800
5700
5100
2300
2580
4700
ENDCHAR
STARTCHAR twothirds
ENCODING 8532
SWIDTH 849 0
DWIDTH 10 0
BBX 10 8 0 0
BITMAP
6100
9200
3400
6580
7AC0
0980
12C0
1380
ENDCHAR
STARTCHAR uni2155
ENCODING 8533
SWIDTH 837 0
DWIDTH 10 0
BBX 9 8 1 0
BITMAP
C400
4800
4800
5300
5600
2700
2580
4700
ENDCHAR
STARTCHAR uni2156
ENCODING 8534
SWIDTH 849 0
DWIDTH 10 0
BBX 10 8 0 0
BITMAP
6100
9200
3400
65C0
7900
0980
12C0
1380
ENDCHAR
STARTCHAR uni2157
ENCODING 8535
SWIDTH 849 0
DWIDTH 10 0
BBX 10 8 0 0
BITMAP
7300
1200
2400
95C0
7900
0980
12C0
3380
ENDCHAR
STARTCHAR uni2158
ENCODING 8536
SWIDTH 892 0
DWIDTH 11 0
BBX 10 8 0 0
BITMAP
3100
5200
5200
F5C0
1500
09C0
0A40
11C0
ENDCHAR
STARTCHAR uni2159
ENCODING 8537
SWIDTH 837 0
DWIDTH 10 0
BBX 8 8 1 0
BITMAP
C4
44
48
53
54
27
25
43
ENDCHAR
STARTCHAR uni215A
ENCODING 8538
SWIDTH 849 0
DWIDTH 10 0
BBX 10 8 0 0
BITMAP
7300
4200
7400
95C0
7A00
0B80
12C0
3180
ENDCHAR
STARTCHAR oneeighth
ENCODING 8539
SWIDTH 837 0
DWIDTH 10 0
BBX 9 8 1 0
BITMAP
C400
4400
4800
5700
5500
2300
2580
4700
ENDCHAR
STARTCHAR threeeighths
ENCODING 8540
SWIDTH 849 0
DWIDTH 10 0
BBX 10 8 0 0
BITMAP
7300
1200
2400
9580
7AC0
0980
1240
3380
ENDCHAR
STARTCHAR fiveeighths
ENCODING 8541
SWIDTH 849 0
DWIDTH 10 0
BBX 10 8 0 0
BITMAP
7300
4200
7400
9580
7AC0
0980
1240
3380
ENDCHAR
STARTCHAR seveneighths
ENCODING 8542
SWIDTH 829 0
DWIDTH 10 0
BBX 9 8 0 0
BITMAP
F200
3400
2400
6B80
6A80
1180
1280
2380
ENDCHAR
STARTCHAR uni2189
ENCODING 8585
SWIDTH 849 0
DWIDTH 10 0
BBX 10 8 0 0
BITMAP
6300
D200
D400
D580
6AC0
0980
12C0
3380
ENDCHAR
STARTCHAR uni2190
ENCODING 8592
SWIDTH 617 0
DWIDTH 7 0
BBX 7 7 0 0
BITMAP
10
30
60
FE
60
30
10
ENDCHAR
STARTCHAR arrowup
ENCODING 8593
SWIDTH 617 0
DWIDTH 7 0
BBX 7 7 0 -1
BITMAP
10
38
7C
D6
10
10
10
ENDCHAR
STARTCHAR uni2192
ENCODING 8594
SWIDTH 617 0
DWIDTH 7 0
BBX 7 7 0 0
BITMAP
10
18
0C
FE
0C
18
10
ENDCHAR
STARTCHAR arrowdown
ENCODING 8595
SWIDTH 617 0
DWIDTH 7 0
BBX 7 7 0 -1
BITMAP
10
10
10
D6
7C
38
10
ENDCHAR
STARTCHAR partialdiff
ENCODING 8706
SWIDTH 577 0
DWIDTH 7 0
BBX 5 8 1 0
BITMAP
70
98
08
78
98
98
98
F0
ENDCHAR
STARTCHAR uni2206
ENCODING 8710
SWIDTH 640 0
DWIDTH 8 0
BBX 7 8 0 0
BITMAP
18
38
2C
2C
64
46
7E
FE
ENDCHAR
STARTCHAR product
ENCODING 8719
SWIDTH 710 0
DWIDTH 9 0
BBX 7 10 1 -2
BITMAP
FE
FE
C6
C6
C6
C6
C6
C6
C6
C6
ENDCHAR
STARTCHAR summation
ENCODING 8721
SWIDTH 534 0
DWIDTH 6 0
BBX 6 10 0 -2
BITMAP
FC
7C
60
30
30
38
30
60
7C
FC
ENDCHAR
STARTCHAR minus
ENCODING 8722
SWIDTH 528 0
DWIDTH 6 0
BBX 6 1 0 3
BITMAP
FC
ENDCHAR
STARTCHAR uni2215
ENCODING 8725
SWIDTH 96 0
DWIDTH 1 0
BBX 5 8 -2 0
BITMAP
08
10
10
20
20
40
40
80
ENDCHAR
STARTCHAR uni2219
ENCODING 8729
SWIDTH 529 0
DWIDTH 6 0
BBX 2 2 2 3
BITMAP
C0
C0
ENDCHAR
STARTCHAR radical
ENCODING 8730
SWIDTH 588 0
DWIDTH 7 0
BBX 7 11 0 -1
BITMAP
02
02
06
04
44
E4
2C
28
38
18
18
ENDCHAR
STARTCHAR infinity
ENCODING 8734
SWIDTH 814 0
DWIDTH 10 0
BBX 9 5 0 1
BITMAP
7700
7C80
CC80
7780
0300
ENDCHAR
STARTCHAR integral
ENCODING 8747
SWIDTH 390 0
DWIDTH 5 0
BBX 4 11 0 -2
BITMAP
30
20
60
60
60
20
20
20
20
20
E0
ENDCHAR
STARTCHAR approxequal
ENCODING 8776
SWIDTH 528 0
DWIDTH 6 0
BBX 6 4 0 2
BITMAP
64
D8
64
D8
ENDCHAR
STARTCHAR notequal
ENCODING 8800
SWIDTH 528 0
DWIDTH 6 0
BBX 6 6 0 1
BITMAP
0C
FC
10
30
FC
40
ENDCHAR
STARTCHAR lessequal
ENCODING 8804
SWIDTH 528 0
DWIDTH 6 0
BBX 6 7 0 0
BITMAP
04
3C
E0
78
0C
00
FC
ENDCHAR
STARTCHAR greaterequal
ENCODING 8805
SWIDTH 528 0
DWIDTH 6 0
BBX 6 7 0 0
BITMAP
80
F0
1C
7C
E0
00
FC
ENDCHAR
STARTCHAR uni231C
ENCODING 8988
SWIDTH 344 0
DWIDTH 4 0
BBX 3 8 1 0
BITMAP
E0
80
80
80
80
80
80
80
ENDCHAR
STARTCHAR uni231D
ENCODING 8989
SWIDTH 344 0
DWIDTH 4 0
BBX 2 8 1 0
BITMAP
C0
40
40
40
40
40
40
40
ENDCHAR
STARTCHAR uni231E
ENCODING 8990
SWIDTH 344 0
DWIDTH 4 0
BBX 3 8 1 -1
BITMAP
80
80
80
80
80
80
80
E0
ENDCHAR
STARTCHAR uni231F
ENCODING 8991
SWIDTH 344 0
DWIDTH 4 0
BBX 2 8 1 -1
BITMAP
40
40
40
40
40
40
40
C0
ENDCHAR
STARTCHAR uni25A0
ENCODING 9632
SWIDTH 877 0
DWIDTH 11 0
BBX 9 9 1 -1
BITMAP
FF80
FF80
FF80
FF80
FF80
FF80
FF80
FF80
FF80
ENDCHAR
STARTCHAR triagup
ENCODING 9650
SWIDTH 877 0
DWIDTH 11 0
BBX 9 10 1 -1
BITMAP
0800
0800
1800
1C00
3C00
3E00
7E00
7F00
FF00
FF80
ENDCHAR
STARTCHAR uni25B3
ENCODING 9651
SWIDTH 877 0
DWIDTH 11 0
BBX 9 10 1 -1
BITMAP
1000
0800
1800
1C00
3400
2600
6200
4300
C100
FF80
ENDCHAR
STARTCHAR uni25B6
ENCODING 9654
SWIDTH 877 0
DWIDTH 11 0
BBX 9 9 1 0
BITMAP
8000
E000
F800
FE00
FF80
FF00
FC00
E000
8000
ENDCHAR
STARTCHAR uni25B7
ENCODING 9655
SWIDTH 877 0
DWIDTH 11 0
BBX 9 9 1 0
BITMAP
8000
E000
F800
9E00
8380
8300
9C00
E000
8000
ENDCHAR
STARTCHAR triagdn
ENCODING 9660
SWIDTH 877 0
DWIDTH 11 0
BBX 9 10 1 -1
BITMAP
FF80
FF00
7F00
7E00
3E00
3C00
1C00
1800
0800
0800
ENDCHAR
STARTCHAR uni25BD
ENCODING 9661
SWIDTH 877 0
DWIDTH 11 0
BBX 9 10 1 -1
BITMAP
FF80
C100
4300
6200
2600
3400
1C00
1800
0800
1000
ENDCHAR
STARTCHAR uni25C0
ENCODING 9664
SWIDTH 877 0
DWIDTH 11 0
BBX 10 9 0 0
BITMAP
0040
01C0
07C0
1FC0
7FC0
BFC0
0FC0
03C0
00C0
ENDCHAR
STARTCHAR uni25C1
ENCODING 9665
SWIDTH 877 0
DWIDTH 11 0
BBX 10 9 0 0
BITMAP
0040
01C0
0740
1C40
7040
B040
0C40
0340
00C0
ENDCHAR
STARTCHAR uni25C6
ENCODING 9670
SWIDTH 877 0
DWIDTH 11 0
BBX 10 10 0 -1
BITMAP
0400
0E00
1F00
3F80
7FC0
FFC0
3F80
1F00
0E00
0400
ENDCHAR
STARTCHAR uni25C9
ENCODING 9673
SWIDTH 877 0
DWIDTH 11 0
BBX 10 10 0 -1
BITMAP
1E00
2180
4CC0
5F40
DF40
DF40
5F40
4CC0
2180
1E00
ENDCHAR
STARTCHAR lozenge
ENCODING 9674
SWIDTH 548 0
DWIDTH 7 0
BBX 5 8 1 0
BITMAP
60
70
D0
98
98
D0
70
60
ENDCHAR
STARTCHAR uni25CC
ENCODING 9676
SWIDTH 577 0
DWIDTH 7 0
BBX 7 6 0 0
BITMAP
38
44
00
86
44
38
ENDCHAR
STARTCHAR uni2610
ENCODING 9744
SWIDTH 807 0
DWIDTH 10 0
BBX 8 8 1 0
BITMAP
FF
81
81
81
81
81
81
FE
ENDCHAR
STARTCHAR uni2611
ENCODING 9745
SWIDTH 807 0
DWIDTH 10 0
BBX 9 10 1 0
BITMAP
0100
0180
FF00
8700
8500
ED00
A900
9900
8100
FE00
ENDCHAR
STARTCHAR uni266A
ENCODING 9834
SWIDTH 544 0
DWIDTH 7 0
BBX 6 8 0 0
BITMAP
18
1C
14
14
14
10
70
E0
ENDCHAR
STARTCHAR uni2713
ENCODING 10003
SWIDTH 647 0
DWIDTH 8 0
BBX 8 8 0 0
BITMAP
02
07
04
0C
C8
50
70
30
ENDCHAR
STARTCHAR uni2752
ENCODING 10066
SWIDTH 877 0
DWIDTH 11 0
BBX 9 10 1 -1
BITMAP
FF80
8080
8080
8080
8080
8080
8080
8080
8080
FF80
ENDCHAR
STARTCHAR uni27E6
ENCODING 10214
SWIDTH 437 0
DWIDTH 5 0
BBX 4 11 1 -2
BITMAP
F0
A0
A0
A0
A0
A0
A0
A0
A0
A0
F0
ENDCHAR
STARTCHAR uni27E7
ENCODING 10215
SWIDTH 437 0
DWIDTH 5 0
BBX 3 11 1 -2
BITMAP
E0
60
60
60
60
60
60
60
60
60
E0
ENDCHAR
STARTCHAR uni2E22
ENCODING 11810
SWIDTH 344 0
DWIDTH 4 0
BBX 3 5 1 4
BITMAP
E0
80
80
80
80
ENDCHAR
STARTCHAR uni2E23
ENCODING 11811
SWIDTH 344 0
DWIDTH 4 0
BBX 2 5 1 4
BITMAP
C0
40
40
40
40
ENDCHAR
STARTCHAR uni2E24
ENCODING 11812
SWIDTH 344 0
DWIDTH 4 0
BBX 3 5 1 -2
BITMAP
80
80
80
80
E0
ENDCHAR
STARTCHAR uni2E25
ENCODING 11813
SWIDTH 344 0
DWIDTH 4 0
BBX 2 5 1 -2
BITMAP
40
40
40
40
C0
ENDCHAR
STARTCHAR uni2E3A
ENCODING 11834
SWIDTH 1500 0
DWIDTH 18 0
BBX 16 1 1 3
BITMAP
FFFF
ENDCHAR
STARTCHAR uni2E3B
ENCODING 11835
SWIDTH 2200 0
DWIDTH 26 0
BBX 25 1 1 3
BITMAP
FFFFFF80
ENDCHAR
STARTCHAR f_f
ENCODING 64256
SWIDTH 657 0
DWIDTH 8 0
BBX 8 9 0 0
BITMAP
3B
66
66
FF
66
66
66
66
66
ENDCHAR
STARTCHAR fi
ENCODING 64257
SWIDTH 635 0
DWIDTH 8 0
BBX 7 9 0 0
BITMAP
36
66
60
F6
66
66
66
66
66
ENDCHAR
STARTCHAR fl
ENCODING 64258
SWIDTH 627 0
DWIDTH 8 0
BBX 7 9 0 0
BITMAP
36
66
66
F6
66
66
66
66
66
ENDCHAR
STARTCHAR f_f_i
ENCODING 64259
SWIDTH 933 0
DWIDTH 11 0
BBX 11 9 0 0
BITMAP
3B40
6660
6600
FF40
6640
6640
6640
6640
6640
ENDCHAR
STARTCHAR f_f_l
ENCODING 64260
SWIDTH 943 0
DWIDTH 11 0
BBX 11 9 0 0
BITMAP
3B40
6640
6640
FF40
6640
6640
6640
6640
6660
ENDCHAR
STARTCHAR uniFEFF
ENCODING 65279
SWIDTH 0 0
DWIDTH 0 0
BBX 1 1 0 0
BITMAP
00
ENDCHAR
STARTCHAR u1F16A
ENCODING 127338
SWIDTH 682 0
DWIDTH 8 0
BBX 8 4 0 4
BITMAP
D3
D4
B4
93
ENDCHAR
STARTCHAR u1F16B
ENCODING 127339
SWIDTH 719 0
DWIDTH 9 0
BBX 9 4 0 4
BITMAP
D700
D580
B580
9700
ENDCHAR
STARTCHAR .notdef
ENCODING -1
SWIDTH 690 0
DWIDTH 8 0
BBX 6 8 1 0
BITMAP
FC
CC
BC
B4
B4
FC
CC
FC
ENDCHAR
STARTCHAR uni00470303
ENCODING -1
SWIDTH 638 0
DWIDTH 8 0
BBX 6 11 1 0
BITMAP
08
7C
40
78
FC
C8
80
9C
CC
FC
78
ENDCHAR
STARTCHAR uni00670303
ENCODING -1
SWIDTH 534 0
DWIDTH 6 0
BBX 6 11 0 -2
BITMAP
7C
48
00
7C
48
48
78
40
7C
C4
78
ENDCHAR
STARTCHAR iogonek.d
ENCODING -1
SWIDTH 276 0
DWIDTH 3 0
BBX 3 8 0 -2
BITMAP
60
60
60
60
60
60
40
E0
ENDCHAR
STARTCHAR f_t
ENCODING -1
SWIDTH 688 0
DWIDTH 8 0
BBX 8 9 0 0
BITMAP
30
64
64
FF
64
64
64
66
67
ENDCHAR
STARTCHAR f_f_t
ENCODING -1
SWIDTH 1004 0
DWIDTH 12 0
BBX 12 9 0 0
BITMAP
3B00
6640
6640
FFF0
66C0
66C0
66C0
6640
6670
ENDCHAR
STARTCHAR I.a
ENCODING -1
SWIDTH 396 0
DWIDTH 5 0
BBX 3 8 1 0
BITMAP
E0
C0
C0
C0
C0
C0
C0
E0
ENDCHAR
STARTCHAR Igrave.a
ENCODING -1
SWIDTH 396 0
DWIDTH 5 0
BBX 4 11 0 0
BITMAP
40
E0
20
70
60
60
60
60
60
60
70
ENDCHAR
STARTCHAR Iacute.a
ENCODING -1
SWIDTH 396 0
DWIDTH 5 0
BBX 3 11 1 0
BITMAP
20
60
C0
E0
C0
C0
C0
C0
C0
C0
E0
ENDCHAR
STARTCHAR Icircumflex.a
ENCODING -1
SWIDTH 396 0
DWIDTH 5 0
BBX 4 10 0 0
BITMAP
70
D0
70
60
60
60
60
60
60
70
ENDCHAR
STARTCHAR Itilde.a
ENCODING -1
SWIDTH 396 0
DWIDTH 5 0
BBX 5 11 0 0
BITMAP
10
F8
80
70
60
60
60
60
60
60
70
ENDCHAR
STARTCHAR Idieresis.a
ENCODING -1
SWIDTH 396 0
DWIDTH 5 0
BBX 5 10 0 0
BITMAP
D0
D8
70
60
60
60
60
60
60
70
ENDCHAR
STARTCHAR Imacron.a
ENCODING -1
SWIDTH 396 0
DWIDTH 5 0
BBX 3 10 1 0
BITMAP
E0
00
E0
C0
C0
C0
C0
C0
C0
E0
ENDCHAR
STARTCHAR Idotaccent.a
ENCODING -1
SWIDTH 396 0
DWIDTH 5 0
BBX 3 10 1 0
BITMAP
C0
C0
E0
C0
C0
C0
C0
C0
C0
E0
ENDCHAR
STARTCHAR uni01CF.a
ENCODING -1
SWIDTH 396 0
DWIDTH 5 0
BBX 4 10 0 0
BITMAP
D0
70
70
60
60
60
60
60
60
70
ENDCHAR
STARTCHAR uni1EC8.a
ENCODING -1
SWIDTH 396 0
DWIDTH 5 0
BBX 3 11 1 0
BITMAP
C0
60
00
E0
C0
C0
C0
C0
C0
C0
E0
ENDCHAR
STARTCHAR uni1ECA.a
ENCODING -1
SWIDTH 396 0
DWIDTH 5 0
BBX 3 11 1 -3
BITMAP
E0
C0
C0
C0
C0
C0
C0
E0
00
40
C0
ENDCHAR
STARTCHAR Iogonek.a
ENCODING -1
SWIDTH 396 0
DWIDTH 5 0
BBX 3 11 1 -3
BITMAP
E0
C0
C0
C0
C0
C0
C0
E0
C0
80
E0
ENDCHAR
STARTCHAR uni012C.a
ENCODING -1
SWIDTH 396 0
DWIDTH 5 0
BBX 4 10 0 0
BITMAP
D0
70
70
60
60
60
60
60
60
70
ENDCHAR
STARTCHAR uni014A.a
ENCODING -1
SWIDTH 665 0
DWIDTH 8 0
BBX 6 10 1 -2
BITMAP
CC
EC
AC
FC
FC
D4
DC
CC
0C
18
ENDCHAR
STARTCHAR a.a
ENCODING -1
SWIDTH 573 0
DWIDTH 7 0
BBX 6 6 0 0
BITMAP
34
6C
CC
CC
6C
74
ENDCHAR
STARTCHAR agrave.a
ENCODING -1
SWIDTH 573 0
DWIDTH 7 0
BBX 6 10 0 0
BITMAP
20
70
10
00
34
6C
CC
CC
6C
74
ENDCHAR
STARTCHAR aacute.a
ENCODING -1
SWIDTH 573 0
DWIDTH 7 0
BBX 6 10 0 0
BITMAP
08
1C
10
00
34
6C
CC
CC
6C
74
ENDCHAR
STARTCHAR acircumflex.a
ENCODING -1
SWIDTH 573 0
DWIDTH 7 0
BBX 6 9 0 0
BITMAP
38
6C
00
34
6C
CC
CC
6C
74
ENDCHAR
STARTCHAR atilde.a
ENCODING -1
SWIDTH 573 0
DWIDTH 7 0
BBX 6 9 0 0
BITMAP
3C
48
00
34
6C
CC
CC
6C
74
ENDCHAR
STARTCHAR adieresis.a
ENCODING -1
SWIDTH 573 0
DWIDTH 7 0
BBX 6 9 0 0
BITMAP
2C
6C
00
34
6C
CC
CC
6C
74
ENDCHAR
STARTCHAR amacron.a
ENCODING -1
SWIDTH 573 0
DWIDTH 7 0
BBX 6 8 0 0
BITMAP
38
00
34
6C
CC
CC
6C
74
ENDCHAR
STARTCHAR abreve.a
ENCODING -1
SWIDTH 573 0
DWIDTH 7 0
BBX 6 9 0 0
BITMAP
2C
38
00
34
6C
CC
CC
6C
74
ENDCHAR
STARTCHAR aring.a
ENCODING -1
SWIDTH 573 0
DWIDTH 7 0
BBX 6 9 0 0
BITMAP
38
38
00
34
6C
CC
CC
6C
74
ENDCHAR
STARTCHAR uni01CE.a
ENCODING -1
SWIDTH 573 0
DWIDTH 7 0
BBX 6 9 0 0
BITMAP
6C
38
00
34
6C
CC
CC
6C
74
ENDCHAR
STARTCHAR uni1EA1.a
ENCODING -1
SWIDTH 573 0
DWIDTH 7 0
BBX 6 9 0 -3
BITMAP
34
6C
CC
CC
6C
74
00
10
18
ENDCHAR
STARTCHAR uni1EA3.a
ENCODING -1
SWIDTH 573 0
DWIDTH 7 0
BBX 6 9 0 0
BITMAP
10
18
10
34
6C
CC
CC
6C
74
ENDCHAR
STARTCHAR uni1EA5.a
ENCODING -1
SWIDTH 573 0
DWIDTH 7 0
BBX 7 10 0 0
BITMAP
02
1C
28
48
34
6C
CC
CC
6C
74
ENDCHAR
STARTCHAR uni1EA7.a
ENCODING -1
SWIDTH 573 0
DWIDTH 7 0
BBX 6 10 0 0
BITMAP
80
58
28
48
34
6C
CC
CC
6C
74
ENDCHAR
STARTCHAR uni1EA9.a
ENCODING -1
SWIDTH 573 0
DWIDTH 7 0
BBX 7 11 0 0
BITMAP
04
06
1C
28
48
34
6C
CC
CC
6C
74
ENDCHAR
STARTCHAR uni1EAB.a
ENCODING -1
SWIDTH 573 0
DWIDTH 7 0
BBX 6 11 0 0
BITMAP
28
38
00
18
28
34
6C
CC
CC
6C
74
ENDCHAR
STARTCHAR uni1EAD.a
ENCODING -1
SWIDTH 573 0
DWIDTH 7 0
BBX 6 12 0 -3
BITMAP
38
6C
00
34
6C
CC
CC
6C
74
00
10
18
ENDCHAR
STARTCHAR uni1EAF.a
ENCODING -1
SWIDTH 573 0
DWIDTH 7 0
BBX 6 11 0 0
BITMAP
08
10
2C
38
00
34
6C
CC
CC
6C
74
ENDCHAR
STARTCHAR uni1EB1.a
ENCODING -1
SWIDTH 573 0
DWIDTH 7 0
BBX 6 11 0 0
BITMAP
30
10
2C
38
00
34
6C
CC
CC
6C
74
ENDCHAR
STARTCHAR uni1EB3.a
ENCODING -1
SWIDTH 573 0
DWIDTH 7 0
BBX 6 12 0 0
BITMAP
10
18
10
2C
38
00
34
6C
CC
CC
6C
74
ENDCHAR
STARTCHAR uni1EB5.a
ENCODING -1
SWIDTH 573 0
DWIDTH 7 0
BBX 6 12 0 0
BITMAP
28
38
00
28
38
00
34
6C
CC
CC
6C
74
ENDCHAR
STARTCHAR uni1EB7.a
ENCODING -1
SWIDTH 573 0
DWIDTH 7 0
BBX 6 12 0 -3
BITMAP
2C
38
00
34
6C
CC
CC
6C
74
00
10
18
ENDCHAR
STARTCHAR aogonek.a
ENCODING -1
SWIDTH 573 0
DWIDTH 7 0
BBX 6 8 0 -2
BITMAP
34
6C
CC
CC
6C
74
08
0C
ENDCHAR
STARTCHAR g.a
ENCODING -1
SWIDTH 583 0
DWIDTH 7 0
BBX 5 8 1 -2
BITMAP
68
D8
98
98
D8
78
18
F0
ENDCHAR
STARTCHAR uni01F5.a
ENCODING -1
SWIDTH 583 0
DWIDTH 7 0
BBX 5 12 1 -2
BITMAP
10
38
20
00
68
D8
98
98
D8
78
18
F0
ENDCHAR
STARTCHAR gcircumflex.a
ENCODING -1
SWIDTH 583 0
DWIDTH 7 0
BBX 5 11 1 -2
BITMAP
70
D8
00
68
D8
98
98
D8
78
18
F0
ENDCHAR
STARTCHAR gbreve.a
ENCODING -1
SWIDTH 583 0
DWIDTH 7 0
BBX 5 11 1 -2
BITMAP
58
70
00
68
D8
98
98
D8
78
18
F0
ENDCHAR
STARTCHAR gdotaccent.a
ENCODING -1
SWIDTH 583 0
DWIDTH 7 0
BBX 5 11 1 -2
BITMAP
20
30
00
68
D8
98
98
D8
78
18
F0
ENDCHAR
STARTCHAR uni0123.a
ENCODING -1
SWIDTH 583 0
DWIDTH 7 0
BBX 5 12 1 -2
BITMAP
30
60
20
00
68
D8
98
98
D8
78
18
F0
ENDCHAR
STARTCHAR gcaron.a
ENCODING -1
SWIDTH 583 0
DWIDTH 7 0
BBX 5 11 1 -2
BITMAP
D8
70
00
68
D8
98
98
D8
78
18
F0
ENDCHAR
STARTCHAR uni1E21.a
ENCODING -1
SWIDTH 583 0
DWIDTH 7 0
BBX 5 10 1 -2
BITMAP
70
00
68
D8
98
98
D8
78
18
F0
ENDCHAR
STARTCHAR uni00670303.a
ENCODING -1
SWIDTH 583 0
DWIDTH 7 0
BBX 5 11 1 -2
BITMAP
78
90
00
68
D8
98
98
D8
78
18
F0
ENDCHAR
STARTCHAR l.a
ENCODING -1
SWIDTH 276 0
DWIDTH 3 0
BBX 2 9 1 0
BITMAP
C0
C0
C0
C0
C0
C0
C0
C0
C0
ENDCHAR
STARTCHAR lacute.a
ENCODING -1
SWIDTH 276 0
DWIDTH 3 0
BBX 3 12 1 0
BITMAP
40
E0
80
C0
C0
C0
C0
C0
C0
C0
C0
C0
ENDCHAR
STARTCHAR lcaron.a
ENCODING -1
SWIDTH 318 0
DWIDTH 4 0
BBX 3 9 1 0
BITMAP
E0
E0
C0
C0
C0
C0
C0
C0
C0
ENDCHAR
STARTCHAR ldot.a
ENCODING -1
SWIDTH 453 0
DWIDTH 5 0
BBX 4 9 1 0
BITMAP
C0
C0
C0
C0
F0
F0
C0
C0
C0
ENDCHAR
STARTCHAR uni013C.a
ENCODING -1
SWIDTH 276 0
DWIDTH 3 0
BBX 3 12 0 -3
BITMAP
60
60
60
60
60
60
60
60
60
40
20
C0
ENDCHAR
STARTCHAR uni1E37.a
ENCODING -1
SWIDTH 276 0
DWIDTH 3 0
BBX 2 12 1 -3
BITMAP
C0
C0
C0
C0
C0
C0
C0
C0
C0
00
80
C0
ENDCHAR
STARTCHAR uni1E39.a
ENCODING -1
SWIDTH 276 0
DWIDTH 3 0
BBX 3 14 0 -3
BITMAP
E0
00
60
60
60
60
60
60
60
60
60
00
40
60
ENDCHAR
STARTCHAR uni1E3B.a
ENCODING -1
SWIDTH 276 0
DWIDTH 3 0
BBX 3 11 0 -2
BITMAP
60
60
60
60
60
60
60
60
60
00
E0
ENDCHAR
STARTCHAR lslash.a
ENCODING -1
SWIDTH 299 0
DWIDTH 4 0
BBX 4 9 0 0
BITMAP
60
60
60
70
E0
60
60
60
60
ENDCHAR
STARTCHAR fl.a
ENCODING -1
SWIDTH 635 0
DWIDTH 8 0
BBX 7 9 0 0
BITMAP
36
66
66
F6
66
66
66
66
66
ENDCHAR
STARTCHAR anoteleia.cap
ENCODING -1
SWIDTH 300 0
DWIDTH 4 0
BBX 2 2 1 6
BITMAP
C0
C0
ENDCHAR
STARTCHAR tonos.cap
ENCODING -1
SWIDTH 119 0
DWIDTH 1 0
BBX 2 3 0 5
BITMAP
C0
80
80
ENDCHAR
STARTCHAR uni1FBD.cap
ENCODING -1
SWIDTH 164 0
DWIDTH 2 0
BBX 2 3 0 5
BITMAP
C0
40
C0
ENDCHAR
STARTCHAR uni1FFE.cap
ENCODING -1
SWIDTH 161 0
DWIDTH 2 0
BBX 2 3 0 5
BITMAP
C0
80
C0
ENDCHAR
STARTCHAR uni1FEF.cap
ENCODING -1
SWIDTH 119 0
DWIDTH 1 0
BBX 2 2 0 6
BITMAP
80
C0
ENDCHAR
STARTCHAR uni1FCD.cap
ENCODING -1
SWIDTH 326 0
DWIDTH 4 0
BBX 4 2 0 6
BITMAP
F0
D0
ENDCHAR
STARTCHAR uni1FDD.cap
ENCODING -1
SWIDTH 325 0
DWIDTH 4 0
BBX 4 3 0 5
BITMAP
F0
90
80
ENDCHAR
STARTCHAR uni1FCE.cap
ENCODING -1
SWIDTH 326 0
DWIDTH 4 0
BBX 4 3 0 5
BITMAP
D0
70
A0
ENDCHAR
STARTCHAR uni1FDE.cap
ENCODING -1
SWIDTH 317 0
DWIDTH 4 0
BBX 4 3 0 5
BITMAP
F0
B0
A0
ENDCHAR
STARTCHAR uni1FCF.cap
ENCODING -1
SWIDTH 223 0
DWIDTH 3 0
BBX 3 3 0 5
BITMAP
E0
C0
40
ENDCHAR
STARTCHAR uni1FDF.cap
ENCODING -1
SWIDTH 223 0
DWIDTH 3 0
BBX 3 3 0 5
BITMAP
E0
40
C0
ENDCHAR
STARTCHAR uni0407.a
ENCODING -1
SWIDTH 301 0
DWIDTH 4 0
BBX 3 10 0 0
BITMAP
E0
E0
60
60
60
60
60
60
60
60
ENDCHAR
STARTCHAR uni0457.a
ENCODING -1
SWIDTH 299 0
DWIDTH 4 0
BBX 3 9 0 0
BITMAP
E0
E0
00
60
60
60
60
60
60
ENDCHAR
STARTCHAR uni0431.srb
ENCODING -1
SWIDTH 546 0
DWIDTH 7 0
BBX 6 9 0 0
BITMAP
3C
7C
60
38
6C
4C
CC
4C
38
ENDCHAR
STARTCHAR zero.0
ENCODING -1
SWIDTH 528 0
DWIDTH 6 0
BBX 6 8 0 0
BITMAP
38
48
4C
FC
FC
4C
48
38
ENDCHAR
STARTCHAR zero.0s
ENCODING -1
SWIDTH 528 0
DWIDTH 6 0
BBX 6 8 0 0
BITMAP
38
48
6C
EC
DC
4C
48
38
ENDCHAR
STARTCHAR zero.pnum
ENCODING -1
SWIDTH 580 0
DWIDTH 7 0
BBX 5 8 1 0
BITMAP
70
D8
98
88
88
98
D8
70
ENDCHAR
STARTCHAR one.pnum
ENCODING -1
SWIDTH 410 0
DWIDTH 5 0
BBX 4 8 0 0
BITMAP
30
F0
30
30
30
30
30
30
ENDCHAR
STARTCHAR two.pnum
ENCODING -1
SWIDTH 526 0
DWIDTH 6 0
BBX 6 8 0 0
BITMAP
78
C8
08
18
18
30
70
7C
ENDCHAR
STARTCHAR three.pnum
ENCODING -1
SWIDTH 528 0
DWIDTH 6 0
BBX 6 8 0 0
BITMAP
78
C8
0C
18
30
0C
8C
78
ENDCHAR
STARTCHAR four.pnum
ENCODING -1
SWIDTH 560 0
DWIDTH 7 0
BBX 6 8 0 0
BITMAP
18
38
28
68
48
FC
08
08
ENDCHAR
STARTCHAR five.pnum
ENCODING -1
SWIDTH 528 0
DWIDTH 6 0
BBX 6 8 0 0
BITMAP
78
60
60
78
0C
0C
8C
78
ENDCHAR
STARTCHAR six.pnum
ENCODING -1
SWIDTH 562 0
DWIDTH 7 0
BBX 5 8 1 0
BITMAP
78
D0
80
B0
D8
98
D8
70
ENDCHAR
STARTCHAR seven.pnum
ENCODING -1
SWIDTH 516 0
DWIDTH 6 0
BBX 5 8 1 0
BITMAP
F8
30
30
20
60
60
60
60
ENDCHAR
STARTCHAR eight.pnum
ENCODING -1
SWIDTH 549 0
DWIDTH 7 0
BBX 5 8 1 0
BITMAP
70
D8
D8
F0
F0
98
98
F0
ENDCHAR
STARTCHAR nine.pnum
ENCODING -1
SWIDTH 562 0
DWIDTH 7 0
BBX 5 8 1 0
BITMAP
70
98
98
98
F8
18
90
F0
ENDCHAR
STARTCHAR zero.0p
ENCODING -1
SWIDTH 580 0
DWIDTH 7 0
BBX 5 8 1 0
BITMAP
70
D8
88
A8
A8
88
D8
70
ENDCHAR
STARTCHAR zero.0ps
ENCODING -1
SWIDTH 580 0
DWIDTH 7 0
BBX 5 8 1 0
BITMAP
70
D8
C8
A8
A8
98
D8
70
ENDCHAR
STARTCHAR zero.tnum
ENCODING -1
SWIDTH 528 0
DWIDTH 6 0
BBX 6 7 0 0
BITMAP
38
4C
4C
CC
4C
4C
38
ENDCHAR
STARTCHAR one.tnum
ENCODING -1
SWIDTH 528 0
DWIDTH 6 0
BBX 5 7 1 0
BITMAP
60
E0
60
60
60
60
F8
ENDCHAR
STARTCHAR two.tnum
ENCODING -1
SWIDTH 528 0
DWIDTH 6 0
BBX 6 7 0 0
BITMAP
70
C8
08
18
38
70
FC
ENDCHAR
STARTCHAR three.tnum
ENCODING -1
SWIDTH 528 0
DWIDTH 6 0
BBX 6 8 0 -1
BITMAP
78
C8
0C
18
30
0C
8C
78
ENDCHAR
STARTCHAR four.tnum
ENCODING -1
SWIDTH 528 0
DWIDTH 6 0
BBX 6 8 0 -1
BITMAP
18
38
28
68
48
FC
08
08
ENDCHAR
STARTCHAR five.tnum
ENCODING -1
SWIDTH 528 0
DWIDTH 6 0
BBX 6 8 0 -1
BITMAP
78
60
60
78
0C
0C
8C
78
ENDCHAR
STARTCHAR six.tnum
ENCODING -1
SWIDTH 528 0
DWIDTH 6 0
BBX 6 8 0 0
BITMAP
3C
68
40
78
CC
4C
6C
38
ENDCHAR
STARTCHAR seven.tnum
ENCODING -1
SWIDTH 528 0
DWIDTH 6 0
BBX 5 7 1 0
BITMAP
F8
10
30
20
60
60
60
ENDCHAR
STARTCHAR eight.tnum
ENCODING -1
SWIDTH 528 0
DWIDTH 6 0
BBX 6 8 0 0
BITMAP
38
48
4C
78
78
4C
CC
78
ENDCHAR
STARTCHAR nine.tnum
ENCODING -1
SWIDTH 528 0
DWIDTH 6 0
BBX 6 8 0 -1
BITMAP
78
48
CC
CC
7C
0C
08
70
ENDCHAR
STARTCHAR zero.onum
ENCODING -1
SWIDTH 545 0
DWIDTH 7 0
BBX 5 7 1 0
BITMAP
70
D8
98
98
98
D8
70
ENDCHAR
STARTCHAR one.onum
ENCODING -1
SWIDTH 410 0
DWIDTH 5 0
BBX 4 7 0 0
BITMAP
30
F0
30
30
30
30
30
ENDCHAR
STARTCHAR two.onum
ENCODING -1
SWIDTH 518 0
DWIDTH 6 0
BBX 6 7 0 0
BITMAP
70
D8
08
18
38
70
7C
ENDCHAR
STARTCHAR three.onum
ENCODING -1
SWIDTH 528 0
DWIDTH 6 0
BBX 6 8 0 -1
BITMAP
78
C8
0C
18
30
0C
8C
78
ENDCHAR
STARTCHAR four.onum
ENCODING -1
SWIDTH 545 0
DWIDTH 7 0
BBX 6 8 0 -1
BITMAP
18
38
28
68
48
FC
08
08
ENDCHAR
STARTCHAR five.onum
ENCODING -1
SWIDTH 528 0
DWIDTH 6 0
BBX 6 8 0 -1
BITMAP
78
60
60
78
0C
0C
8C
78
ENDCHAR
STARTCHAR six.onum
ENCODING -1
SWIDTH 545 0
DWIDTH 7 0
BBX 5 8 1 0
BITMAP
78
D0
80
F0
D8
98
D8
70
ENDCHAR
STARTCHAR seven.onum
ENCODING -1
SWIDTH 516 0
DWIDTH 6 0
BBX 5 7 1 0
BITMAP
F8
30
20
60
60
60
60
ENDCHAR
STARTCHAR eight.onum
ENCODING -1
SWIDTH 547 0
DWIDTH 7 0
BBX 5 8 1 0
BITMAP
70
D8
D8
F0
F0
98
98
F0
ENDCHAR
STARTCHAR nine.onum
ENCODING -1
SWIDTH 545 0
DWIDTH 7 0
BBX 6 8 0 -1
BITMAP
78
48
CC
4C
7C
0C
08
70
ENDCHAR
STARTCHAR at.case
ENCODING -1
SWIDTH 830 0
DWIDTH 10 0
BBX 8 8 1 0
BITMAP
3E
43
9D
A5
AD
B6
C0
7C
ENDCHAR
STARTCHAR i.trk
ENCODING -1
SWIDTH 276 0
DWIDTH 3 0
BBX 2 9 1 0
BITMAP
80
C0
00
C0
C0
C0
C0
C0
C0
ENDCHAR
STARTCHAR A.sc
ENCODING -1
SWIDTH 503 0
DWIDTH 6 0
BBX 6 6 0 0
BITMAP
30
78
78
58
FC
CC
ENDCHAR
STARTCHAR B.sc
ENCODING -1
SWIDTH 546 0
DWIDTH 7 0
BBX 5 6 1 0
BITMAP
F8
D8
F0
D8
D8
F0
ENDCHAR
STARTCHAR C.sc
ENCODING -1
SWIDTH 520 0
DWIDTH 6 0
BBX 5 6 1 0
BITMAP
78
C0
80
80
D0
78
ENDCHAR
STARTCHAR D.sc
ENCODING -1
SWIDTH 580 0
DWIDTH 7 0
BBX 5 6 1 0
BITMAP
F0
D8
C8
C8
D8
F0
ENDCHAR
STARTCHAR E.sc
ENCODING -1
SWIDTH 499 0
DWIDTH 6 0
BBX 4 6 1 0
BITMAP
F0
C0
C0
F0
C0
F0
ENDCHAR
STARTCHAR F.sc
ENCODING -1
SWIDTH 476 0
DWIDTH 6 0
BBX 4 6 1 0
BITMAP
F0
C0
C0
F0
C0
C0
ENDCHAR
STARTCHAR G.sc
ENCODING -1
SWIDTH 576 0
DWIDTH 7 0
BBX 5 6 1 0
BITMAP
78
C0
80
98
C8
78
ENDCHAR
STARTCHAR H.sc
ENCODING -1
SWIDTH 621 0
DWIDTH 7 0
BBX 6 6 1 0
BITMAP
CC
CC
FC
CC
CC
CC
ENDCHAR
STARTCHAR I.sc
ENCODING -1
SWIDTH 301 0
DWIDTH 4 0
BBX 2 6 1 0
BITMAP
C0
C0
C0
C0
C0
C0
ENDCHAR
STARTCHAR J.sc
ENCODING -1
SWIDTH 470 0
DWIDTH 6 0
BBX 5 6 0 0
BITMAP
18
18
18
18
98
70
ENDCHAR
STARTCHAR K.sc
ENCODING -1
SWIDTH 555 0
DWIDTH 7 0
BBX 6 6 1 0
BITMAP
D8
F0
E0
F0
D8
CC
ENDCHAR
STARTCHAR L.sc
ENCODING -1
SWIDTH 471 0
DWIDTH 6 0
BBX 4 6 1 0
BITMAP
C0
C0
C0
C0
C0
F0
ENDCHAR
STARTCHAR M.sc
ENCODING -1
SWIDTH 685 0
DWIDTH 8 0
BBX 6 6 1 0
BITMAP
CC
CC
AC
B4
F4
E4
ENDCHAR
STARTCHAR N.sc
ENCODING -1
SWIDTH 606 0
DWIDTH 7 0
BBX 5 6 1 0
BITMAP
C8
E8
A8
F8
D8
D8
ENDCHAR
STARTCHAR O.sc
ENCODING -1
SWIDTH 616 0
DWIDTH 7 0
BBX 6 6 1 0
BITMAP
78
CC
8C
8C
CC
78
ENDCHAR
STARTCHAR P.sc
ENCODING -1
SWIDTH 551 0
DWIDTH 7 0
BBX 5 6 1 0
BITMAP
F8
D8
D8
F0
C0
C0
ENDCHAR
STARTCHAR Q.sc
ENCODING -1
SWIDTH 614 0
DWIDTH 7 0
BBX 6 8 1 -2
BITMAP
78
F8
CC
8C
CC
78
30
1C
ENDCHAR
STARTCHAR R.sc
ENCODING -1
SWIDTH 561 0
DWIDTH 7 0
BBX 5 6 1 0
BITMAP
F0
D8
D8
F0
D8
D8
ENDCHAR
STARTCHAR S.sc
ENCODING -1
SWIDTH 504 0
DWIDTH 6 0
BBX 6 6 0 0
BITMAP
78
6C
70
18
4C
F8
ENDCHAR
STARTCHAR T.sc
ENCODING -1
SWIDTH 491 0
DWIDTH 6 0
BBX 6 6 0 0
BITMAP
FC
30
30
30
30
30
ENDCHAR
STARTCHAR U.sc
ENCODING -1
SWIDTH 607 0
DWIDTH 7 0
BBX 5 6 1 0
BITMAP
C8
C8
C8
C8
C8
78
ENDCHAR
STARTCHAR V.sc
ENCODING -1
SWIDTH 491 0
DWIDTH 6 0
BBX 6 6 0 0
BITMAP
CC
C8
48
78
70
30
ENDCHAR
STARTCHAR W.sc
ENCODING -1
SWIDTH 717 0
DWIDTH 9 0
BBX 8 6 0 0
BITMAP
C9
D9
5F
57
77
76
ENDCHAR
STARTCHAR X.sc
ENCODING -1
SWIDTH 509 0
DWIDTH 6 0
BBX 6 6 0 0
BITMAP
CC
78
30
30
78
CC
ENDCHAR
STARTCHAR Y.sc
ENCODING -1
SWIDTH 467 0
DWIDTH 6 0
BBX 6 6 0 0
BITMAP
CC
58
70
30
30
30
ENDCHAR
STARTCHAR Z.sc
ENCODING -1
SWIDTH 481 0
DWIDTH 6 0
BBX 5 6 0 0
BITMAP
78
18
30
70
60
F8
ENDCHAR
STARTCHAR Agrave.sc
ENCODING -1
SWIDTH 503 0
DWIDTH 6 0
BBX 6 10 0 0
BITMAP
40
60
30
00
30
78
78
58
FC
CC
ENDCHAR
STARTCHAR Aacute.sc
ENCODING -1
SWIDTH 503 0
DWIDTH 6 0
BBX 6 10 0 0
BITMAP
10
18
30
00
30
78
78
58
FC
CC
ENDCHAR
STARTCHAR Acircumflex.sc
ENCODING -1
SWIDTH 503 0
DWIDTH 6 0
BBX 6 9 0 0
BITMAP
30
48
00
30
78
78
58
FC
CC
ENDCHAR
STARTCHAR Atilde.sc
ENCODING -1
SWIDTH 503 0
DWIDTH 6 0
BBX 6 10 0 0
BITMAP
08
78
40
00
30
78
78
58
FC
CC
ENDCHAR
STARTCHAR Adieresis.sc
ENCODING -1
SWIDTH 503 0
DWIDTH 6 0
BBX 6 9 0 0
BITMAP
48
58
00
30
78
78
58
FC
CC
ENDCHAR
STARTCHAR Amacron.sc
ENCODING -1
SWIDTH 503 0
DWIDTH 6 0
BBX 6 9 0 0
BITMAP
78
00
00
30
78
78
58
FC
CC
ENDCHAR
STARTCHAR Abreve.sc
ENCODING -1
SWIDTH 503 0
DWIDTH 6 0
BBX 6 9 0 0
BITMAP
48
30
00
30
78
78
58
FC
CC
ENDCHAR
STARTCHAR Aring.sc
ENCODING -1
SWIDTH 503 0
DWIDTH 6 0
BBX 6 10 0 0
BITMAP
30
50
30
00
30
78
78
58
FC
CC
ENDCHAR
STARTCHAR uni01CD.sc
ENCODING -1
SWIDTH 503 0
DWIDTH 6 0
BBX 6 9 0 0
BITMAP
48
30
00
30
78
78
58
FC
CC
ENDCHAR
STARTCHAR uni1EA0.sc
ENCODING -1
SWIDTH 503 0
DWIDTH 6 0
BBX 6 9 0 -3
BITMAP
30
78
78
58
FC
CC
00
30
30
ENDCHAR
STARTCHAR uni1EA2.sc
ENCODING -1
SWIDTH 503 0
DWIDTH 6 0
BBX 6 10 0 0
BITMAP
30
10
20
00
30
78
78
58
FC
CC
ENDCHAR
STARTCHAR uni1EA4.sc
ENCODING -1
SWIDTH 503 0
DWIDTH 6 0
BBX 6 10 0 0
BITMAP
04
38
78
00
30
78
78
58
FC
CC
ENDCHAR
STARTCHAR uni1EA6.sc
ENCODING -1
SWIDTH 503 0
DWIDTH 6 0
BBX 6 10 0 0
BITMAP
80
70
78
00
30
78
78
58
FC
CC
ENDCHAR
STARTCHAR uni1EA8.sc
ENCODING -1
SWIDTH 503 0
DWIDTH 6 0
BBX 6 11 0 0
BITMAP
0C
04
3C
78
00
30
78
78
58
FC
CC
ENDCHAR
STARTCHAR uni1EAA.sc
ENCODING -1
SWIDTH 503 0
DWIDTH 6 0
BBX 6 12 0 0
BITMAP
28
58
00
30
78
00
30
78
78
58
FC
CC
ENDCHAR
STARTCHAR uni1EAC.sc
ENCODING -1
SWIDTH 503 0
DWIDTH 6 0
BBX 6 12 0 -3
BITMAP
30
48
00
30
78
78
58
FC
CC
00
30
30
ENDCHAR
STARTCHAR uni1EAE.sc
ENCODING -1
SWIDTH 503 0
DWIDTH 6 0
BBX 6 11 0 0
BITMAP
10
38
48
30
00
30
78
78
58
FC
CC
ENDCHAR
STARTCHAR uni1EB0.sc
ENCODING -1
SWIDTH 503 0
DWIDTH 6 0
BBX 6 11 0 0
BITMAP
20
70
48
30
00
30
78
78
58
FC
CC
ENDCHAR
STARTCHAR uni1EB2.sc
ENCODING -1
SWIDTH 503 0
DWIDTH 6 0
BBX 6 12 0 0
BITMAP
30
10
30
48
30
00
30
78
78
58
FC
CC
ENDCHAR
STARTCHAR uni1EB4.sc
ENCODING -1
SWIDTH 503 0
DWIDTH 6 0
BBX 6 12 0 0
BITMAP
28
58
00
48
30
00
30
78
78
58
FC
CC
ENDCHAR
STARTCHAR uni1EB6.sc
ENCODING -1
SWIDTH 503 0
DWIDTH 6 0
BBX 6 12 0 -3
BITMAP
48
30
00
30
78
78
58
FC
CC
00
30
30
ENDCHAR
STARTCHAR Aogonek.sc
ENCODING -1
SWIDTH 503 0
DWIDTH 6 0
BBX 6 9 0 -3
BITMAP
30
78
78
58
FC
CC
08
08
0C
ENDCHAR
STARTCHAR AE.sc
ENCODING -1
SWIDTH 741 0
DWIDTH 9 0
BBX 8 6 0 0
BITMAP
1F
3C
2C
6F
7C
CF
ENDCHAR
STARTCHAR uni01FC.sc
ENCODING -1
SWIDTH 741 0
DWIDTH 9 0
BBX 8 10 0 0
BITMAP
02
06
0C
00
1F
3C
2C
6F
7C
CF
ENDCHAR
STARTCHAR uni01E2.sc
ENCODING -1
SWIDTH 741 0
DWIDTH 9 0
BBX 8 9 0 0
BITMAP
0E
00
00
1F
3C
2C
6F
7C
CF
ENDCHAR
STARTCHAR uni0243.sc
ENCODING -1
SWIDTH 570 0
DWIDTH 7 0
BBX 6 6 0 0
BITMAP
7C
64
78
64
F4
7C
ENDCHAR
STARTCHAR uni1E06.sc
ENCODING -1
SWIDTH 546 0
DWIDTH 7 0
BBX 5 8 1 -2
BITMAP
F8
D8
F0
D8
D8
F0
00
70
ENDCHAR
STARTCHAR Ccedilla.sc
ENCODING -1
SWIDTH 520 0
DWIDTH 6 0
BBX 5 9 1 -3
BITMAP
78
C0
80
80
D0
78
30
10
60
ENDCHAR
STARTCHAR Cacute.sc
ENCODING -1
SWIDTH 520 0
DWIDTH 6 0
BBX 5 10 1 0
BITMAP
10
38
20
00
78
C0
80
80
D0
78
ENDCHAR
STARTCHAR Ccircumflex.sc
ENCODING -1
SWIDTH 520 0
DWIDTH 6 0
BBX 5 9 1 0
BITMAP
70
58
00
78
C0
80
80
D0
78
ENDCHAR
STARTCHAR Ccaron.sc
ENCODING -1
SWIDTH 520 0
DWIDTH 6 0
BBX 5 9 1 0
BITMAP
58
70
00
78
C0
80
80
D0
78
ENDCHAR
STARTCHAR Cdotaccent.sc
ENCODING -1
SWIDTH 520 0
DWIDTH 6 0
BBX 5 9 1 0
BITMAP
30
30
00
78
C0
80
80
D0
78
ENDCHAR
STARTCHAR Dcaron.sc
ENCODING -1
SWIDTH 580 0
DWIDTH 7 0
BBX 5 9 1 0
BITMAP
58
F0
00
F0
D8
C8
C8
D8
F0
ENDCHAR
STARTCHAR uni1E0C.sc
ENCODING -1
SWIDTH 580 0
DWIDTH 7 0
BBX 5 9 1 -3
BITMAP
F0
D8
C8
C8
D8
F0
00
20
30
ENDCHAR
STARTCHAR uni1E0E.sc
ENCODING -1
SWIDTH 580 0
DWIDTH 7 0
BBX 5 8 1 -2
BITMAP
F0
D8
C8
C8
D8
F0
00
70
ENDCHAR
STARTCHAR Dcroat.sc
ENCODING -1
SWIDTH 604 0
DWIDTH 7 0
BBX 7 6 0 0
BITMAP
78
64
F6
66
6C
78
ENDCHAR
STARTCHAR Egrave.sc
ENCODING -1
SWIDTH 499 0
DWIDTH 6 0
BBX 4 10 1 0
BITMAP
40
E0
20
00
F0
C0
C0
F0
C0
F0
ENDCHAR
STARTCHAR Eacute.sc
ENCODING -1
SWIDTH 499 0
DWIDTH 6 0
BBX 4 10 1 0
BITMAP
10
30
60
00
F0
C0
C0
F0
C0
F0
ENDCHAR
STARTCHAR Ecircumflex.sc
ENCODING -1
SWIDTH 499 0
DWIDTH 6 0
BBX 4 9 1 0
BITMAP
70
D0
00
F0
C0
C0
F0
C0
F0
ENDCHAR
STARTCHAR Ecaron.sc
ENCODING -1
SWIDTH 499 0
DWIDTH 6 0
BBX 4 9 1 0
BITMAP
D0
70
00
F0
C0
C0
F0
C0
F0
ENDCHAR
STARTCHAR Edieresis.sc
ENCODING -1
SWIDTH 499 0
DWIDTH 6 0
BBX 4 9 1 0
BITMAP
D0
D0
00
F0
C0
C0
F0
C0
F0
ENDCHAR
STARTCHAR Emacron.sc
ENCODING -1
SWIDTH 499 0
DWIDTH 6 0
BBX 4 9 1 0
BITMAP
F0
00
00
F0
C0
C0
F0
C0
F0
ENDCHAR
STARTCHAR Ebreve.sc
ENCODING -1
SWIDTH 499 0
DWIDTH 6 0
BBX 4 9 1 0
BITMAP
90
70
00
F0
C0
C0
F0
C0
F0
ENDCHAR
STARTCHAR Edotaccent.sc
ENCODING -1
SWIDTH 499 0
DWIDTH 6 0
BBX 4 9 1 0
BITMAP
60
60
00
F0
C0
C0
F0
C0
F0
ENDCHAR
STARTCHAR uni1EB8.sc
ENCODING -1
SWIDTH 499 0
DWIDTH 6 0
BBX 4 9 1 -3
BITMAP
F0
C0
C0
F0
C0
F0
00
60
60
ENDCHAR
STARTCHAR uni1EBA.sc
ENCODING -1
SWIDTH 499 0
DWIDTH 6 0
BBX 4 10 1 0
BITMAP
60
20
00
00
F0
C0
C0
F0
C0
F0
ENDCHAR
STARTCHAR uni1EBC.sc
ENCODING -1
SWIDTH 499 0
DWIDTH 6 0
BBX 5 10 1 0
BITMAP
10
F8
80
00
F0
C0
C0
F0
C0
F0
ENDCHAR
STARTCHAR uni1EBE.sc
ENCODING -1
SWIDTH 499 0
DWIDTH 6 0
BBX 5 10 1 0
BITMAP
08
68
50
80
F0
C0
C0
F0
C0
F0
ENDCHAR
STARTCHAR uni1EC0.sc
ENCODING -1
SWIDTH 499 0
DWIDTH 6 0
BBX 5 10 0 0
BITMAP
80
70
28
40
78
60
60
78
60
78
ENDCHAR
STARTCHAR uni1EC2.sc
ENCODING -1
SWIDTH 499 0
DWIDTH 6 0
BBX 5 11 1 0
BITMAP
18
08
68
50
80
F0
C0
C0
F0
C0
F0
ENDCHAR
STARTCHAR uni1EC4.sc
ENCODING -1
SWIDTH 499 0
DWIDTH 6 0
BBX 4 12 1 0
BITMAP
50
B0
00
60
50
80
F0
C0
C0
F0
C0
F0
ENDCHAR
STARTCHAR uni1EC6.sc
ENCODING -1
SWIDTH 499 0
DWIDTH 6 0
BBX 4 12 1 -3
BITMAP
70
D0
00
F0
C0
C0
F0
C0
F0
00
60
60
ENDCHAR
STARTCHAR Eogonek.sc
ENCODING -1
SWIDTH 499 0
DWIDTH 6 0
BBX 5 9 1 -3
BITMAP
F0
C0
C0
F0
C0
F0
30
20
38
ENDCHAR
STARTCHAR uni1E16.sc
ENCODING -1
SWIDTH 499 0
DWIDTH 6 0
BBX 4 12 1 0
BITMAP
30
60
00
F0
00
00
F0
C0
C0
F0
C0
F0
ENDCHAR
STARTCHAR uni01F4.sc
ENCODING -1
SWIDTH 576 0
DWIDTH 7 0
BBX 5 10 1 0
BITMAP
10
38
20
00
78
C0
80
98
C8
78
ENDCHAR
STARTCHAR Gcircumflex.sc
ENCODING -1
SWIDTH 576 0
DWIDTH 7 0
BBX 5 9 1 0
BITMAP
30
48
00
78
C0
80
98
C8
78
ENDCHAR
STARTCHAR Gbreve.sc
ENCODING -1
SWIDTH 576 0
DWIDTH 7 0
BBX 5 9 1 0
BITMAP
48
70
00
78
C0
80
98
C8
78
ENDCHAR
STARTCHAR Gdotaccent.sc
ENCODING -1
SWIDTH 576 0
DWIDTH 7 0
BBX 5 9 1 0
BITMAP
30
30
00
78
C0
80
98
C8
78
ENDCHAR
STARTCHAR uni0122.sc
ENCODING -1
SWIDTH 576 0
DWIDTH 7 0
BBX 5 9 1 -3
BITMAP
78
C0
80
98
C8
78
30
10
60
ENDCHAR
STARTCHAR Gcaron.sc
ENCODING -1
SWIDTH 576 0
DWIDTH 7 0
BBX 5 9 1 0
BITMAP
48
30
00
78
C0
80
98
C8
78
ENDCHAR
STARTCHAR uni1E20.sc
ENCODING -1
SWIDTH 576 0
DWIDTH 7 0
BBX 5 9 1 0
BITMAP
78
00
00
78
C0
80
98
C8
78
ENDCHAR
STARTCHAR uni00470303.sc
ENCODING -1
SWIDTH 576 0
DWIDTH 7 0
BBX 5 10 1 0
BITMAP
10
78
40
80
78
C0
80
98
C8
78
ENDCHAR
STARTCHAR uni0193.sc
ENCODING -1
SWIDTH 576 0
DWIDTH 7 0
BBX 6 8 1 0
BITMAP
0C
18
78
C0
80
98
C8
78
ENDCHAR
STARTCHAR Hcircumflex.sc
ENCODING -1
SWIDTH 621 0
DWIDTH 7 0
BBX 6 9 1 0
BITMAP
70
58
00
CC
CC
FC
CC
CC
CC
ENDCHAR
STARTCHAR uni1E24.sc
ENCODING -1
SWIDTH 621 0
DWIDTH 7 0
BBX 6 9 1 -3
BITMAP
CC
CC
FC
CC
CC
CC
00
30
30
ENDCHAR
STARTCHAR uni1E2A.sc
ENCODING -1
SWIDTH 621 0
DWIDTH 7 0
BBX 6 9 1 -3
BITMAP
CC
CC
FC
CC
CC
CC
00
48
70
ENDCHAR
STARTCHAR Hbar.sc
ENCODING -1
SWIDTH 660 0
DWIDTH 8 0
BBX 8 6 0 0
BITMAP
66
FF
66
7E
66
66
ENDCHAR
STARTCHAR Igrave.sc
ENCODING -1
SWIDTH 301 0
DWIDTH 4 0
BBX 3 10 0 0
BITMAP
80
C0
60
00
60
60
60
60
60
60
ENDCHAR
STARTCHAR Iacute.sc
ENCODING -1
SWIDTH 301 0
DWIDTH 4 0
BBX 3 10 1 0
BITMAP
40
E0
80
00
C0
C0
C0
C0
C0
C0
ENDCHAR
STARTCHAR Icircumflex.sc
ENCODING -1
SWIDTH 301 0
DWIDTH 4 0
BBX 4 9 0 0
BITMAP
E0
90
00
60
60
60
60
60
60
ENDCHAR
STARTCHAR Itilde.sc
ENCODING -1
SWIDTH 301 0
DWIDTH 4 0
BBX 5 10 -1 0
BITMAP
10
78
C0
00
30
30
30
30
30
30
ENDCHAR
STARTCHAR Idieresis.sc
ENCODING -1
SWIDTH 301 0
DWIDTH 4 0
BBX 4 9 0 0
BITMAP
B0
B0
00
60
60
60
60
60
60
ENDCHAR
STARTCHAR Imacron.sc
ENCODING -1
SWIDTH 301 0
DWIDTH 4 0
BBX 4 9 0 0
BITMAP
F0
00
00
60
60
60
60
60
60
ENDCHAR
STARTCHAR Idotaccent.sc
ENCODING -1
SWIDTH 301 0
DWIDTH 4 0
BBX 2 9 1 0
BITMAP
C0
C0
00
C0
C0
C0
C0
C0
C0
ENDCHAR
STARTCHAR uni01CF.sc
ENCODING -1
SWIDTH 301 0
DWIDTH 4 0
BBX 4 9 0 0
BITMAP
90
E0
00
60
60
60
60
60
60
ENDCHAR
STARTCHAR uni1EC8.sc
ENCODING -1
SWIDTH 301 0
DWIDTH 4 0
BBX 2 10 1 0
BITMAP
C0
40
80
00
C0
C0
C0
C0
C0
C0
ENDCHAR
STARTCHAR uni1ECA.sc
ENCODING -1
SWIDTH 301 0
DWIDTH 4 0
BBX 2 9 1 -3
BITMAP
C0
C0
C0
C0
C0
C0
00
C0
C0
ENDCHAR
STARTCHAR Iogonek.sc
ENCODING -1
SWIDTH 301 0
DWIDTH 4 0
BBX 3 9 0 -3
BITMAP
60
60
60
60
60
60
40
40
E0
ENDCHAR
STARTCHAR uni012C.sc
ENCODING -1
SWIDTH 301 0
DWIDTH 4 0
BBX 4 9 0 0
BITMAP
90
E0
00
60
60
60
60
60
60
ENDCHAR
STARTCHAR Jcircumflex.sc
ENCODING -1
SWIDTH 470 0
DWIDTH 6 0
BBX 6 9 0 0
BITMAP
38
24
00
18
18
18
18
98
70
ENDCHAR
STARTCHAR uni0136.sc
ENCODING -1
SWIDTH 555 0
DWIDTH 7 0
BBX 6 9 1 -3
BITMAP
D8
F0
E0
F0
D8
C8
34
10
60
ENDCHAR
STARTCHAR uni1E32.sc
ENCODING -1
SWIDTH 555 0
DWIDTH 7 0
BBX 6 9 1 -3
BITMAP
D8
F0
E0
F0
D8
C8
04
30
30
ENDCHAR
STARTCHAR uni1E34.sc
ENCODING -1
SWIDTH 555 0
DWIDTH 7 0
BBX 6 8 1 -2
BITMAP
D8
F0
E0
F0
D8
C8
04
78
ENDCHAR
STARTCHAR Lacute.sc
ENCODING -1
SWIDTH 471 0
DWIDTH 6 0
BBX 4 10 1 0
BITMAP
40
E0
80
00
C0
C0
C0
C0
C0
F0
ENDCHAR
STARTCHAR Lcaron.sc
ENCODING -1
SWIDTH 471 0
DWIDTH 6 0
BBX 4 7 1 0
BITMAP
10
D0
C0
C0
C0
C0
F0
ENDCHAR
STARTCHAR uni013B.sc
ENCODING -1
SWIDTH 471 0
DWIDTH 6 0
BBX 4 9 1 -3
BITMAP
C0
C0
C0
C0
C0
F0
60
20
60
ENDCHAR
STARTCHAR Ldot.sc
ENCODING -1
SWIDTH 471 0
DWIDTH 6 0
BBX 5 6 1 0
BITMAP
C0
D8
D8
C0
C0
F0
ENDCHAR
STARTCHAR uni1E36.sc
ENCODING -1
SWIDTH 471 0
DWIDTH 6 0
BBX 4 9 1 -3
BITMAP
C0
C0
C0
C0
C0
F0
00
60
60
ENDCHAR
STARTCHAR uni1E38.sc
ENCODING -1
SWIDTH 471 0
DWIDTH 6 0
BBX 5 12 0 -3
BITMAP
F0
00
00
60
60
60
60
60
78
00
30
30
ENDCHAR
STARTCHAR uni1E3A.sc
ENCODING -1
SWIDTH 471 0
DWIDTH 6 0
BBX 4 8 1 -2
BITMAP
C0
C0
C0
C0
C0
F0
00
F0
ENDCHAR
STARTCHAR Lslash.sc
ENCODING -1
SWIDTH 471 0
DWIDTH 6 0
BBX 5 6 0 0
BITMAP
60
68
70
E0
E0
78
ENDCHAR
STARTCHAR uni1E3E.sc
ENCODING -1
SWIDTH 685 0
DWIDTH 8 0
BBX 6 10 1 0
BITMAP
08
18
30
00
CC
CC
AC
B4
F4
E4
ENDCHAR
STARTCHAR uni1E40.sc
ENCODING -1
SWIDTH 685 0
DWIDTH 8 0
BBX 6 9 1 0
BITMAP
30
30
00
CC
CC
AC
B4
F4
E4
ENDCHAR
STARTCHAR uni1E42.sc
ENCODING -1
SWIDTH 685 0
DWIDTH 8 0
BBX 6 9 1 -3
BITMAP
CC
CC
AC
B4
F4
E4
00
30
30
ENDCHAR
STARTCHAR Nacute.sc
ENCODING -1
SWIDTH 606 0
DWIDTH 7 0
BBX 5 10 1 0
BITMAP
10
38
20
00
C8
E8
A8
F8
D8
D8
ENDCHAR
STARTCHAR uni01F8.sc
ENCODING -1
SWIDTH 606 0
DWIDTH 7 0
BBX 5 10 1 0
BITMAP
40
60
30
00
C8
E8
A8
F8
D8
D8
ENDCHAR
STARTCHAR Ncaron.sc
ENCODING -1
SWIDTH 606 0
DWIDTH 7 0
BBX 5 9 1 0
BITMAP
58
70
00
C8
E8
A8
F8
D8
D8
ENDCHAR
STARTCHAR Ntilde.sc
ENCODING -1
SWIDTH 606 0
DWIDTH 7 0
BBX 5 10 1 0
BITMAP
10
78
C0
00
C8
E8
A8
F8
D8
D8
ENDCHAR
STARTCHAR uni0145.sc
ENCODING -1
SWIDTH 606 0
DWIDTH 7 0
BBX 5 9 1 -3
BITMAP
C8
E8
A8
F8
D8
D8
30
10
60
ENDCHAR
STARTCHAR uni1E44.sc
ENCODING -1
SWIDTH 606 0
DWIDTH 7 0
BBX 5 9 1 0
BITMAP
30
30
00
C8
E8
A8
F8
D8
D8
ENDCHAR
STARTCHAR uni1E46.sc
ENCODING -1
SWIDTH 606 0
DWIDTH 7 0
BBX 5 9 1 -3
BITMAP
C8
E8
A8
F8
D8
D8
00
30
30
ENDCHAR
STARTCHAR uni1E48.sc
ENCODING -1
SWIDTH 606 0
DWIDTH 7 0
BBX 5 8 1 -2
BITMAP
C8
E8
A8
F8
D8
D8
00
70
ENDCHAR
STARTCHAR Ograve.sc
ENCODING -1
SWIDTH 616 0
DWIDTH 7 0
BBX 6 10 1 0
BITMAP
40
60
30
00
78
CC
8C
8C
CC
78
ENDCHAR
STARTCHAR Oacute.sc
ENCODING -1
SWIDTH 616 0
DWIDTH 7 0
BBX 6 10 1 0
BITMAP
10
38
20
00
78
CC
8C
8C
CC
78
ENDCHAR
STARTCHAR Ocircumflex.sc
ENCODING -1
SWIDTH 616 0
DWIDTH 7 0
BBX 6 9 1 0
BITMAP
70
58
00
78
CC
8C
8C
CC
78
ENDCHAR
STARTCHAR Otilde.sc
ENCODING -1
SWIDTH 616 0
DWIDTH 7 0
BBX 6 10 1 0
BITMAP
10
78
C0
00
78
CC
8C
8C
CC
78
ENDCHAR
STARTCHAR Odieresis.sc
ENCODING -1
SWIDTH 616 0
DWIDTH 7 0
BBX 6 9 1 0
BITMAP
58
58
00
78
CC
8C
8C
CC
78
ENDCHAR
STARTCHAR Omacron.sc
ENCODING -1
SWIDTH 616 0
DWIDTH 7 0
BBX 6 9 1 0
BITMAP
78
00
00
78
CC
8C
8C
CC
78
ENDCHAR
STARTCHAR Ohungarumlaut.sc
ENCODING -1
SWIDTH 616 0
DWIDTH 7 0
BBX 6 9 1 0
BITMAP
2C
58
00
78
CC
8C
8C
CC
78
ENDCHAR
STARTCHAR uni01D1.sc
ENCODING -1
SWIDTH 616 0
DWIDTH 7 0
BBX 6 9 1 0
BITMAP
58
70
00
78
CC
8C
8C
CC
78
ENDCHAR
STARTCHAR uni1ECC.sc
ENCODING -1
SWIDTH 616 0
DWIDTH 7 0
BBX 6 9 1 -3
BITMAP
78
CC
8C
8C
CC
78
00
30
30
ENDCHAR
STARTCHAR uni1ECE.sc
ENCODING -1
SWIDTH 616 0
DWIDTH 7 0
BBX 6 10 1 0
BITMAP
30
10
20
00
78
CC
8C
8C
CC
78
ENDCHAR
STARTCHAR uni1ED0.sc
ENCODING -1
SWIDTH 616 0
DWIDTH 7 0
BBX 6 10 1 0
BITMAP
04
38
50
08
78
CC
8C
8C
CC
78
ENDCHAR
STARTCHAR uni1ED2.sc
ENCODING -1
SWIDTH 616 0
DWIDTH 7 0
BBX 6 10 1 0
BITMAP
80
B0
50
08
78
CC
8C
8C
CC
78
ENDCHAR
STARTCHAR uni1ED4.sc
ENCODING -1
SWIDTH 616 0
DWIDTH 7 0
BBX 6 11 1 0
BITMAP
08
04
38
50
08
78
CC
8C
8C
CC
78
ENDCHAR
STARTCHAR uni1ED6.sc
ENCODING -1
SWIDTH 616 0
DWIDTH 7 0
BBX 6 12 1 0
BITMAP
48
70
00
30
50
08
78
CC
8C
8C
CC
78
ENDCHAR
STARTCHAR uni1ED8.sc
ENCODING -1
SWIDTH 616 0
DWIDTH 7 0
BBX 6 12 1 -3
BITMAP
70
58
00
78
CC
8C
8C
CC
78
00
30
30
ENDCHAR
STARTCHAR Oslash.sc
ENCODING -1
SWIDTH 616 0
DWIDTH 7 0
BBX 6 6 1 0
BITMAP
7C
CC
9C
AC
CC
F8
ENDCHAR
STARTCHAR OE.sc
ENCODING -1
SWIDTH 766 0
DWIDTH 9 0
BBX 8 6 1 0
BITMAP
7E
D8
98
9E
D8
7F
ENDCHAR
STARTCHAR Ohorn.sc
ENCODING -1
SWIDTH 616 0
DWIDTH 7 0
BBX 6 8 1 0
BITMAP
04
04
7C
CC
8C
8C
CC
78
ENDCHAR
STARTCHAR uni1EDA.sc
ENCODING -1
SWIDTH 616 0
DWIDTH 7 0
BBX 6 10 1 0
BITMAP
10
38
24
04
7C
CC
8C
8C
CC
78
ENDCHAR
STARTCHAR uni1EDC.sc
ENCODING -1
SWIDTH 616 0
DWIDTH 7 0
BBX 6 10 1 0
BITMAP
40
60
34
04
7C
CC
8C
8C
CC
78
ENDCHAR
STARTCHAR uni1EDE.sc
ENCODING -1
SWIDTH 616 0
DWIDTH 7 0
BBX 6 10 1 0
BITMAP
30
10
24
04
7C
CC
8C
8C
CC
78
ENDCHAR
STARTCHAR uni1EE0.sc
ENCODING -1
SWIDTH 616 0
DWIDTH 7 0
BBX 6 10 1 0
BITMAP
10
F8
84
04
7C
CC
8C
8C
CC
78
ENDCHAR
STARTCHAR uni1EE2.sc
ENCODING -1
SWIDTH 616 0
DWIDTH 7 0
BBX 6 11 1 -3
BITMAP
04
04
7C
CC
8C
8C
CC
78
00
30
30
ENDCHAR
STARTCHAR uni01EA.sc
ENCODING -1
SWIDTH 616 0
DWIDTH 7 0
BBX 6 9 1 -3
BITMAP
78
CC
8C
8C
CC
78
20
20
30
ENDCHAR
STARTCHAR uni014E.sc
ENCODING -1
SWIDTH 616 0
DWIDTH 7 0
BBX 6 9 1 0
BITMAP
48
70
00
78
CC
8C
8C
CC
78
ENDCHAR
STARTCHAR uni1E52.sc
ENCODING -1
SWIDTH 616 0
DWIDTH 7 0
BBX 6 12 1 0
BITMAP
10
20
00
78
00
00
78
CC
8C
8C
CC
78
ENDCHAR
STARTCHAR Racute.sc
ENCODING -1
SWIDTH 561 0
DWIDTH 7 0
BBX 5 10 1 0
BITMAP
10
38
20
00
F0
D8
D8
F0
D8
D8
ENDCHAR
STARTCHAR uni1E58.sc
ENCODING -1
SWIDTH 561 0
DWIDTH 7 0
BBX 5 9 1 0
BITMAP
20
30
00
F0
D8
D8
F0
D8
D8
ENDCHAR
STARTCHAR Rcaron.sc
ENCODING -1
SWIDTH 561 0
DWIDTH 7 0
BBX 5 9 1 0
BITMAP
58
70
00
F0
D8
D8
F0
D8
D8
ENDCHAR
STARTCHAR uni0156.sc
ENCODING -1
SWIDTH 561 0
DWIDTH 7 0
BBX 5 9 1 -3
BITMAP
F0
D8
D8
F0
D8
D8
20
10
60
ENDCHAR
STARTCHAR uni1E5A.sc
ENCODING -1
SWIDTH 561 0
DWIDTH 7 0
BBX 5 9 1 -3
BITMAP
F0
D8
D8
F0
D8
D8
00
20
30
ENDCHAR
STARTCHAR uni1E5C.sc
ENCODING -1
SWIDTH 561 0
DWIDTH 7 0
BBX 5 12 1 -3
BITMAP
70
00
00
F0
D8
D8
F0
D8
D8
00
20
30
ENDCHAR
STARTCHAR uni1E5E.sc
ENCODING -1
SWIDTH 561 0
DWIDTH 7 0
BBX 5 8 1 -2
BITMAP
F0
D8
D8
F0
D8
D8
00
70
ENDCHAR
STARTCHAR Sacute.sc
ENCODING -1
SWIDTH 504 0
DWIDTH 6 0
BBX 6 10 0 0
BITMAP
08
18
30
00
78
6C
70
18
4C
F8
ENDCHAR
STARTCHAR Scircumflex.sc
ENCODING -1
SWIDTH 504 0
DWIDTH 6 0
BBX 6 9 0 0
BITMAP
38
68
00
78
6C
70
18
4C
F8
ENDCHAR
STARTCHAR Scaron.sc
ENCODING -1
SWIDTH 504 0
DWIDTH 6 0
BBX 6 9 0 0
BITMAP
68
38
00
78
6C
70
18
4C
F8
ENDCHAR
STARTCHAR uni015E.sc
ENCODING -1
SWIDTH 504 0
DWIDTH 6 0
BBX 6 9 0 -3
BITMAP
78
6C
70
18
4C
F8
30
10
30
ENDCHAR
STARTCHAR uni0218.sc
ENCODING -1
SWIDTH 504 0
DWIDTH 6 0
BBX 6 9 0 -3
BITMAP
78
6C
70
18
4C
F8
10
30
30
ENDCHAR
STARTCHAR uni1E60.sc
ENCODING -1
SWIDTH 504 0
DWIDTH 6 0
BBX 6 9 0 0
BITMAP
30
30
00
78
6C
70
18
4C
F8
ENDCHAR
STARTCHAR uni1E62.sc
ENCODING -1
SWIDTH 504 0
DWIDTH 6 0
BBX 6 9 0 -3
BITMAP
78
6C
70
18
4C
F8
00
30
30
ENDCHAR
STARTCHAR uni1E9E.sc
ENCODING -1
SWIDTH 636 0
DWIDTH 8 0
BBX 6 6 1 0
BITMAP
78
CC
D8
DC
CC
FC
ENDCHAR
STARTCHAR Tcaron.sc
ENCODING -1
SWIDTH 491 0
DWIDTH 6 0
BBX 6 9 0 0
BITMAP
48
30
00
FC
30
30
30
30
30
ENDCHAR
STARTCHAR uni0162.sc
ENCODING -1
SWIDTH 491 0
DWIDTH 6 0
BBX 6 9 0 -3
BITMAP
FC
30
30
30
30
30
30
10
20
ENDCHAR
STARTCHAR uni021A.sc
ENCODING -1
SWIDTH 491 0
DWIDTH 6 0
BBX 6 9 0 -3
BITMAP
FC
30
30
30
30
30
30
10
30
ENDCHAR
STARTCHAR uni1E6C.sc
ENCODING -1
SWIDTH 491 0
DWIDTH 6 0
BBX 6 9 0 -3
BITMAP
FC
30
30
30
30
30
00
30
30
ENDCHAR
STARTCHAR uni1E6E.sc
ENCODING -1
SWIDTH 491 0
DWIDTH 6 0
BBX 6 8 0 -2
BITMAP
FC
30
30
30
30
30
00
78
ENDCHAR
STARTCHAR uni0166.sc
ENCODING -1
SWIDTH 491 0
DWIDTH 6 0
BBX 6 6 0 0
BITMAP
FC
30
30
78
30
30
ENDCHAR
STARTCHAR Ugrave.sc
ENCODING -1
SWIDTH 607 0
DWIDTH 7 0
BBX 5 10 1 0
BITMAP
40
60
30
00
C8
C8
C8
C8
C8
78
ENDCHAR
STARTCHAR Uacute.sc
ENCODING -1
SWIDTH 607 0
DWIDTH 7 0
BBX 5 10 1 0
BITMAP
10
38
20
00
C8
C8
C8
C8
C8
78
ENDCHAR
STARTCHAR Ucircumflex.sc
ENCODING -1
SWIDTH 607 0
DWIDTH 7 0
BBX 5 9 1 0
BITMAP
70
58
00
C8
C8
C8
C8
C8
78
ENDCHAR
STARTCHAR Utilde.sc
ENCODING -1
SWIDTH 607 0
DWIDTH 7 0
BBX 5 10 1 0
BITMAP
10
78
80
00
C8
C8
C8
C8
C8
78
ENDCHAR
STARTCHAR Udieresis.sc
ENCODING -1
SWIDTH 607 0
DWIDTH 7 0
BBX 5 9 1 0
BITMAP
58
D8
00
C8
C8
C8
C8
C8
78
ENDCHAR
STARTCHAR Umacron.sc
ENCODING -1
SWIDTH 607 0
DWIDTH 7 0
BBX 5 9 1 0
BITMAP
70
00
00
C8
C8
C8
C8
C8
78
ENDCHAR
STARTCHAR Ubreve.sc
ENCODING -1
SWIDTH 607 0
DWIDTH 7 0
BBX 5 9 1 0
BITMAP
58
70
00
C8
C8
C8
C8
C8
78
ENDCHAR
STARTCHAR Uring.sc
ENCODING -1
SWIDTH 607 0
DWIDTH 7 0
BBX 5 10 1 0
BITMAP
30
50
30
00
C8
C8
C8
C8
C8
78
ENDCHAR
STARTCHAR Uhungarumlaut.sc
ENCODING -1
SWIDTH 607 0
DWIDTH 7 0
BBX 6 9 1 0
BITMAP
2C
58
00
C8
C8
C8
C8
C8
78
ENDCHAR
STARTCHAR uni01D3.sc
ENCODING -1
SWIDTH 607 0
DWIDTH 7 0
BBX 5 9 1 0
BITMAP
58
70
00
C8
C8
C8
C8
C8
78
ENDCHAR
STARTCHAR uni01D5.sc
ENCODING -1
SWIDTH 607 0
DWIDTH 7 0
BBX 5 11 1 0
BITMAP
70
00
58
00
00
C8
C8
C8
C8
C8
78
ENDCHAR
STARTCHAR uni01D7.sc
ENCODING -1
SWIDTH 607 0
DWIDTH 7 0
BBX 5 11 1 0
BITMAP
10
20
58
00
00
C8
C8
C8
C8
C8
78
ENDCHAR
STARTCHAR uni01D9.sc
ENCODING -1
SWIDTH 607 0
DWIDTH 7 0
BBX 5 12 1 0
BITMAP
58
30
00
58
00
00
C8
C8
C8
C8
C8
78
ENDCHAR
STARTCHAR uni01DB.sc
ENCODING -1
SWIDTH 607 0
DWIDTH 7 0
BBX 5 11 1 0
BITMAP
60
20
58
00
00
C8
C8
C8
C8
C8
78
ENDCHAR
STARTCHAR uni1EE4.sc
ENCODING -1
SWIDTH 607 0
DWIDTH 7 0
BBX 5 9 1 -3
BITMAP
C8
C8
C8
C8
C8
78
00
20
30
ENDCHAR
STARTCHAR uni1EE6.sc
ENCODING -1
SWIDTH 607 0
DWIDTH 7 0
BBX 5 10 1 0
BITMAP
20
30
00
00
C8
C8
C8
C8
C8
78
ENDCHAR
STARTCHAR Uogonek.sc
ENCODING -1
SWIDTH 607 0
DWIDTH 7 0
BBX 5 9 1 -3
BITMAP
C8
C8
C8
C8
C8
78
20
30
20
ENDCHAR
STARTCHAR Uhorn.sc
ENCODING -1
SWIDTH 625 0
DWIDTH 8 0
BBX 7 8 1 0
BITMAP
06
06
CC
C8
C8
C8
C8
78
ENDCHAR
STARTCHAR uni1EE8.sc
ENCODING -1
SWIDTH 625 0
DWIDTH 8 0
BBX 7 10 1 0
BITMAP
10
38
26
06
CC
C8
C8
C8
C8
78
ENDCHAR
STARTCHAR uni1EEA.sc
ENCODING -1
SWIDTH 625 0
DWIDTH 8 0
BBX 7 10 1 0
BITMAP
40
60
36
06
CC
C8
C8
C8
C8
78
ENDCHAR
STARTCHAR uni1EEC.sc
ENCODING -1
SWIDTH 625 0
DWIDTH 8 0
BBX 7 10 1 0
BITMAP
20
30
06
06
CC
C8
C8
C8
C8
78
ENDCHAR
STARTCHAR uni1EEE.sc
ENCODING -1
SWIDTH 625 0
DWIDTH 8 0
BBX 7 10 1 0
BITMAP
10
78
86
06
CC
C8
C8
C8
C8
78
ENDCHAR
STARTCHAR uni1EF0.sc
ENCODING -1
SWIDTH 625 0
DWIDTH 8 0
BBX 7 11 1 -3
BITMAP
06
06
CC
C8
C8
C8
C8
78
00
20
30
ENDCHAR
STARTCHAR Wgrave.sc
ENCODING -1
SWIDTH 717 0
DWIDTH 9 0
BBX 8 10 0 0
BITMAP
10
38
08
00
C9
D9
5F
57
77
76
ENDCHAR
STARTCHAR Wacute.sc
ENCODING -1
SWIDTH 717 0
DWIDTH 9 0
BBX 8 10 0 0
BITMAP
04
0C
18
00
C9
D9
5F
57
77
76
ENDCHAR
STARTCHAR Wcircumflex.sc
ENCODING -1
SWIDTH 717 0
DWIDTH 9 0
BBX 8 9 0 0
BITMAP
1C
34
00
C9
D9
5F
57
77
76
ENDCHAR
STARTCHAR Wdieresis.sc
ENCODING -1
SWIDTH 717 0
DWIDTH 9 0
BBX 8 9 0 0
BITMAP
34
34
00
C9
D9
5F
57
77
76
ENDCHAR
STARTCHAR Ygrave.sc
ENCODING -1
SWIDTH 467 0
DWIDTH 6 0
BBX 6 10 0 0
BITMAP
40
60
30
00
CC
58
70
30
30
30
ENDCHAR
STARTCHAR Yacute.sc
ENCODING -1
SWIDTH 467 0
DWIDTH 6 0
BBX 6 10 0 0
BITMAP
10
38
20
00
CC
58
70
30
30
30
ENDCHAR
STARTCHAR Ycircumflex.sc
ENCODING -1
SWIDTH 467 0
DWIDTH 6 0
BBX 6 9 0 0
BITMAP
70
58
00
CC
58
70
30
30
30
ENDCHAR
STARTCHAR Ydieresis.sc
ENCODING -1
SWIDTH 467 0
DWIDTH 6 0
BBX 6 9 0 0
BITMAP
58
58
00
CC
58
70
30
30
30
ENDCHAR
STARTCHAR uni1E8E.sc
ENCODING -1
SWIDTH 467 0
DWIDTH 6 0
BBX 6 9 0 0
BITMAP
30
30
00
CC
58
70
30
30
30
ENDCHAR
STARTCHAR uni1EF4.sc
ENCODING -1
SWIDTH 467 0
DWIDTH 6 0
BBX 6 9 0 -3
BITMAP
CC
58
70
30
30
30
00
30
30
ENDCHAR
STARTCHAR uni1EF6.sc
ENCODING -1
SWIDTH 467 0
DWIDTH 6 0
BBX 6 10 0 0
BITMAP
30
10
20
00
CC
58
70
30
30
30
ENDCHAR
STARTCHAR uni1EF8.sc
ENCODING -1
SWIDTH 467 0
DWIDTH 6 0
BBX 6 10 0 0
BITMAP
10
78
C0
00
CC
58
70
30
30
30
ENDCHAR
STARTCHAR Zacute.sc
ENCODING -1
SWIDTH 481 0
DWIDTH 6 0
BBX 5 10 0 0
BITMAP
08
18
30
00
78
18
30
70
60
F8
ENDCHAR
STARTCHAR Zcaron.sc
ENCODING -1
SWIDTH 481 0
DWIDTH 6 0
BBX 5 9 0 0
BITMAP
48
30
00
78
18
30
70
60
F8
ENDCHAR
STARTCHAR Zdotaccent.sc
ENCODING -1
SWIDTH 481 0
DWIDTH 6 0
BBX 5 9 0 0
BITMAP
30
30
00
78
18
30
70
60
F8
ENDCHAR
STARTCHAR uni1E92.sc
ENCODING -1
SWIDTH 481 0
DWIDTH 6 0
BBX 5 9 0 -3
BITMAP
78
18
30
70
60
F8
00
30
30
ENDCHAR
STARTCHAR uni1E94.sc
ENCODING -1
SWIDTH 481 0
DWIDTH 6 0
BBX 5 8 0 -2
BITMAP
78
18
30
70
60
F8
00
78
ENDCHAR
STARTCHAR Eth.sc
ENCODING -1
SWIDTH 604 0
DWIDTH 7 0
BBX 7 6 0 0
BITMAP
78
64
F6
66
6C
78
ENDCHAR
STARTCHAR Thorn.sc
ENCODING -1
SWIDTH 562 0
DWIDTH 7 0
BBX 5 6 1 0
BITMAP
C0
F8
D8
D8
F0
C0
ENDCHAR
STARTCHAR uni018F.sc
ENCODING -1
SWIDTH 604 0
DWIDTH 7 0
BBX 6 6 1 0
BITMAP
F0
98
0C
FC
C8
70
ENDCHAR
STARTCHAR uni014A.sc
ENCODING -1
SWIDTH 602 0
DWIDTH 7 0
BBX 6 6 1 0
BITMAP
F8
CC
CC
CC
CC
F8
ENDCHAR
STARTCHAR uni0132.sc
ENCODING -1
SWIDTH 602 0
DWIDTH 7 0
BBX 5 8 1 -2
BITMAP
C8
C8
C8
C8
C8
C8
18
38
ENDCHAR
STARTCHAR Alpha.sc
ENCODING -1
SWIDTH 503 0
DWIDTH 6 0
BBX 6 6 0 0
BITMAP
30
78
78
58
FC
CC
ENDCHAR
STARTCHAR Beta.sc
ENCODING -1
SWIDTH 546 0
DWIDTH 7 0
BBX 5 6 1 0
BITMAP
F8
D8
F0
D8
D8
F0
ENDCHAR
STARTCHAR Gamma.sc
ENCODING -1
SWIDTH 472 0
DWIDTH 6 0
BBX 4 6 1 0
BITMAP
F0
C0
C0
C0
C0
C0
ENDCHAR
STARTCHAR uni0394.sc
ENCODING -1
SWIDTH 570 0
DWIDTH 7 0
BBX 6 6 0 0
BITMAP
38
38
68
6C
4C
FC
ENDCHAR
STARTCHAR Epsilon.sc
ENCODING -1
SWIDTH 499 0
DWIDTH 6 0
BBX 4 6 1 0
BITMAP
F0
C0
C0
F0
C0
F0
ENDCHAR
STARTCHAR Zeta.sc
ENCODING -1
SWIDTH 481 0
DWIDTH 6 0
BBX 5 6 0 0
BITMAP
78
18
30
70
60
F8
ENDCHAR
STARTCHAR Eta.sc
ENCODING -1
SWIDTH 621 0
DWIDTH 7 0
BBX 6 6 1 0
BITMAP
CC
CC
FC
CC
CC
CC
ENDCHAR
STARTCHAR Theta.sc
ENCODING -1
SWIDTH 616 0
DWIDTH 7 0
BBX 6 6 1 0
BITMAP
78
CC
BC
8C
CC
78
ENDCHAR
STARTCHAR Iota.sc
ENCODING -1
SWIDTH 301 0
DWIDTH 4 0
BBX 2 6 1 0
BITMAP
C0
C0
C0
C0
C0
C0
ENDCHAR
STARTCHAR Kappa.sc
ENCODING -1
SWIDTH 555 0
DWIDTH 7 0
BBX 6 6 1 0
BITMAP
D8
F0
E0
F0
D8
CC
ENDCHAR
STARTCHAR Lambda.sc
ENCODING -1
SWIDTH 488 0
DWIDTH 6 0
BBX 6 6 0 0
BITMAP
30
70
78
58
C8
CC
ENDCHAR
STARTCHAR Mu.sc
ENCODING -1
SWIDTH 685 0
DWIDTH 8 0
BBX 6 6 1 0
BITMAP
CC
CC
AC
B4
F4
E4
ENDCHAR
STARTCHAR Nu.sc
ENCODING -1
SWIDTH 606 0
DWIDTH 7 0
BBX 5 6 1 0
BITMAP
C8
E8
A8
F8
D8
D8
ENDCHAR
STARTCHAR Xi.sc
ENCODING -1
SWIDTH 513 0
DWIDTH 6 0
BBX 5 6 1 0
BITMAP
F0
00
F0
00
00
F8
ENDCHAR
STARTCHAR Omicron.sc
ENCODING -1
SWIDTH 616 0
DWIDTH 7 0
BBX 6 6 1 0
BITMAP
78
CC
8C
8C
CC
78
ENDCHAR
STARTCHAR Pi.sc
ENCODING -1
SWIDTH 615 0
DWIDTH 7 0
BBX 5 6 1 0
BITMAP
F8
C8
C8
C8
C8
C8
ENDCHAR
STARTCHAR Rho.sc
ENCODING -1
SWIDTH 551 0
DWIDTH 7 0
BBX 5 6 1 0
BITMAP
F8
D8
D8
F0
C0
C0
ENDCHAR
STARTCHAR Sigma.sc
ENCODING -1
SWIDTH 486 0
DWIDTH 6 0
BBX 5 6 0 0
BITMAP
F8
60
30
30
60
F8
ENDCHAR
STARTCHAR Tau.sc
ENCODING -1
SWIDTH 491 0
DWIDTH 6 0
BBX 6 6 0 0
BITMAP
FC
30
30
30
30
30
ENDCHAR
STARTCHAR Upsilon.sc
ENCODING -1
SWIDTH 467 0
DWIDTH 6 0
BBX 6 6 0 0
BITMAP
CC
58
70
30
30
30
ENDCHAR
STARTCHAR Phi.sc
ENCODING -1
SWIDTH 708 0
DWIDTH 9 0
BBX 7 7 1 0
BITMAP
30
7C
F6
B6
F6
7C
30
ENDCHAR
STARTCHAR Chi.sc
ENCODING -1
SWIDTH 509 0
DWIDTH 6 0
BBX 6 6 0 0
BITMAP
CC
78
30
30
78
CC
ENDCHAR
STARTCHAR Psi.sc
ENCODING -1
SWIDTH 682 0
DWIDTH 8 0
BBX 7 6 1 0
BITMAP
B6
B6
F4
7C
30
30
ENDCHAR
STARTCHAR uni03A9.sc
ENCODING -1
SWIDTH 633 0
DWIDTH 8 0
BBX 6 6 1 0
BITMAP
78
CC
8C
CC
C8
DC
ENDCHAR
STARTCHAR Iotadieresis.sc
ENCODING -1
SWIDTH 301 0
DWIDTH 4 0
BBX 4 9 0 0
BITMAP
B0
B0
00
60
60
60
60
60
60
ENDCHAR
STARTCHAR Upsilondieresis.sc
ENCODING -1
SWIDTH 467 0
DWIDTH 6 0
BBX 6 9 0 0
BITMAP
58
58
00
CC
58
70
30
30
30
ENDCHAR
STARTCHAR Alphaiotasub.sc
ENCODING -1
SWIDTH 805 0
DWIDTH 10 0
BBX 9 6 0 0
BITMAP
3180
7980
7980
5980
FD80
CD80
ENDCHAR
STARTCHAR Etaiotasub.sc
ENCODING -1
SWIDTH 923 0
DWIDTH 11 0
BBX 9 6 1 0
BITMAP
CD80
CD80
CD80
FD80
CD80
CD80
ENDCHAR
STARTCHAR Omegaiotasub.sc
ENCODING -1
SWIDTH 932 0
DWIDTH 11 0
BBX 9 6 1 0
BITMAP
7980
CD80
8D80
CD80
C980
DD80
ENDCHAR
STARTCHAR uni0410.sc
ENCODING -1
SWIDTH 503 0
DWIDTH 6 0
BBX 6 6 0 0
BITMAP
30
78
78
58
FC
CC
ENDCHAR
STARTCHAR uni0411.sc
ENCODING -1
SWIDTH 543 0
DWIDTH 7 0
BBX 5 6 1 0
BITMAP
F8
C0
E0
D8
D8
F0
ENDCHAR
STARTCHAR uni0412.sc
ENCODING -1
SWIDTH 546 0
DWIDTH 7 0
BBX 5 6 1 0
BITMAP
F8
D8
F0
D8
D8
F0
ENDCHAR
STARTCHAR uni0413.sc
ENCODING -1
SWIDTH 472 0
DWIDTH 6 0
BBX 4 6 1 0
BITMAP
F0
C0
C0
C0
C0
C0
ENDCHAR
STARTCHAR uni0414.sc
ENCODING -1
SWIDTH 604 0
DWIDTH 7 0
BBX 7 8 0 -2
BITMAP
3C
2C
6C
6C
FE
FE
C6
C6
ENDCHAR
STARTCHAR uni0415.sc
ENCODING -1
SWIDTH 499 0
DWIDTH 6 0
BBX 4 6 1 0
BITMAP
F0
C0
C0
F0
C0
F0
ENDCHAR
STARTCHAR uni0416.sc
ENCODING -1
SWIDTH 766 0
DWIDTH 9 0
BBX 9 6 0 0
BITMAP
C980
EB80
3E00
6B00
6900
C980
ENDCHAR
STARTCHAR uni0417.sc
ENCODING -1
SWIDTH 500 0
DWIDTH 6 0
BBX 6 6 0 0
BITMAP
78
48
38
0C
8C
78
ENDCHAR
STARTCHAR uni0418.sc
ENCODING -1
SWIDTH 606 0
DWIDTH 7 0
BBX 5 6 1 0
BITMAP
D8
D8
F8
A8
E8
C8
ENDCHAR
STARTCHAR uni0419.sc
ENCODING -1
SWIDTH 606 0
DWIDTH 7 0
BBX 5 9 1 0
BITMAP
58
70
00
D8
D8
F8
A8
E8
C8
ENDCHAR
STARTCHAR uni041A.sc
ENCODING -1
SWIDTH 567 0
DWIDTH 7 0
BBX 6 6 1 0
BITMAP
DC
D8
F0
D0
D8
CC
ENDCHAR
STARTCHAR uni041B.sc
ENCODING -1
SWIDTH 590 0
DWIDTH 7 0
BBX 6 6 0 0
BITMAP
3C
2C
6C
6C
EC
CC
ENDCHAR
STARTCHAR uni041C.sc
ENCODING -1
SWIDTH 685 0
DWIDTH 8 0
BBX 6 6 1 0
BITMAP
CC
CC
AC
B4
F4
E4
ENDCHAR
STARTCHAR uni041D.sc
ENCODING -1
SWIDTH 621 0
DWIDTH 7 0
BBX 6 6 1 0
BITMAP
CC
CC
FC
CC
CC
CC
ENDCHAR
STARTCHAR uni041E.sc
ENCODING -1
SWIDTH 616 0
DWIDTH 7 0
BBX 6 6 1 0
BITMAP
78
CC
8C
8C
CC
78
ENDCHAR
STARTCHAR uni041F.sc
ENCODING -1
SWIDTH 615 0
DWIDTH 7 0
BBX 5 6 1 0
BITMAP
F8
C8
C8
C8
C8
C8
ENDCHAR
STARTCHAR uni0420.sc
ENCODING -1
SWIDTH 551 0
DWIDTH 7 0
BBX 5 6 1 0
BITMAP
F8
D8
D8
F0
C0
C0
ENDCHAR
STARTCHAR uni0421.sc
ENCODING -1
SWIDTH 520 0
DWIDTH 6 0
BBX 5 6 1 0
BITMAP
78
C0
80
80
D0
78
ENDCHAR
STARTCHAR uni0422.sc
ENCODING -1
SWIDTH 491 0
DWIDTH 6 0
BBX 6 6 0 0
BITMAP
FC
30
30
30
30
30
ENDCHAR
STARTCHAR uni0423.sc
ENCODING -1
SWIDTH 487 0
DWIDTH 6 0
BBX 6 6 0 0
BITMAP
CC
68
78
30
70
60
ENDCHAR
STARTCHAR uni0424.sc
ENCODING -1
SWIDTH 677 0
DWIDTH 8 0
BBX 7 6 1 0
BITMAP
30
FC
B6
B6
FC
30
ENDCHAR
STARTCHAR uni0425.sc
ENCODING -1
SWIDTH 509 0
DWIDTH 6 0
BBX 6 6 0 0
BITMAP
CC
78
30
30
78
CC
ENDCHAR
STARTCHAR uni0426.sc
ENCODING -1
SWIDTH 610 0
DWIDTH 7 0
BBX 6 8 1 -2
BITMAP
D8
D8
D8
D8
D8
FC
0C
0C
ENDCHAR
STARTCHAR uni0427.sc
ENCODING -1
SWIDTH 576 0
DWIDTH 7 0
BBX 5 6 1 0
BITMAP
98
98
F8
18
18
18
ENDCHAR
STARTCHAR uni0428.sc
ENCODING -1
SWIDTH 823 0
DWIDTH 10 0
BBX 8 6 1 0
BITMAP
DB
DB
DB
DB
DB
FF
ENDCHAR
STARTCHAR uni0429.sc
ENCODING -1
SWIDTH 837 0
DWIDTH 10 0
BBX 9 8 1 -2
BITMAP
DB00
DB00
DB00
DB00
DB00
FF80
0180
0180
ENDCHAR
STARTCHAR uni042A.sc
ENCODING -1
SWIDTH 639 0
DWIDTH 8 0
BBX 7 6 0 0
BITMAP
F0
30
3E
36
36
3E
ENDCHAR
STARTCHAR uni042B.sc
ENCODING -1
SWIDTH 779 0
DWIDTH 9 0
BBX 7 6 1 0
BITMAP
C2
C2
F2
DA
DA
F2
ENDCHAR
STARTCHAR uni042C.sc
ENCODING -1
SWIDTH 544 0
DWIDTH 7 0
BBX 5 6 1 0
BITMAP
C0
C0
F0
D8
D8
F0
ENDCHAR
STARTCHAR uni042D.sc
ENCODING -1
SWIDTH 516 0
DWIDTH 6 0
BBX 6 6 0 0
BITMAP
F0
98
0C
3C
08
F0
ENDCHAR
STARTCHAR uni042E.sc
ENCODING -1
SWIDTH 849 0
DWIDTH 10 0
BBX 9 6 1 0
BITMAP
CF00
D900
F180
D180
D900
CE00
ENDCHAR
STARTCHAR uni042F.sc
ENCODING -1
SWIDTH 561 0
DWIDTH 7 0
BBX 6 6 0 0
BITMAP
7C
4C
4C
7C
6C
CC
ENDCHAR
STARTCHAR uni0400.sc
ENCODING -1
SWIDTH 499 0
DWIDTH 6 0
BBX 4 10 1 0
BITMAP
40
E0
20
00
F0
C0
C0
F0
C0
F0
ENDCHAR
STARTCHAR uni0401.sc
ENCODING -1
SWIDTH 499 0
DWIDTH 6 0
BBX 4 9 1 0
BITMAP
D0
D0
00
F0
C0
C0
F0
C0
F0
ENDCHAR
STARTCHAR uni0402.sc
ENCODING -1
SWIDTH 617 0
DWIDTH 7 0
BBX 7 6 0 0
BITMAP
FC
30
3C
36
36
3C
ENDCHAR
STARTCHAR uni0403.sc
ENCODING -1
SWIDTH 472 0
DWIDTH 6 0
BBX 4 10 1 0
BITMAP
10
30
60
00
F0
C0
C0
C0
C0
C0
ENDCHAR
STARTCHAR uni0404.sc
ENCODING -1
SWIDTH 515 0
DWIDTH 6 0
BBX 5 6 1 0
BITMAP
78
C0
80
E0
D0
78
ENDCHAR
STARTCHAR uni0405.sc
ENCODING -1
SWIDTH 504 0
DWIDTH 6 0
BBX 6 6 0 0
BITMAP
78
6C
70
18
4C
F8
ENDCHAR
STARTCHAR uni0406.sc
ENCODING -1
SWIDTH 301 0
DWIDTH 4 0
BBX 2 6 1 0
BITMAP
C0
C0
C0
C0
C0
C0
ENDCHAR
STARTCHAR uni0407.sc
ENCODING -1
SWIDTH 301 0
DWIDTH 4 0
BBX 4 9 0 0
BITMAP
B0
B0
00
60
60
60
60
60
60
ENDCHAR
STARTCHAR uni0407.sca
ENCODING -1
SWIDTH 301 0
DWIDTH 4 0
BBX 3 9 0 0
BITMAP
E0
E0
00
60
60
60
60
60
60
ENDCHAR
STARTCHAR uni0408.sc
ENCODING -1
SWIDTH 470 0
DWIDTH 6 0
BBX 5 6 0 0
BITMAP
18
18
18
18
98
70
ENDCHAR
STARTCHAR uni0409.sc
ENCODING -1
SWIDTH 785 0
DWIDTH 9 0
BBX 9 6 0 0
BITMAP
3C00
2C00
6F00
6D80
EF80
CF00
ENDCHAR
STARTCHAR uni040A.sc
ENCODING -1
SWIDTH 821 0
DWIDTH 10 0
BBX 8 6 1 0
BITMAP
C8
C8
C8
FF
C9
CF
ENDCHAR
STARTCHAR uni040B.sc
ENCODING -1
SWIDTH 639 0
DWIDTH 8 0
BBX 7 6 0 0
BITMAP
FC
30
3C
36
36
36
ENDCHAR
STARTCHAR uni040C.sc
ENCODING -1
SWIDTH 567 0
DWIDTH 7 0
BBX 6 10 1 0
BITMAP
10
38
20
00
DC
D8
F0
D0
D8
CC
ENDCHAR
STARTCHAR uni040D.sc
ENCODING -1
SWIDTH 606 0
DWIDTH 7 0
BBX 5 10 1 0
BITMAP
40
60
30
00
D8
D8
F8
A8
E8
C8
ENDCHAR
STARTCHAR uni040E.sc
ENCODING -1
SWIDTH 487 0
DWIDTH 6 0
BBX 6 9 0 0
BITMAP
48
78
00
CC
68
78
30
70
60
ENDCHAR
STARTCHAR uni040F.sc
ENCODING -1
SWIDTH 603 0
DWIDTH 7 0
BBX 5 8 1 -2
BITMAP
C8
C8
C8
C8
C8
F8
20
20
ENDCHAR
STARTCHAR uni0462.sc
ENCODING -1
SWIDTH 565 0
DWIDTH 7 0
BBX 6 7 0 0
BITMAP
60
F8
60
7C
64
64
7C
ENDCHAR
STARTCHAR uni0472.sc
ENCODING -1
SWIDTH 616 0
DWIDTH 7 0
BBX 6 6 1 0
BITMAP
78
CC
8C
FC
CC
78
ENDCHAR
STARTCHAR uni0474.sc
ENCODING -1
SWIDTH 505 0
DWIDTH 6 0
BBX 6 6 0 0
BITMAP
CC
CC
58
78
78
30
ENDCHAR
STARTCHAR uni0490.sc
ENCODING -1
SWIDTH 472 0
DWIDTH 6 0
BBX 4 9 1 0
BITMAP
10
10
10
F0
C0
C0
C0
C0
C0
ENDCHAR
STARTCHAR uni0492.sc
ENCODING -1
SWIDTH 497 0
DWIDTH 6 0
BBX 6 6 0 0
BITMAP
7C
60
60
F0
60
60
ENDCHAR
STARTCHAR uni0496.sc
ENCODING -1
SWIDTH 813 0
DWIDTH 10 0
BBX 10 8 0 -2
BITMAP
C980
EB80
3E00
6B00
6900
C9C0
00C0
0080
ENDCHAR
STARTCHAR uni0498.sc
ENCODING -1
SWIDTH 500 0
DWIDTH 6 0
BBX 6 8 0 -2
BITMAP
78
48
38
0C
8C
78
30
30
ENDCHAR
STARTCHAR uni049A.sc
ENCODING -1
SWIDTH 612 0
DWIDTH 7 0
BBX 6 8 1 -2
BITMAP
DC
D8
F0
D0
D8
CC
04
04
ENDCHAR
STARTCHAR uni04A0.sc
ENCODING -1
SWIDTH 674 0
DWIDTH 8 0
BBX 8 6 0 0
BITMAP
F3
F7
3C
34
36
33
ENDCHAR
STARTCHAR uni04A2.sc
ENCODING -1
SWIDTH 636 0
DWIDTH 8 0
BBX 6 8 1 -2
BITMAP
CC
CC
CC
FC
CC
CC
04
04
ENDCHAR
STARTCHAR uni04AA.sc
ENCODING -1
SWIDTH 520 0
DWIDTH 6 0
BBX 5 8 1 -2
BITMAP
78
C0
80
80
D0
78
20
20
ENDCHAR
STARTCHAR uni04AE.sc
ENCODING -1
SWIDTH 467 0
DWIDTH 6 0
BBX 6 6 0 0
BITMAP
CC
58
70
30
30
30
ENDCHAR
STARTCHAR uni04B0.sc
ENCODING -1
SWIDTH 467 0
DWIDTH 6 0
BBX 6 6 0 0
BITMAP
CC
58
70
30
78
30
ENDCHAR
STARTCHAR uni04B2.sc
ENCODING -1
SWIDTH 547 0
DWIDTH 7 0
BBX 6 8 0 -2
BITMAP
CC
78
30
30
78
CC
04
04
ENDCHAR
STARTCHAR uni04B6.sc
ENCODING -1
SWIDTH 591 0
DWIDTH 7 0
BBX 6 8 1 -2
BITMAP
98
98
F8
18
18
1C
0C
0C
ENDCHAR
STARTCHAR uni04BA.sc
ENCODING -1
SWIDTH 576 0
DWIDTH 7 0
BBX 5 6 1 0
BITMAP
C0
C0
F0
D8
D8
D8
ENDCHAR
STARTCHAR uni04C0.sc
ENCODING -1
SWIDTH 301 0
DWIDTH 4 0
BBX 2 6 1 0
BITMAP
C0
C0
C0
C0
C0
C0
ENDCHAR
STARTCHAR uni04C1.sc
ENCODING -1
SWIDTH 766 0
DWIDTH 9 0
BBX 9 9 0 0
BITMAP
3600
1C00
0000
C980
EB80
3E00
6B00
6900
C980
ENDCHAR
STARTCHAR uni04D0.sc
ENCODING -1
SWIDTH 503 0
DWIDTH 6 0
BBX 6 9 0 0
BITMAP
48
78
00
30
78
78
58
FC
CC
ENDCHAR
STARTCHAR uni04D4.sc
ENCODING -1
SWIDTH 741 0
DWIDTH 9 0
BBX 8 6 0 0
BITMAP
1F
3C
2C
6F
7C
CF
ENDCHAR
STARTCHAR uni04D6.sc
ENCODING -1
SWIDTH 499 0
DWIDTH 6 0
BBX 4 9 1 0
BITMAP
D0
70
00
F0
C0
C0
F0
C0
F0
ENDCHAR
STARTCHAR uni04D8.sc
ENCODING -1
SWIDTH 604 0
DWIDTH 7 0
BBX 6 6 1 0
BITMAP
F0
98
0C
FC
C8
70
ENDCHAR
STARTCHAR uni04E2.sc
ENCODING -1
SWIDTH 606 0
DWIDTH 7 0
BBX 5 9 1 0
BITMAP
78
00
00
D8
D8
F8
A8
E8
C8
ENDCHAR
STARTCHAR uni04E6.sc
ENCODING -1
SWIDTH 616 0
DWIDTH 7 0
BBX 6 9 1 0
BITMAP
58
58
00
78
CC
8C
8C
CC
78
ENDCHAR
STARTCHAR uni04E8.sc
ENCODING -1
SWIDTH 616 0
DWIDTH 7 0
BBX 6 6 1 0
BITMAP
78
CC
8C
FC
CC
78
ENDCHAR
STARTCHAR uni04EE.sc
ENCODING -1
SWIDTH 487 0
DWIDTH 6 0
BBX 6 9 0 0
BITMAP
78
00
00
CC
68
78
30
70
60
ENDCHAR
STARTCHAR uni04F2.sc
ENCODING -1
SWIDTH 487 0
DWIDTH 6 0
BBX 6 9 0 0
BITMAP
34
28
40
CC
68
78
30
70
60
ENDCHAR
STARTCHAR ampersand.sc
ENCODING -1
SWIDTH 596 0
DWIDTH 7 0
BBX 7 6 0 0
BITMAP
30
58
70
76
DC
7E
ENDCHAR
STARTCHAR zero.sc
ENCODING -1
SWIDTH 550 0
DWIDTH 7 0
BBX 5 6 1 0
BITMAP
70
D8
98
98
D8
70
ENDCHAR
STARTCHAR one.sc
ENCODING -1
SWIDTH 400 0
DWIDTH 5 0
BBX 4 6 0 0
BITMAP
30
F0
30
30
30
30
ENDCHAR
STARTCHAR two.sc
ENCODING -1
SWIDTH 482 0
DWIDTH 6 0
BBX 5 6 0 0
BITMAP
70
98
18
30
70
F8
ENDCHAR
STARTCHAR three.sc
ENCODING -1
SWIDTH 495 0
DWIDTH 6 0
BBX 5 6 0 0
BITMAP
78
98
30
18
88
F8
ENDCHAR
STARTCHAR four.sc
ENCODING -1
SWIDTH 523 0
DWIDTH 6 0
BBX 6 6 0 0
BITMAP
18
38
78
58
FC
18
ENDCHAR
STARTCHAR five.sc
ENCODING -1
SWIDTH 494 0
DWIDTH 6 0
BBX 5 6 0 0
BITMAP
78
40
78
08
88
70
ENDCHAR
STARTCHAR six.sc
ENCODING -1
SWIDTH 519 0
DWIDTH 6 0
BBX 5 6 1 0
BITMAP
78
C0
B0
D8
D8
70
ENDCHAR
STARTCHAR seven.sc
ENCODING -1
SWIDTH 464 0
DWIDTH 6 0
BBX 5 6 0 0
BITMAP
F8
10
30
30
20
20
ENDCHAR
STARTCHAR eight.sc
ENCODING -1
SWIDTH 511 0
DWIDTH 6 0
BBX 5 6 1 0
BITMAP
F0
90
70
90
98
F0
ENDCHAR
STARTCHAR nine.sc
ENCODING -1
SWIDTH 513 0
DWIDTH 6 0
BBX 5 6 1 0
BITMAP
F0
90
98
F8
10
E0
ENDCHAR
STARTCHAR exclam.sc
ENCODING -1
SWIDTH 340 0
DWIDTH 4 0
BBX 2 6 1 0
BITMAP
C0
C0
C0
00
C0
C0
ENDCHAR
STARTCHAR exclamdown.sc
ENCODING -1
SWIDTH 340 0
DWIDTH 4 0
BBX 2 6 1 0
BITMAP
C0
C0
00
C0
C0
C0
ENDCHAR
STARTCHAR question.sc
ENCODING -1
SWIDTH 463 0
DWIDTH 6 0
BBX 4 7 1 0
BITMAP
E0
B0
30
60
00
60
60
ENDCHAR
STARTCHAR quotesingle.sc
ENCODING -1
SWIDTH 300 0
DWIDTH 4 0
BBX 2 4 1 3
BITMAP
C0
C0
80
80
ENDCHAR
STARTCHAR quotedbl.sc
ENCODING -1
SWIDTH 536 0
DWIDTH 6 0
BBX 5 4 1 3
BITMAP
D8
D0
90
90
ENDCHAR
STARTCHAR quoteleft.sc
ENCODING -1
SWIDTH 300 0
DWIDTH 4 0
BBX 2 4 1 3
BITMAP
C0
80
C0
C0
ENDCHAR
STARTCHAR quoteright.sc
ENCODING -1
SWIDTH 300 0
DWIDTH 4 0
BBX 2 4 1 3
BITMAP
C0
C0
40
80
ENDCHAR
STARTCHAR quotedblleft.sc
ENCODING -1
SWIDTH 471 0
DWIDTH 6 0
BBX 5 4 1 3
BITMAP
D8
90
F0
D8
ENDCHAR
STARTCHAR quotedblright.sc
ENCODING -1
SWIDTH 471 0
DWIDTH 6 0
BBX 5 4 1 3
BITMAP
D8
D8
48
90
ENDCHAR
STARTCHAR hyphen.sc
ENCODING -1
SWIDTH 332 0
DWIDTH 4 0
BBX 2 1 1 3
BITMAP
C0
ENDCHAR
STARTCHAR endash.sc
ENCODING -1
SWIDTH 418 0
DWIDTH 5 0
BBX 4 1 1 3
BITMAP
F0
ENDCHAR
STARTCHAR emdash.sc
ENCODING -1
SWIDTH 696 0
DWIDTH 8 0
BBX 7 1 1 3
BITMAP
FE
ENDCHAR
STARTCHAR parenleft.sc
ENCODING -1
SWIDTH 344 0
DWIDTH 4 0
BBX 3 9 1 -1
BITMAP
60
40
C0
80
80
80
C0
C0
60
ENDCHAR
STARTCHAR parenright.sc
ENCODING -1
SWIDTH 344 0
DWIDTH 4 0
BBX 2 9 1 -1
BITMAP
80
C0
40
40
40
40
40
C0
80
ENDCHAR
STARTCHAR bracketleft.sc
ENCODING -1
SWIDTH 344 0
DWIDTH 4 0
BBX 3 8 1 -1
BITMAP
E0
80
80
80
80
80
80
E0
ENDCHAR
STARTCHAR bracketright.sc
ENCODING -1
SWIDTH 344 0
DWIDTH 4 0
BBX 2 8 1 -1
BITMAP
C0
40
40
40
40
40
40
C0
ENDCHAR
STARTCHAR braceleft.sc
ENCODING -1
SWIDTH 344 0
DWIDTH 4 0
BBX 4 8 0 -1
BITMAP
70
60
60
C0
60
60
60
30
ENDCHAR
STARTCHAR braceright.sc
ENCODING -1
SWIDTH 344 0
DWIDTH 4 0
BBX 3 8 1 -1
BITMAP
C0
C0
C0
60
C0
C0
C0
C0
ENDCHAR
STARTCHAR period.sups
ENCODING -1
SWIDTH 208 0
DWIDTH 3 0
BBX 2 2 0 5
BITMAP
40
C0
ENDCHAR
STARTCHAR comma.sups
ENCODING -1
SWIDTH 208 0
DWIDTH 3 0
BBX 2 3 0 3
BITMAP
C0
40
80
ENDCHAR
STARTCHAR period.subs
ENCODING -1
SWIDTH 208 0
DWIDTH 3 0
BBX 2 2 0 -2
BITMAP
40
C0
ENDCHAR
STARTCHAR comma.subs
ENCODING -1
SWIDTH 208 0
DWIDTH 3 0
BBX 2 3 0 -4
BITMAP
C0
40
80
ENDCHAR
STARTCHAR zero.dnom
ENCODING -1
SWIDTH 376 0
DWIDTH 5 0
BBX 4 5 0 0
BITMAP
60
D0
D0
D0
60
ENDCHAR
STARTCHAR one.dnom
ENCODING -1
SWIDTH 376 0
DWIDTH 5 0
BBX 2 5 1 0
BITMAP
C0
40
40
40
40
ENDCHAR
STARTCHAR two.dnom
ENCODING -1
SWIDTH 376 0
DWIDTH 5 0
BBX 4 5 0 0
BITMAP
60
90
30
60
70
ENDCHAR
STARTCHAR three.dnom
ENCODING -1
SWIDTH 376 0
DWIDTH 5 0
BBX 4 5 0 0
BITMAP
70
10
20
90
70
ENDCHAR
STARTCHAR four.dnom
ENCODING -1
SWIDTH 376 0
DWIDTH 5 0
BBX 4 5 0 0
BITMAP
30
50
50
F0
10
ENDCHAR
STARTCHAR five.dnom
ENCODING -1
SWIDTH 376 0
DWIDTH 5 0
BBX 4 5 0 0
BITMAP
70
40
70
90
70
ENDCHAR
STARTCHAR six.dnom
ENCODING -1
SWIDTH 376 0
DWIDTH 5 0
BBX 4 5 0 0
BITMAP
70
40
F0
50
70
ENDCHAR
STARTCHAR seven.dnom
ENCODING -1
SWIDTH 376 0
DWIDTH 5 0
BBX 3 5 1 0
BITMAP
E0
60
40
40
C0
ENDCHAR
STARTCHAR eight.dnom
ENCODING -1
SWIDTH 376 0
DWIDTH 5 0
BBX 4 5 0 0
BITMAP
70
50
60
D0
70
ENDCHAR
STARTCHAR nine.dnom
ENCODING -1
SWIDTH 376 0
DWIDTH 5 0
BBX 4 5 0 0
BITMAP
60
D0
70
10
60
ENDCHAR
STARTCHAR parenleft.dnom
ENCODING -1
SWIDTH 268 0
DWIDTH 3 0
BBX 2 7 1 -1
BITMAP
40
80
80
80
80
80
40
ENDCHAR
STARTCHAR parenright.dnom
ENCODING -1
SWIDTH 268 0
DWIDTH 3 0
BBX 2 7 0 -1
BITMAP
C0
40
40
40
40
40
C0
ENDCHAR
STARTCHAR period.dnom
ENCODING -1
SWIDTH 208 0
DWIDTH 3 0
BBX 2 2 0 0
BITMAP
40
C0
ENDCHAR
STARTCHAR comma.dnom
ENCODING -1
SWIDTH 208 0
DWIDTH 3 0
BBX 2 3 0 -2
BITMAP
C0
40
80
ENDCHAR
STARTCHAR zero.numr
ENCODING -1
SWIDTH 376 0
DWIDTH 5 0
BBX 4 5 0 3
BITMAP
60
D0
D0
D0
60
ENDCHAR
STARTCHAR one.numr
ENCODING -1
SWIDTH 376 0
DWIDTH 5 0
BBX 2 5 1 3
BITMAP
C0
40
40
40
40
ENDCHAR
STARTCHAR two.numr
ENCODING -1
SWIDTH 376 0
DWIDTH 5 0
BBX 4 5 0 3
BITMAP
60
90
30
60
70
ENDCHAR
STARTCHAR three.numr
ENCODING -1
SWIDTH 376 0
DWIDTH 5 0
BBX 4 5 0 3
BITMAP
70
10
20
90
70
ENDCHAR
STARTCHAR four.numr
ENCODING -1
SWIDTH 376 0
DWIDTH 5 0
BBX 4 5 0 3
BITMAP
30
50
50
F0
10
ENDCHAR
STARTCHAR five.numr
ENCODING -1
SWIDTH 376 0
DWIDTH 5 0
BBX 4 5 0 3
BITMAP
70
40
70
90
70
ENDCHAR
STARTCHAR six.numr
ENCODING -1
SWIDTH 376 0
DWIDTH 5 0
BBX 4 5 0 3
BITMAP
70
40
F0
50
70
ENDCHAR
STARTCHAR seven.numr
ENCODING -1
SWIDTH 376 0
DWIDTH 5 0
BBX 3 5 1 3
BITMAP
E0
60
40
40
C0
ENDCHAR
STARTCHAR eight.numr
ENCODING -1
SWIDTH 376 0
DWIDTH 5 0
BBX 4 5 0 3
BITMAP
70
50
60
D0
70
ENDCHAR
STARTCHAR nine.numr
ENCODING -1
SWIDTH 376 0
DWIDTH 5 0
BBX 4 5 0 3
BITMAP
60
D0
70
10
60
ENDCHAR
STARTCHAR parenleft.numr
ENCODING -1
SWIDTH 268 0
DWIDTH 3 0
BBX 2 7 1 2
BITMAP
40
80
80
80
80
80
40
ENDCHAR
STARTCHAR parenright.numr
ENCODING -1
SWIDTH 268 0
DWIDTH 3 0
BBX 2 7 0 2
BITMAP
C0
40
40
40
40
40
C0
ENDCHAR
STARTCHAR period.numr
ENCODING -1
SWIDTH 208 0
DWIDTH 3 0
BBX 2 2 0 3
BITMAP
40
C0
ENDCHAR
STARTCHAR comma.numr
ENCODING -1
SWIDTH 208 0
DWIDTH 3 0
BBX 2 3 0 1
BITMAP
C0
40
80
ENDCHAR
STARTCHAR ordfeminine.a
ENCODING -1
SWIDTH 385 0
DWIDTH 5 0
BBX 4 5 0 4
BITMAP
70
D0
D0
D0
70
ENDCHAR
STARTCHAR A.sups
ENCODING -1
SWIDTH 387 0
DWIDTH 5 0
BBX 5 5 0 5
BITMAP
60
70
50
F0
98
ENDCHAR
STARTCHAR B.sups
ENCODING -1
SWIDTH 407 0
DWIDTH 5 0
BBX 4 5 1 5
BITMAP
E0
A0
E0
B0
E0
ENDCHAR
STARTCHAR C.sups
ENCODING -1
SWIDTH 390 0
DWIDTH 5 0
BBX 5 6 0 4
BITMAP
70
40
C0
C0
40
78
ENDCHAR
STARTCHAR D.sups
ENCODING -1
SWIDTH 427 0
DWIDTH 5 0
BBX 4 5 1 5
BITMAP
E0
B0
B0
B0
E0
ENDCHAR
STARTCHAR E.sups
ENCODING -1
SWIDTH 369 0
DWIDTH 4 0
BBX 3 5 1 5
BITMAP
E0
80
E0
80
E0
ENDCHAR
STARTCHAR F.sups
ENCODING -1
SWIDTH 354 0
DWIDTH 4 0
BBX 3 5 1 5
BITMAP
E0
80
80
E0
80
ENDCHAR
STARTCHAR G.sups
ENCODING -1
SWIDTH 431 0
DWIDTH 5 0
BBX 5 6 0 4
BITMAP
70
48
C0
D8
48
78
ENDCHAR
STARTCHAR H.sups
ENCODING -1
SWIDTH 452 0
DWIDTH 5 0
BBX 4 5 1 5
BITMAP
90
90
F0
90
90
ENDCHAR
STARTCHAR I.sups
ENCODING -1
SWIDTH 203 0
DWIDTH 2 0
BBX 1 5 1 5
BITMAP
80
80
80
80
80
ENDCHAR
STARTCHAR J.sups
ENCODING -1
SWIDTH 344 0
DWIDTH 4 0
BBX 4 6 0 4
BITMAP
30
30
30
30
A0
E0
ENDCHAR
STARTCHAR K.sups
ENCODING -1
SWIDTH 414 0
DWIDTH 5 0
BBX 4 5 1 5
BITMAP
B0
E0
C0
A0
B0
ENDCHAR
STARTCHAR L.sups
ENCODING -1
SWIDTH 349 0
DWIDTH 4 0
BBX 3 5 1 5
BITMAP
80
80
80
80
E0
ENDCHAR
STARTCHAR M.sups
ENCODING -1
SWIDTH 514 0
DWIDTH 6 0
BBX 5 5 1 5
BITMAP
98
D8
F8
F8
D8
ENDCHAR
STARTCHAR N.sups
ENCODING -1
SWIDTH 446 0
DWIDTH 5 0
BBX 4 5 1 5
BITMAP
90
D0
D0
B0
B0
ENDCHAR
STARTCHAR O.sups
ENCODING -1
SWIDTH 461 0
DWIDTH 6 0
BBX 5 6 0 4
BITMAP
70
48
C8
C8
48
70
ENDCHAR
STARTCHAR P.sups
ENCODING -1
SWIDTH 408 0
DWIDTH 5 0
BBX 4 5 1 5
BITMAP
E0
B0
B0
E0
80
ENDCHAR
STARTCHAR Q.sups
ENCODING -1
SWIDTH 461 0
DWIDTH 6 0
BBX 5 7 0 3
BITMAP
70
48
C8
C8
48
70
18
ENDCHAR
STARTCHAR R.sups
ENCODING -1
SWIDTH 416 0
DWIDTH 5 0
BBX 4 5 1 5
BITMAP
E0
B0
B0
E0
B0
ENDCHAR
STARTCHAR S.sups
ENCODING -1
SWIDTH 374 0
DWIDTH 4 0
BBX 4 6 0 4
BITMAP
70
C0
60
30
90
70
ENDCHAR
STARTCHAR T.sups
ENCODING -1
SWIDTH 376 0
DWIDTH 5 0
BBX 4 5 0 5
BITMAP
F0
20
20
20
20
ENDCHAR
STARTCHAR U.sups
ENCODING -1
SWIDTH 448 0
DWIDTH 5 0
BBX 4 6 1 4
BITMAP
90
90
90
90
B0
E0
ENDCHAR
STARTCHAR V.sups
ENCODING -1
SWIDTH 378 0
DWIDTH 5 0
BBX 5 5 0 5
BITMAP
98
D0
50
70
60
ENDCHAR
ENDFONT
